<svg xmlns="http://www.w3.org/2000/svg" width="502.999" height="88.001"><path data-name="Color Overlay" d="M436.689 81.131c-3.428-.22 2.791.995.926 1.077-3.758-1.332-8.416-2.245-17.142-3.261l.956.32c-12.179-1.934-20.922-3-30.054-3.926s-18.644-1.647-32.475-2.71l2.12-.617c-5.94-.456-7.217-.308-10.015-.365-3.328-.929.772-.568 4.993-.207 4.27.366 8.662.732 5.6-.24-3.9.443-13.932-.453-23.838-1.349-10.442-.944-20.744-1.888-23.584-1.266-9.157-.974 2.781-.642-6.367-1.627l-2.482.227-2.236-.917c-6.008-.6-9.112-.372-9.392.038 1.463.13 4.125.635 5.682.866-7.621-.272-21.045-2.982-24.315-3.412l4.128.5 4.414.5c-11.857-1.946-24.968-4.192-37.927-7.17l.13-.436c-.147-.044-.3-.091-.444-.139l1.868-6.241.456.1.072-.24a138.932 138.932 0 01-18.565 2.8c1.082-.079 1.391-.007 2.811-.139-6.289 1.012-12.474.572-20.165 2.183a26.9 26.9 0 00-6.142.178c-2.471.273-4.563.544-5.353-.123l7.786-.779 7.784-.724c-8.841.613-17.3.041-31.717 2.684 1.164.126 5.529-.072 8.519-.249-4.192.94-8.2.783-12.55 1.763 1.429 1.189 18.922-2.169 28.468-2.222-4.477 1.082-17.952 1.212-13.033 2.081-7.045-1.012-16.647 2.387-28.318 2.434l.859.713c-1.835.1-5.65.2-9 .631l6.2.294a92.854 92.854 0 00-13.32 1.612l-1.446-4.7c-.767.074-1.985.254-3.941.616-11.407 2.74-21.466 5.69-35.144 7.981l-3.828 1.464c-1.943.714-3.962 1.369-3.962 1.369-5.81.726-3-.072-1.211-.74.894-.346 1.535-.662.782-.727-.762-.1-2.876.214-7.723.425-2.941.082-4.893-.068-6.116-.071l-3.855-.006.512-3.912a8.433 8.433 0 01.491-1.968c.212-.427.42-.791.6-1.1.38-.622.573-.791.719-1.048.273-.432.171-.526.022-.587-.32-.024-.649-.441 1.569-1.995a27.367 27.367 0 016.456-2.054 79.576 79.576 0 013.529-.662l1.733-.289a6.485 6.485 0 00.751-.155l.924-.217c4.969-1.185 10.55-2.65 16.194-4.6-3.874.759-6.815 1.729-10.391 2.628l4.295-1.522 4.308-1.481c-10.9 1.7-18.451 4.394-10.468 1.1.937.941 9.473-1.383 18.062-3.4 8.584-2.042 17.2-3.837 18.057-2.828l5.716-1.732c-1.66.38-1.948.3-3.6.681 11.069-3.531 8.734-.157 23.209-3.62 5.031-1.27 8.5-2.364 4.989-1.891l11.408-1.87c.758-.175 1.293-.32 1.628-.432q-.884.043-1.84.068l.895-.183c-.278.049-.6.11-.949.185h.054l-.659.135q.317-.073.6-.133-1.126.028-2.353.028c.017.833-5.526 1.089-12.433 1.743l.531.959c1.412-.25 2.378-.4 3.113-.5l-3.108.507.044.08c-2.223.134-3.739.176-4.887.167l-2.371 1.365 1.227-1.274.447-.1c-.93-.026-1.609-.085-2.308-.145a36.405 36.405 0 00-3.5-.158c-8.29 1.088-9.891 2.205-11.741 3.167-6.61 1-4.357.342-2.428-.32s3.526-1.321-4.313-.328c-10.946 2.044-18.685 2.878-31.9 4.813-4.478 1.128-3.157 1.06-1.876.993.889-.047 1.759-.094.658.258l-6.964.518c-1.659.362-1.068.517-.769.594-2.559.371-2.993.224-3.46.077-.591-.185-1.234-.372-6.309.493-1.336-.347-5.879 1.036-11.555 2.548-5.656 1.515-12.564 3.1-18.273 3.25-2.694.747 1.428.454.654 1.01-5.909.606-9.362 1.019-12.191 1.213a67.663 67.663 0 01-8.869.14l-1.02-4.8a149.945 149.945 0 01-15.868 3.255 104.123 104.123 0 01-12.914 1.3l-4.812 1.122-.056-.593a32.834 32.834 0 003.817-.5q-1.59.026-3.179-.019l-.288.061a4.034 4.034 0 00-.379.165l.029.3h-.075l-.024-.253a.546.546 0 01.07-.043l-.023-.25h-.075l.028.3a.07.07 0 00-.025.031l-.031-.328a75.004 75.004 0 01-.941-.047L3.02 50.17l.922-.176-.036-.377.026-.006-.021-.22a.914.914 0 01.077.022l-.06-.632a61.022 61.022 0 008.763-.621c1.933-.454 3.817-.94 5.64-1.474a65.834 65.834 0 009.274-1.88c-.356.068-.679.117-.958.148.392-.081.975-.2 1.57-.318l5.243-1.44c-1.572.491-3.077.94-4.4 1.276 2.956-.57 7.456-1.331 11.884-1.965l1.723-1.161a86.606 86.606 0 00-9.207 1.849c5.337-1.679 11.275-3.767 10.753-2.894l-1.546 1.044 1.022-.166c4.262-1.094 3.54-.247 1.349.783 2.237-.268 4.295-.476 5.9-.561 3.273-1.953 11.616-1.593 16.169-3.8 1.264.065 5.219-.448 9.629-1 2-.715 3.639-1.237 3.992-1a13.546 13.546 0 00-1.2.655c4.753-.577 9.49-1.074 11.576-.86 2.91-.564 5.819-1.117 8.639-1.525-2.531-.024-5.411.051-2.922-1.034-.18-.166.878-.6 4.553-1.555a41.245 41.245 0 00-4.553 1.555c.29.255 3.612-.157 4.988-.365 3.663-1.18-1.772-.567 6.357-2.427.634.319 3.236-.246 5.471-.809 3.538-.893 6.154-1.786-1.409.82 7.983-1.683 8.344-2.345 17.584-4.788-2.749 1.526 8.983.281 16.9-1.912-.548-.139 1.089-1.065 1.885-1.5l-.294.095c.969-.46.8-.377.294-.095l4.067-1.325 1.937-.638c.672-.079 1.323-.071 1.933-.194a6.76 6.76 0 005.092-3.526c-8.276-.721-15.487-.488-25.336-.054-1.419.335-8.911 1.091-5.685 1.421-1.506-.056-2.938-.2-5.16-.22-1.612.262-3.152.49-4.63.711.484-.014 1.027-.034 1.583-.054 2.977-.107 6.31-.214 2.769.608-.266-.273-2.443-.359-5.389-.355-1.89.352-3.77.658-5.682.888 1.716-.325 3.5-.6 5.4-.888-1.9.006-4.1.047-6.3.1a326.45 326.45 0 00-4.948 1.471l.336-.13L93.376 23c3.179-.9 7.194-1.87 14.326-3.552a30 30 0 00-3.605.258l-.1.011c1.814.008 2.023.116-3.915.608a23.337 23.337 0 00-2.87-.007c-2.412.066-4.589.131 1.075-.609a21.482 21.482 0 002.156.037 4.124 4.124 0 011.348-.747c9.363-2.271 6.7-1.025 12.375-2.1-1.091.257-2 .474-2.757.655 1.6-.116 3.431-.2 5.318-.254 1.9-.533 3.834-1.059 5.762-1.571a168.3 168.3 0 00-22.4-.165c-13 .94-5.516 1.512-7.788 1.527-12.119 1.511-17.341 1.823-22.078 2.082-4.718.317-8.96.623-18.77 3.412-7.641 2.758.065 1.87-1.526 2.931 10.363-2.074 15.737-4.062 22.828-5.245l-4.315.978-4.295 1.047c3.358-.373 10.336-1.373 14.1-2.185-3.267.895-13.411 2.569-24.889 5.27-11.5 2.632-24.281 6.251-33.278 9.052-3.315.5-8.943 1.742-6.418.656l5.786-1.4c2.529-1.048-.154-.608-2.645-.167-2.552.452-4.9.9-1.252-.246a64.851 64.851 0 00-14.6 4.18l1.557 4.628a109.771 109.771 0 0013.185-2.9l1.714-1.445a50.013 50.013 0 01-9.915 2.6c4.848-.6 16.348-5.413 21.568-5.172l-7.463 2.516c7.843-1.4 17.781-2.329 27.43-4.837-4.195 1.993-2.267.378-8.911 3.1 2.829-1.4-3.386-.013-9.149 1.269-5.256 1.178-10.144 2.4-7.247 1.046-6.3 2.712-11.509 3.417-20.4 6.375.165-.284 1.724-.826-.419-.458l-2.9-8.619c.778-.346 2.231-1.1 4.676-2.088-.5.081-.12-.23 3.125-1.189-1.231.44-2.2.814-3.125 1.189.418-.051 1.358-.268 1.95-.389l.558-.224-.45.2c.382-.077.418-.079-.167.074a20.8 20.8 0 00-4.055 2.165c2.2-.585 6.591-1.953 10.958-2.966 4.382-1.03 8.628-1.979 10.838-2.4 2.535-.789 1.759-.688.869-.587-.774.088-1.633.176-.463-.325l6.653-1.17c.433-.931 12.468-4.622 1-2.066l10.229-2.69a128.126 128.126 0 0119.595-4.757c4.9-1.18 12.644-1.435 8.222-1.293 0 0 4.141-.6 8.286-1.089s8.291-.883 8.291-.883l.13-.21c13.308-1.731 27.247-1.815 42.007-3l2.387-.84c-1.119.052-2.28.117-3.5.2 1.377-.18 2.827-.352 4.321-.487l2.84-1-.231.459c3.6-1.018 5.05-1.543 5.748-1.678a1.836 1.836 0 01.4-.052 1.038 1.038 0 01.266.037.992.992 0 00.5.01 18.437 18.437 0 01-2.117.827c-1.185.4-2.721.813-4.267 1.177a50.311 50.311 0 016.471.077l-2.561.255 2.022.016a12.657 12.657 0 002.921-1.411c-.673.55-1.2.9-1.548 1.157.215-.089.437-.194.695-.33-.5.328-.805.509-.959.592 4.693.037 9.952.112 17.682.6l1.923-.466.611.08 6.71.9-2.966 5.932a12.531 12.531 0 01-2.95 3.892 12.005 12.005 0 01-4.881 2.556 14.848 14.848 0 01-2.491.441l-.548.053a1.434 1.434 0 00-.222.085c-1.1.378-2.2.757-3.276 1.125-.817.281-1.62.553-2.4.812 4.451-.284 9.645-.4 11.849-1.068 2.3-.537 6.133-1.066 10.933-1.629 4.8-.579 10.588-1.191 16.756-2.312l1.632 5.383q-.266.117-.534.231c2.2-.107 4.844-.2 7.727-.287a133.688 133.688 0 0120.332.787l8.778 1.165-7.165 5.574a34.922 34.922 0 01-3.065 2.151 9.119 9.119 0 002.459-2.272c.064-.314-.539.079-2.547 1l.146.611c-.321-.068-.654-.145-1-.225l-.392.172a63.875 63.875 0 01-12.906 3.918c6.988-1.313 14.169-2.729 20.815-3.789 5.591-.9 10.827-1.583 15.139-1.834a47.949 47.949 0 017.866.025c2.746-.5 5.048-.994 7.689-1.592l.262 1.448.151-.015.871 4.826-.149.023.265 1.463c-2.246.391-4.81.81-8.093 1.242 1.588-.586.2-1.007-3.768-.942a32.884 32.884 0 01-4 1.255c.659.2 2.726.253 3.3.458-3.041.555-6.756.918-10.306 1.3-5.395 1.308-10.566 2.551-10.252 2.973q-3.831.867-7.664 1.652c1.869-.093 4.307-.291 8.05-.7 6.418-.882 3.233-1.092 5.765-1.386-.024-.09.83-.213 3.9-.383l14.954-1.314-5.9 1.455c6.556-.037 13.815-1.079 7.558.442 5.249-1.221 18.894-2.349 32.093-3.069 6.738-.374 13.357-.655 18.682-.879 5.253-.229 9.25-.574 10.8-.808 3.039.044 6.071-.024 9.188-.092a175.913 175.913 0 0117.793.254l3.159.239-1.33 2.858a6 6 0 01-2.416 2.613l.061.148h-.023l-.055-.132.017-.011-.04-.1c.932-.77 1.37-1.64.843-1.407-.193.069-.522.268-1.016.515l.316.671-.229.014.086.208-.015.013-.09-.22h.019l-.25-.6-.013.007.245.6c-.913.06-1.287.164-.13.39.076-.056.149-.112.22-.17l.039.1-.158.095.213.038.02.05-.319-.039c-.289.164-.574.305-.846.433a4.994 4.994 0 00.753-.444c-.759-.091-1.47-.168-2.138-.235a42.992 42.992 0 01-4.432 1.036c1.007.4.372.885-1.21 1.381l-2.873.857c-1.2.338-2.561.681-4.019 1.026-5.548 1.328-12.437 2.536-16.412 3.827 1.84-.719-4.556.18-10.61.726-6.583.564-12.6.558-7.039-.5-8.244.615-.453.922-6.713 1.715l-1.856-.027c.154.04.318.08.493.123l6.365.181 6.363.1c4.666.746 4.1 2.314 12.819 2.276-1.243.113-3.1.287.046.746 23.431 1.965 47.391 4.077 71.485 6.728 24.108 2.693 48.145 6.34 72.017 8.989-6.5-.506-2.242.268 2.641 1.125-3.2-.4-.053.748-.744 1.048l19.954 2.326c1.731.857 7.06 1.955 12.079 2.94 5.036 1 9.818 1.586 10.781 2.2 0 0-1.531-.2-3.064-.454-1.531-.277-3.064-.552-3.064-.552 4 1.25 1.055 1.576-2.878 1.656-3.925.064-8.753-.106-8.3.832-8.964-3.265-24.871-2.313-39.781-6.9zM92.883 66.654l.017-.008c-.015.005-.019.008-.018.008zm63.319-18.012c-2.794 2.085-13.242 3.893-22.83 5.738-8.517 1.629-16.376 3.336-17.753 4.578q.8-.2 1.551-.384c3.157-.76 5.665-1.3 8.127-1.791 4.906-.965 9.473-1.616 17.643-2.766l1.49-1.206c2.229-.243 9.082-2.111 17.755-4.32a393.9 393.9 0 017.1-1.773 131.649 131.649 0 01-13.086 1.924zm-152.275 3.8l-.375.027.229 2.423c.128.023.257.043.385.065l.051.542.265-.024L4.437 55h.029l-.245-2.581.074-.005-.053-.561-.077-.014.056.58h-.028l.244 2.575-.271-.042-.239-2.515.266-.018-.055-.586-.274-.05zm.583 3.03l.074-.007-.042-.45c.694.105 1.4.193 2.118.262l9.47-.86c-1.826.524-2.711.825-3.3 1.041a53.14 53.14 0 003.317-.217l2.808-1.015 5.771-.707 5.728-.729c-2.618-.076-6.852.006-11.709.043a94.728 94.728 0 01-11.761-.57q-1.318.062-2.691.154l.247 2.6-.076-.012zm28.724-1.921a2.321 2.321 0 00.239.011 29.934 29.934 0 004.974-.843l-.034-.16q-2.573.525-5.18.994zm252.741-1.983a97.138 97.138 0 0010.238-.621c2.536-.306 4.407-.617 6.327-.956l17.77-3.172-.734.053q.938-.1 1.959-.231c-1.22-.142-3.069-.3-6.414-.445l-3 .842c-4.534-.3-4.954-.454-15.1-.187 8.315.186-6.406 1.253 2.909 1.571-19.781 2.183-30.187.508-39.3 2.493l7.244.088c6.969.115 13.654.2 19.88.076zM256.835 49a63.766 63.766 0 00-8.757 1.558 12.979 12.979 0 003.757.424c.739 0 1.537-.027 2.372-.056.8-.028 1.634-.055 2.483-.056-.021-.919 19.549-1.7 14.9-1.7 2.375-.45.03-.657-3.694-.657-3.379.004-7.897.175-11.061.487zM59.559 50.051l2.028-.266c4.394-.737 6.93-1.16 12.368-2.125-.519-.071-1.368-.109-2.379-.131l2.639-.181c4.985-1.247 2.254-1.435-1.479-1.431l-4.967 1.547 3.808.065-5.368.428 1.561-.493a40.62 40.62 0 01-5.5-.347c-2.336.52-4.83 1.11-7.44 1.729 2.82-.167 7.254-.629 11.383-.889-2.75.87-5.084 1.635-6.654 2.096zm-55.572-.092l.074-.014-.037-.386c.187-.061.156-.121-.016-.176l.016.176-.073.022zm23.5-.867a5.5 5.5 0 011.219.143 172.94 172.94 0 0010.1-1.717l.182-.059a86.858 86.858 0 00-11.5 1.636zm46.935-1.306h.036l-.014-.009zm153.264-.7c5.327-.253 3.826-.319 2.331-.436zm-38.631-1.5q.618-.108 1.267-.218c-.364.055-.794.132-1.266.22zm146.1-2.318h-.011zm-.028-.014c-.018-.009-.038-.019-.058-.031a.531.531 0 00.06.033zM76.739 41.619a3.074 3.074 0 002.4.9c.321-.085 1.673-.5 3.573-1.1zm162.778-.5c-.064.067-.011.1.182.1a10.429 10.429 0 001.542-.211q-.814.05-1.722.114zM87.512 39.331a.5.5 0 01.433.413c.745-.24 1.507-.487 2.27-.736a27.191 27.191 0 00-2.702.325zm24.449-1.48c-1.93.45-3.819.887-5.62 1.309 8.652-.548 18.253-1.3 31.52-3.232h-.17c-3.608 0-2.714-.63-2.046-1.348a41.677 41.677 0 00-4.268.3 73.73 73.73 0 01-3.392.526c-.483.086-.976.177-1.484.272l.141-.1c-.951.119-1.937.235-2.95.351.676-.03 1.437-.081 2.293-.155-3.35.643-7.418 1.399-14.023 2.08zm143.25.519c.085-.065.068-.109-.025-.139zm-146.367-.383l.212-.04zm12.782-2.444l-.17.042 6.2-.706 2.155-1.493a237.852 237.852 0 01-8.183 2.159zm-30.474-.177a2.91 2.91 0 01.793.17c.08-.14.661-.315.376-.315a11.4 11.4 0 00-1.167.147zm125.58-.338l.463.11-.193-.8-.46-.1zm-81.36-1.113l.657.124a.447.447 0 000-.358c-.212.082-.43.16-.656.235zm-4.462-.841l2.2.414c1.213-.3 2.917-.638 4.806-1.063l-4.194-.2c-.898.286-1.838.568-2.811.851zm9.957-.436c.249 0 .538-.012.862-.034l-1.779-.084a2.381 2.381 0 00.918.12zm5.062-.554c1.383-.212 2.914-.469 4.5-.744-1.286.062-2.4.1-3.3.1a7.9 7.9 0 01-2.44-.22c-.072.104.517.49 1.24.866zm69.391-2.965l.181.758c.128-.073.256-.148.382-.223l-.184-.765q-.182.116-.379.232zM50.663 21.627l.283-.024c2.519-.723 3.517-1.008 3.5-1.008s-1.605.443-3.783 1.035zm55.018-1.536c.224 0 1.925-.386 2.774-.542a2.038 2.038 0 00-.752-.1c-1.699.484-2.166.644-2.022.644zm3.092-.606c-.053 0-.237.046-.319.064.057.022.186.027.211.061l-.055.023.072-.015-.017-.007c.386-.154.611-.255.559-.255a3.211 3.211 0 00-.45.132zm2.12-1.135c-.45.184-1.4.492-3.1.982 1.66-.34 3.22-.683 4.712-1.022l-1.606.043zm10.6-.968c-2.98.5-2.917.632-1.7.632.291 0 .648-.007 1.045-.019a115.9 115.9 0 003.3-.7c-.781.01-1.653.039-2.639.09zm-4.613-.094c2.584-.074 5.276-.1 7.681-.1.9-.213 1.83-.445 2.785-.7a24.578 24.578 0 00-3.96-.68c-2.047.433-4.201.941-6.502 1.484zm10.333-.3l-1.2.2c.9 0 1.749.013 2.509.024 0-.138-.124-.273-.353-.4zm6.285-6.062l-4.193.9c3.316-.267 6.674-.591 10.075-1-1.919.013-3.842.041-5.881.109zm8.627-.076h.3c.065-.057.193-.153.349-.261-.219.105-.436.19-.645.27zM498.95 84.929s1 .253 2.011.5l2.034.41c-1.516.075-4.481-.023-5.673.164zm-10-1.185l-2.272-.07-2.419-.657 3.49.427 3.45.325zM451.692 78c1.166.144 3.107.487 6.429 1.167-1.537-.308-4.054-.75-6.429-1.167zM89.238 72.193l-5.984-.37 6.015-.053c.744-.007 1.367-.022 1.861-.022 1.18 0 1.625.086 1.235.571h-.36c-.889.008-1.823-.064-2.768-.119zm-6.192-.382l-.5-.031.756-6.551a8.966 8.966 0 011.271-3.728 9.6 9.6 0 01.929-1.282c.274-.292.562-.578.856-.853a14.067 14.067 0 012.983-2.037c.564-.29 1.1-.539 1.616-.761a19.192 19.192 0 00-2.4 1.324 15.827 15.827 0 00-1.365 1.015 13 13 0 00-1.408 1.408 7.336 7.336 0 00-.71.987c-.229.366-.435.736-.616 1.1a9.937 9.937 0 00-.731 2.861l-.673 6.548.208.013h-.21zm216.339-4.641l1.243.064c.04.043-.011.061-.132.061a10.113 10.113 0 01-1.112-.121zm-24.6-3.446c.084.009.179.021.284.034zm-180.823-8.3c-.937.333-1.925.677-3.01 1.145a25 25 0 013.01-1.143zm99.513.869a60.528 60.528 0 011.906-.056c.715 0-.658.107-2.656.223zm112.206-.472a8.359 8.359 0 01-.595.2c.189-.064.388-.132.594-.199zM26.199 38.778c-.106.2-1.149.687.126.453l-6.8 1.441a67.764 67.764 0 006.674-1.894zM5.737 40.313a3.515 3.515 0 001.371.065c-.309.03-.585.048-.809.048-.29.001-.493-.031-.559-.112zm-4.026-1.31a29.461 29.461 0 016.287-2.551c.04 0 .056.009.048.028a53.412 53.412 0 00-6.211 2.778l.286.846 1.88-.427c-.1.166 1 .033 2.336-.189l-4.163.895zm5.505 1.365l-.109.011zm.266-.031l-.179.021zm5.7-2.257c-1.465.343-4.63 1.048-6.841 1.409 2.721-.601 5.303-1.189 6.84-1.41zm13.873 1c-.3.069-.538.12-.726.154zm-1.485-5.111l-2.45.77-5.924 1.506zm100.933 1.719l-.111.079-.406.02zm-82.552-3.537l-.936.206c1.776.609-3.937 1.54-9.622 2.469.448-.819 5.237-1.634 10.557-2.678zm-11.6.72l4.824-1.238-1.708 1.26zm-20.658-1.65c-.719.277-2.084.716-4.509 1.633a57.93 57.93 0 014.509-1.636zm45.217.509l.759.529-4.432.56zm-50.43.443a20.306 20.306 0 014.853-2.607c1.887-.778 3.784-1.472 5.524-2.216l1.3-.793 4.091-.671c-1.335.538-2.547 1.074-4.116 1.65l-4.291 1.486c-1.4.5-2.773 1.019-4.045 1.6a13.511 13.511 0 00-3.172 1.913zm-1.638-3.706l.155.006-.152-.38c4.775.153 9.495-1.742 12.888-3.007a25.747 25.747 0 01-12.734 3.385l1.483 3.7a2.716 2.716 0 00-.114.1zm45.237 2.369c.706.247-1.966.519-4.9 1.065 1.641-.332 3.311-.681 4.9-1.068zm-37.614.049c-1.237.337-1.689.45-1.726.45a14.954 14.954 0 011.727-.453zm0 0l3.632-.934a92.07 92.07 0 00-4.4 1.271c.681-.246.962-.37.769-.34zm4.9-1.261l-1.271.327c.422-.114.846-.222 1.274-.33zm56.008-1.439l1.856.391-7.56.54zm-51.409.4c-.274-.13-.45-.261-1.075.045-2.073-.048 6.349-1.625 7.763-1.625.676 0-.249.36-4.687 1.419a4.32 4.32 0 01-1.378.3 1.325 1.325 0 01-.62-.143zM11.74 28.33c-.1.021-.2.038-.283.049zm8.734-2.892c.071 0 .1.019.094.059l-2.423.98-2.382 1-2.159.491c-.74.157-1.474.292-1.863.362 2.206-.457 7.928-2.896 8.736-2.896zm32.286 2.345l9.13-1.57c.046-.08-.358-.077-.778-.075-.749 0-1.55.009.03-.457.749.532 9.79-.822 17.305-3.232a17.951 17.951 0 012.589-.246c3.775 0-.251 2.731-5.664 5.026a1.692 1.692 0 00.185.089l-.819.187c.22-.1.411-.178.634-.276-.3-.238-.365-.506-8.238.823 2.641-.965 17.07-4.666 10.364-3.813-10.383 1.937-8.389 2.1-13.32 3.56 2.045-.888-1.348-.455-4.979-.022-2.078.248-4.234.5-5.493.5-.915-.007-1.357-.138-.944-.498zm22.8-.464l7.875-1.791 7.846-1.988-1.115.172 3.21-.709c-3.611 1-6.145 1.963-10.831 3.6a51.133 51.133 0 01-6.353.783 2.042 2.042 0 01-.633-.071zm-.491-5.557l.452 1.01-4.435.329a21.408 21.408 0 003.982-1.343zm27.461-.149a220.547 220.547 0 015.746-1.843 35.509 35.509 0 01-5.72 1.844zm-64.545-3.022l.977-.1-7.457 2.425zm53.394.744c1.121-.174 2.329-.568 3.435-.734l-.208.449a45.1 45.1 0 01-5.457 1.1c-.372-.004.199-.244 2.229-.819zm7.676-2.321l9.444-.566c.983.224-1.57.59-5.086.779-.614 0-1.318.01-1.991.023-.586.012-1.149.023-1.607.023-.96-.003-1.461-.054-.761-.263zm-61.141-.259c-2.574.6-1.753.3-.7 0a10.9 10.9 0 011.447-.348c.112 0-.058.093-.747.347l4.961-1.191c-.571.325.121.268.55.211.108-.014.2-.029.249-.037-.259.046-1.821.334-6.829 1.4.57-.21.736-.268 1.068-.386zm4.567.053c.428-.313 4.1-1.351 10.584-2.624-3.738 1.057-8.592 2.291-1.728 1.244a81.677 81.677 0 01-8.674 1.487c-.216-.004-.276-.04-.183-.115zm1.224-1.075l-.031.005zm.01 0h-.01zm20.981-2.615l7.411-.948-2.37.438-12.443 1.514zm.038-1.106c-.942.389-.967.8-3.437.547.679.237-.859.178-4.065.572zm-4.805-.766a42.226 42.226 0 014.672-.635c.913 0-.525.509-2.911 1.28l-6.846.957c1.355-.585 7.36-1.859 5.083-1.608zm56.168 1.125c4.773-.6 8.6-.932 11.925-1.153-4.573.589-8.451 1.3-10.623 1.3a4.339 4.339 0 01-1.3-.153zm-47.822-.867l-3.541.508a10.079 10.079 0 013.539-.512zm77.626-3.626c.011 0 .011.015 0 .05a6.338 6.338 0 01-1.571 1.521c.659-.483 1.476-1.577 1.569-1.577zm-42.773 1.245c-2.221.124-7.75.661-.93-.762l1.1-.063c4.836-.94 10.737-2.344 12.513-2.885A39.467 39.467 0 01108.925 8a28.8 28.8 0 00-5.74.509c-3.123.691.068.349-.061.614.3-.017.545-.029.692-.029.346 0 .146.065-1.16.274.47-.142.443-.193.47-.251zM93.02 8.68c.1-.283.156-.567-3.758-.282 2.389-.185 6.139-.558 7.788-.558 1.446 0 1.277.286-2.838 1.238h-.1c-1.26-.005-1.165-.205-1.094-.404zm10.943-4.868c.466.194-2.2 1.032-2.658 1.438l7.619-.659c-6.742 1.01-8 1.019-7.619.659l-5.089.489c2.56-.599 7.457-1.505 7.745-1.933zm4.812 1.083l8.691-.651-8 1.24c.126-.219 1.533-.704-.692-.595zm7.467.3h.031c.187 0 0 .082-.458.223.141-.084.284-.158.426-.233zm4.2-1.381l.991.174-3.964.261zm-33.845-.732c.021-.21.626-.432.577-.33a9.822 9.822 0 011-.06c1.552 0 .879.627 1.239.7h-.438c-1.913-.009-2.405-.113-2.382-.32zm34.459-.208l.752-.095a1.375 1.375 0 01-.512.118 1.338 1.338 0 01-.244-.033zm6.646-1.521l-2.905 1.068 6.45-.75-6.554.784.1-.034-2.988.358a21.831 21.831 0 015.894-1.436zm.885-1.343l7.791.126-3.406.023z" fill="#e9e7e7"/></svg>