<svg xmlns="http://www.w3.org/2000/svg" width="135.986" height="794.74"><path data-name="Color Overlay" d="M90.886 794.37a7.109 7.109 0 01-2.354-1.6 45.741 45.741 0 01-1.64-1.711c-2.153-2.263-4.135-4.67-4.135-4.67s-.585-1.086-1.127-2.192c-.559-1.093-1.078-2.2-1.078-2.2a74.241 74.241 0 004.77 6.662c.5.652 1.041 1.286 1.567 1.918.543.651 1 1.206 1.593 1.862a7.049 7.049 0 002.444 1.849 5.84 5.84 0 002.891.391 6.36 6.36 0 01-.75.06h-.212a5.384 5.384 0 01-1.969-.369zm-21.527-31.1l-9.986-17.428c-7.281-12.59-14.818-25.693-17.657-30-7.48-13.751-14.71-27.678-21.194-41.957a37.868 37.868 0 01-3.641-7.1l-.3.113.031.069-.032-.069.3-.114c-.024-.07-.049-.14-.072-.211l3.651-1.4.089.2.3-.113c.931 2.761 2.923 5.566 4.314 8.053 1.392 2.39 2.577 4.269 3.246 5.3s.831 1.2.253.153l-3.1-5.56c4.038 7.153 8.466 13.987 13.063 20.876l7.458 11.184 7.376 11.239c4.949 7.457 10.024 14.832 15.318 22.052l4.019 5.411 3.976 5.419-3.353-5.785c-3.366-5.844-6.815-11.635-10.094-17.55q-9.885-17.682-19.071-35.744c-11.769-23.179-22.275-46.914-32.431-70.648-.454-.806-.9-1.591-1.347-2.392l.268-.136a23.746 23.746 0 01-.121-.281l3.508-1.787.158.261.266-.135c.228.569.459 1.144.7 1.736 4.961 8.317 9.363 16.752 14.565 24.789l12.047 19.443c-3.66-7.907-6.952-15.735-6.952-15.735-4.222-8.956-3.574-6.968-2.922-5.051.306.9.614 1.791.413 1.511-5.367-12-10.066-24.165-14.6-36.2l-3.378-9.006c-.906-2.393-1.735-4.81-2.537-7.2q-1.018-2.079-2-4.172c-1.114-2.373-2.363-4.794-3.449-7.4a30.826 30.826 0 01-2.351-8.413l4.828-1.446c3.513 6.917 5.71 14.134 8.082 21.046 1 2.043 2.026 4.063 3.076 6.077 4.444 8.511 9.214 16.692 14.014 24.648 5.082 8.425 10.117 16.62 15.143 24.506-2.772-5.418-5.06-10.255-6.506-13.16-1.424-2.905-1.976-3.906-1.1-1.746-4.4-10.579-12.26-28.661-17.937-43.569-5.683-14.481-10.009-25.7-8.435-23.558-.6-1.129-1.128-2.112-1.59-2.981l-3.379-6.419c-.886-1.726-1.785-3.536-3.363-6.97-.772-1.721-1.723-3.842-2.937-6.555a91.694 91.694 0 01-3.978-10.577l4.258-2.09a14.531 14.531 0 011.884 3.3 14.8 14.8 0 01.653 1.981 2.133 2.133 0 00.174.527l.357.871 3.2 7.817c-3.8-9.06-1.549-2.968.7 3.114 2.08 5.624 4.161 11.241 1.461 4.863q.655 1.646 1.31 3.284.975 2.06 1.966 4.088c4.427 9.046 9.071 17.664 13.864 26.261 1.6 3.145 5.353 10.268 10.7 19.689 2.319 4.1 4.987 8.606 7.879 13.45q-.3-.59-.606-1.181c-1.284-2.568-2.482-5.09-3.718-7.638-4.9-10.158-9.637-20.281-13.748-29.789-4.14-9.493-7.553-18.423-10.32-25.906-2.344-6.312-4.2-11.656-5.477-15.62 2.226 7.123 1.939 6.483.263 2.059-1.805-4.823-5.081-14.19-7.82-23.182 0 0 1 4.127 2.127 8.208s2.338 8.142 2.338 8.142a329.564 329.564 0 01-5.154-16.383l-2.282-8.211-.213-.771a.68.68 0 00-.105-.209l-.265-.474a11 11 0 01-.991-2.555 9.725 9.725 0 01.293-5.641l1.953-5.355 2.667 5c1.3 2.441 2.455 4.93 3.515 7.427 1.733 4 2.709 6.564 3.327 8.11.3.774.5 1.3.625 1.628s.163.466.144.462a19.14 19.14 0 011.332 3.826c.278.91 1.015 3.11 4.624 11.393 5.861 13.017 9.292 19.682 12 24.9 2.732 5.207 4.84 8.937 8.577 15.864l-1.9-3.941 4.453 8.615 4.521 8.563c3.349 6.287-2.757-4.72-6.836-12.281-2.051-3.775-3.645-6.651-3.425-5.978s2.223 4.922 7.529 15.282c.252.252 3.712 6.36 8.006 13.662 2.661 4.575 5.7 9.579 8.386 13.987l-7.352-15.505q-8.122-17.164-16.328-34.5-8.123-17.372-15.527-35.318a665.864 665.864 0 01-7.132-18.061c-1.156-2.913-2.551-5.885-3.715-9.039a32.292 32.292 0 01-1.969-7.625c-.2-.363-.388-.716-.581-1.059l.49-.124c-.023-.5-.027-1-.011-1.507l.238-7.223 3.712 6.226q.392.655.763 1.316l.438-.111c-.016.285-.024.571-.022.856 2.308 4.2 4.156 8.519 6.251 12.678l7.215 14.683c4.847 9.8 9.607 19.664 14.584 29.5 6.736 13.334 13.385 26.779 20.684 39.884l-.446-1.046-5.095-11.65c-6.859-15.687-13.281-30.494-10.909-26.494l1.486 3.637c5.116 11.463 4.581 9.708 1.725 2.76-2.9-6.93-8-19.1-11.949-28.526 3.3 8.356 1.057 3.51-1.188-1.353-3.1-6.709-6.192-13.45 5.291 14.419 0 0-4.076-9.184-7.978-18.447s-7.645-18.6-7.645-18.6c-2.923-5.868-7.384-16.9-12.4-31.225l-1.772-5.063 5.185 1.406a4.121 4.121 0 011.379.724 4.963 4.963 0 01.6.551c.139.145.257.279.364.408l.016-.007c0 .014.01.029.014.045.123.148.231.289.339.429.41.542.744 1.05 1.074 1.562a62.78 62.78 0 011.8 3.065c1.143 2.061 2.224 4.178 3.307 6.35 2.161 4.34 4.292 8.919 6.467 13.612 4.456 9.208 9.44 19.111 14.521 29.093 5.1 10 10.417 20.152 15.8 30.065 5.026 9.293 10 18.4 15.167 26.75a3.079 3.079 0 01.806.413 3.142 3.142 0 01.382.325l.053.054.04.042.075.085.143.181.109.158.059.092-.595.365-2.319 1.427c-1.9 1.811-1.421 1.438-.949 1.067.27-.212.541-.425.37-.231l1.748-1.086v.005l.022.041.046.083.093.164.187.322.379.629q.379.6.753 1.2a753.808 753.808 0 00-1.526-2.373 48.428 48.428 0 003.011 4.661 10.036 10.036 0 001.808 1.974 1.2 1.2 0 00.608.261.512.512 0 00.085 0c.006-.019-.011-.057-.014-.082l-.044-.174-.088-.347-.38-1.368a55.808 55.808 0 00-1.448-4.226l-.4-1.028-.614-1.5-1.776-4.189c-2.4-5.582-4.885-11.1-7.341-16.5-4.923-10.794-9.723-21.146-13.78-30.534-8.176-18.716-13.964-33.305-16.108-38.3l-1.229-4.693c-1.981-4.808-3.889-9.1-5.438-13.162a89.908 89.908 0 01-2.325-6.808 38.871 38.871 0 00-1.989-3.153l1.044-.445a54.264 54.264 0 01-.235-1.071l3.293-1.4q.331.45.644.9l1.014-.432c.185 1 .4 2 .642 2.992.919 1.522 1.725 3.029 2.484 4.493l3.754 7.429 7.351 14.906c5.131 10.544 11.264 23.046 20.33 42.376-.4-.61-3.3-6.277.358 1.637 2.566 4.915 5.137 9.841 8.55 16.375l.149.283-5.526-13.735-7.577-18.834c-2.034-5.155-3.388-8.592-3.388-8.592.653-.091-4.176-12.68-10.532-29.548-3.173-8.442-6.685-17.982-9.908-27.636l-2.382-7.185-2.441-7.086a81.742 81.742 0 01-2.9-10.632q-.365-.694-.757-1.41c.273.472.515.9.734 1.292a41.55 41.55 0 01-.138-.771q-.386-.713-.788-1.414l.544-.183q-.074-.544-.133-1.087l3.864-1.3q.282.474.555.946l.542-.182c.041.469.093.939.151 1.41a140.972 140.972 0 016.452 14.034c1.914 4.578 3.369 8.2 4.116 10.469 2.636 5.143 8.52 17.475 15.211 30.457 6.656 13 14.2 26.6 19.13 34.788 0-.225 1.463 2.148 4.9 7.682.616 1.252-1.456-1.923-4.9-7.682a29.488 29.488 0 002.068 4.017c4.034 6.233 9.121 14.342 14.864 23l-2.967-7.05c-2.594-6.134-5.036-11.851-7.213-16.795-6.748-14.937-4.2-8.315-1.635-1.638-3.063-7.506-6.87-16.369-10.933-25.606l-6.221-14.025c-2.055-4.7-4.1-9.383-6.078-13.915-3.968-9.068-7.632-17.591-10.488-24.576s-4.912-12.427-5.85-15.25c-1.987-5.588-3.181-8.859-3.813-10.848-.632-1.968-.725-2.552-.635-2.614.052-.036.167.1.282.227.287.328.581.658-.051-1.611-1.212-3.476-2.022-6.253-2.588-8.416-.055-.023-.085-.026-.088-.04l-.113-.126-.042-.054c.032-.04.079-.112.135-.2a102.044 102.044 0 01-.748-3.128l-1.086-4.826 4.345 2.245a12.918 12.918 0 011.4.814l.833.708c.076.067.148.13.214.193l.372-.24.016.106-.319.2c.169.163.305.308.427.438a77.622 77.622 0 01-.107-.637l.25-.154c.058.375.121.751.186 1.127a5.173 5.173 0 00.814.759c.1.053.144.013.18-.025.054-.058.1-.115.34.121.412.4 1.355 1.625 3.125 5.07.858 1.724 1.9 4 3.1 7.025l.937 2.4q.2.535.423 1.1l.6 1.328 2.749 6.063-2.055-4.232c-.364-.749-.725-1.5-1.072-2.212-.4-.8-.554-1.166-.841-1.871-1.052-2.552-1.721-4.009-1-2.13.392 1.017.8 2.085 1.229 3.2l1.544 3.5c1.053 2.429 2.171 5.014 3.332 7.7l7.277 16.942c5.007 11.541 10.268 22.966 14.632 30.827 0 0-1.3-2.673-2.59-5.346l-2.551-5.368a3452.66 3452.66 0 0024.286 45.931c3.8 7.06 7.2 13.359 9.867 18.146 1.336 2.392 2.49 4.407 3.425 5.949l.34.556c.117.2.262.4.359.6a11.007 11.007 0 00.385 1.036 5.794 5.794 0 00.66 1.207 14.572 14.572 0 01-.235-1.442l-.039-.339q-.454-1.114-.875-2.121a263.51 263.51 0 00-3.218-7.335c-1.779-3.9-2.885-6.181-4.131-8.836s-2.647-5.681-5.012-11.074-5.7-13.162-10.622-25.381l.362.626c-9.71-23.174-13.826-36.153-19.013-47.346l2.931 8.128c-5.561-14.557-8.407-22.558-11.257-30.629S62.986 388.72 57.897 373.7c-.547-1.517-1.792-5.1-2.989-9.077a151.43 151.43 0 00-1.692-3.9l.528-.185-.081-.307 3.128-1.094.13.29.53-.185c.384 1.3 1.005 3.421 1.966 6.39.356.977.636 1.807.833 2.422.73.559 6.451 18.022 13.883 36.5 3.7 9.245 7.842 18.724 11.663 26.568a541.089 541.089 0 008.8 17.293c-5.935-11.028-7.4-13.978-7.22-13.259.2.708 2.2 5.012 3.721 8.234 7.292 12.58 12.381 21.3 21.928 38.684-.274-.6-.549-1.2-.817-1.792-1.374-2.971-2.7-5.836-3.371-7.282-.721-1.872.246.111 1.212 2.056.98 1.972 1.962 3.9 1.193 1.748-5.934-12.337-10.6-23.223-15.465-35.69a641.421 641.421 0 01-7.519-20.315c-2.567-7.438-5.4-15.64-8.632-25.008 4.27 11.834.99 1.518-.121-2.876-1-1.288-5.023-14.238-8.174-25.079s-5.542-19.545-4.061-12.128c-2.47-8.924-5.7-18.355-7.465-28.779l4.107-1.291c3.752 8.013 5.8 16.685 8.614 24.989 2.864 8.4 5.961 16.869 9.191 25.286 6.465 16.835 13.4 33.528 19.905 49.261a1381.023 1381.023 0 0011.28 26.436l1.021 1.424c-7.27-17.465-9.735-24.416-12.54-32.116-2.745-7.719-5.814-16.234-12.64-37.407 2.923 8.741 3.938 11.234 3.539 9.328s-2.152-8.242-4.552-17.197l-4.686-14.531-4.545-14.576-.849-5.911c-1.764-6.017-3.5-12.406-5.2-18.995-1.367-5.3-2.695-10.738-3.888-16.239l-.354-1.1-.352-1.086a5.13 5.13 0 01-.175-.62l-.1-.464a18.58 18.58 0 00-.166-.65c.08.26.151.492.213.7l.1.331a2.154 2.154 0 00.131.41 4.717 4.717 0 00.229.465c.023.041.047.079.068.115q-.184-.876-.364-1.754a90.488 90.488 0 01-1.024-4.055l3.136-1.006a19.973 19.973 0 011.3 3.3c.091.308.175.621.252.942q.1.445.2.9.265.852.547 1.751l2.522 8.194c.897 2.914 1.777 5.984 2.78 9.077s2.028 6.219 3.027 9.283c4.035 12.241 8.1 23.295 9.523 26.561a214.953 214.953 0 008.555 22.975c3.362 7.96 6.768 15.389 8.454 20.086 2.006 3.988 4.584 9.135 7.541 14.664-1.3-3-2.081-5.095-1.9-5.058s1.308 2.217 4.039 7.668c.5.925.882 1.64 1.36 2.528l-1.756-4.428c-.181-.948 1.5 2.5 4.27 7.815l4.807 9.208q.331.63.661 1.269a10.275 10.275 0 01.477.958l.266.838a13.016 13.016 0 00.727 1.766 80.04 80.04 0 00-1.022-4.477c-.438-1.6-.919-3.158-1.237-4.208.241.728.513 1.577.8 2.53-1.966-7.234-4.873-14.543-8.875-24.765-7.174-20.659-16.853-43.051-25.5-66.553-4.269-11.741-8.492-23.63-12.432-35.541a678.013 678.013 0 01-5.65-17.841 529.05 529.05 0 01-2.593-8.883l-2.489-8.758c1.029 3.479 2.268 7.678 3.35 11.335 1.112 3.663 2.119 6.766 2.629 8.051-1.845-5.775-3.533-11.634-5.279-17.309a107.743 107.743 0 01-4.3-17.6l4.748-1.2q1.648 4.907 3.26 9.7.8 2.4 1.595 4.757l1.479 4.676c1.95 6.181 3.848 12.143 5.708 17.8 3.714 11.323 7.316 21.419 10.67 29.7l-.154-1.888c5.384 13.783 10.435 25.874 15.475 37.172l1.89 4.2c.628 1.413 1.318 2.8 1.893 4.251q1.724 4.074 3.722 7.943.536 1.035 1.093 2.06a169.93 169.93 0 00-4.973-15.155 365440 365440 0 00-12.753-36.156c-4.287-12.083-8.362-23.828-11.58-33.891s-5.629-18.4-6.888-23.6c-1.22-3.328-3.815-11.875-6.624-22.135a851.575 851.575 0 01-4.269-16.21c-.353-1.378-.7-2.756-1.056-4.121l-.524-2.044-.176-.7-.338-.707a16.406 16.406 0 01-1.323-9.8l2.146-11.419 4.144 10.781c1.558 4.052 2.959 7.7 4.159 10.816l1.309 4.884c4.339 12.15 7.72 21.982 10.859 30.514s5.926 15.8 8.868 22.845c-.854-2.236-1.688-4.387-2.489-6.6 2.531 6.043 5.126 12.144 7.746 18.126s5.187 11.819 7.668 17.211c-5.109-10.754-9.154-19.767-12.925-28.735 2.279 5.961 4.756 11.8 7.285 17.57s5.148 11.413 7.89 16.936q2.055 4.143 4.215 8.182c.72 1.351 1.507 2.756 2.167 4.124q1.01 1.983 2.13 3.9a76.3 76.3 0 004.883 7.334l-.149-.539a49.781 49.781 0 01-6.244-9.776c-.62-1.221-1.288-2.7-2.074-4.159q-1.1-2.173-2.3-4.557a404.522 404.522 0 01-4.882-10.278 422.688 422.688 0 006.758 13.525c.619 1.225 1.36 2.482 1.984 3.833a80.955 80.955 0 001.984 3.81 77.868 77.868 0 004.748 7.52c-.837-2.957-1.856-5.887-2.938-8.784-2.1-5.6-4.5-11.109-6.671-16.78-4.062-11.3-7.917-22.394-11.724-33.364l-.015-.447-7.762-21.848-1.449-4.077-1.309-3.973-2.314-7.048-2.257-6.874c4.1 11.426-3.056-8.6-7.2-21.9l-6.278-19.076a229.661 229.661 0 01-6.448-22.225L75.515 165c1.909 4.387 3.359 8.632 4.671 12.468l1.572 4.321 3.548 9.495 5.162 13.809c-11.786-30.569.194 2.4.352 4.34l7.006 17.487c1.081 3.208.277 1.334-.525-.578-1-2.38-1.994-4.819.655 2.429 2.282 5.875 6.934 17.454 11.731 28.812a507.686 507.686 0 007.138 16.093c1.156 2.479 2.109 4.76 3 6.686q.265.575.518 1.11-.273-1.169-.562-2.307c-.579-1.481-1.227-3.165-2-5.016-.687-1.468-.636-1.362-.192-.46l-.5-1.188c.243.565.345.8.63 1.458l1.57 3.326-.149-.561c-.245-.589-.5-1.194-.755-1.822l-1.9-4.344c.46 1.006.87 1.9 1.232 2.7l.967 2.177c.1.243.2.472.288.686-1.121-4.1-2.326-7.933-3.469-11.687-2.39-7.888-4.592-15.222-6.8-23.458 1.948 7.575-2.227-5.729-6.717-20.06-5.045-15.777-10.035-32.966-8.094-24.552-4.885-19.288-3.852-13.043-6.808-25.441a1424.209 1424.209 0 005.964 20c2.043 6.583 3.985 13.109 6.112 19.388 4.2 12.577 8.18 24.507 11.741 35.178l-6.134-21.24c2.607 6.733 6.236 18.594 9.741 30.328 1.748 5.866 3.483 11.7 5.017 16.847a283.915 283.915 0 013.009 11c-1.084-4.248-2.8-10.118-4.394-15.253-1.624-5.289-2.936-9.828-3.195-10.964l1.031 5.62c2.4 7.819 4.755 15.164 6.364 22.224a44.03 44.03 0 001.116 2.119c-.126-.516-.268-1.1-.426-1.739.161.645.308 1.238.443 1.768.337.595.655 1.119.957 1.577q-.15-.834-.314-1.661c.125.591.241 1.165.347 1.711.253.383.493.719.722 1.014a11.051 11.051 0 002.221 2.4c.224.151 0-.1-.285-.435a7.15 7.15 0 01-.686-.979c.257.323.531.6.782.9.266.261.526.511.765.745l-1.611.857a17.194 17.194 0 01-1.339-1.357c.189 1.089.293 1.7.318 1.518l.038.363.984-.524q.261.236.531.459l-1.162.618q.188.168.382.331l-.2.106q-.193-.165-.379-.334l-.083.044.054.506-.2.106-.049-.509-1.176.625a59.734 59.734 0 00-.076-.7l1.029-.548q-.674-.664-1.278-1.4.139.975.249 1.943l-1.621.862a71.133 71.133 0 00-.617-5.6 44.28 44.28 0 01-2.179-4.037c-1.625-3.386-2.916-6.931-4.449-10.4a58.935 58.935 0 012.665 6.015 72.113 72.113 0 003.1 6.573c.25.458.516.922.795 1.383q-.269-1.717-.6-3.368-.383-.736-.744-1.476c-1.681-3.454-3.089-7.072-4.727-10.48a677.65 677.65 0 01-8.735-19.6c3.919 9.8 1.352 3.937-1.465-2.615s-5.838-13.808-3.256-6.576l3.149 7.745c1.608 3.852 3.218 7.7 3.218 7.7 2.724 7.166-3.767-7.67-7.372-16.334-7.763-20.41-17.695-48.064-27.822-74.393 2.15 8.521 5.038 16.677 7.55 24.488l7.673 24.065c4.651 14.592 8.123 25.862 9.689 31.041-3.188-10.309-9.336-29.134-12.43-38.051l7.269 23.668c-3.081-9.571-5.68-18.185-8.669-27.931-1.5-4.869-3.068-10.036-4.9-15.717s-3.974-11.888-5.988-19.04c.442 2.475-.927-1.44-1.664-3.275-.37-.915-.618-1.3-.481-.049a75.826 75.826 0 002.165 9.611c8.437 27.18 12.2 38.19 16.583 50.576l7.6 21.761c3.274 8.99 7.358 20.486 12.932 36.664.736 1.959.392 1.174.042.483-.709-1.4-1.435-2.412 6.788 20.588 2.462 6.286 5.08 12.146 7.169 17.767a91.669 91.669 0 013.813 12.475 1.851 1.851 0 00.623.511 2.493 2.493 0 001.058.236l-1.259 1.368.026.148a2.355 2.355 0 01-.127-.039l-1.043 1.134a5.942 5.942 0 002.28.524l.633.026-.085-.622a79.066 79.066 0 00-3-12.81c-1.061-3.416-1.911-5.9-2.207-7.1 2.182 5.534 4.734 12.463 5.789 19.835l.185 1.283-1.34-.027a6.014 6.014 0 01-3.515-1.177 6.634 6.634 0 01-2.049-2.867 1.143 1.143 0 00-.29-.467l-.434-.537-.928-1.191a86.853 86.853 0 01-1.763-2.386 84.41 84.41 0 01-5.646-9.138 79.419 79.419 0 00-2.066-3.749l-1.695-2.994a33.69 33.69 0 00-1.8-3.008c-4.106-9.156-.062-.952 3.936 6.365.5.9 1 1.79 1.419 2.66.45.878.891 1.713 1.305 2.453.825 1.482 1.521 2.622 1.885 3.166s.38.5-.1-.4-1.458-2.664-2.852-5.65c-6.41-11.888-9.091-17.1-11.915-22.741 2.078 4.016.9 1.2-.94-3.1s-4.28-10.113-4.987-12.011c-6.391-14.834-10.889-27.7-15.233-40.064-4.257-12.173-8.231-23.937-13.225-36.859a12.883 12.883 0 001.015 6.789 8.769 8.769 0 01.75 1.854q.251.968.5 1.948.508 1.957 1.027 3.969a884.228 884.228 0 004.531 17.008c-.352-1.563-.473-2.061.233.835l-.233-.835c.55 2.44 1.713 7.475 1.144 6.229 3.258 11.024 7.714 24.241 11.193 33.611s5.863 14.939 4.73 10.8c8.7 25.464 8.981 26.895 16.727 48.494-11.4-34.812 2.3 6.8 4.249 10.268.473 1.372.9 2.6 1.278 3.707.416 1.1.782 2.077 1.107 2.941a130.073 130.073 0 011.4 4.05 15.638 15.638 0 01.767 2.83.361.361 0 01-.031.169c-.067.156-.132.281 1.06 4.522.6 1.871 1.568 5.067 2.359 7.889l.284 1.017a1.459 1.459 0 00.258.581l.09.135.129.222.255.455c.149.309.305.59.418.872a22.239 22.239 0 01.762 2.151 10.874 10.874 0 00-.679-2.614c-.1-.229-.189-.475-.306-.711l-.31-.635a1.041 1.041 0 01-.158-.389l-.122-.594c-.462-2.147-1.1-4.828-2.037-8.235.743 2.6 1.292 4.755 1.715 6.52l.509 2.224a1.314 1.314 0 00.2.5c.122.249.3.6.418.869a8.412 8.412 0 01.806 3.005c0 .107-.025.127-.041.06a7.188 7.188 0 01-.319 3.636c-.16.283-.1-.215-.1-1.215a10.6 10.6 0 00-.841-4.06 13.256 13.256 0 00-.558-1.146c-.11-.185-.221-.373-.33-.562l-.28-.406c-.2-.494-.458-1.462-.71-2.218a78.137 78.137 0 00-2.685-7.536c-.592-1.25-.586-.693.38 3.422.365 1.56.874 3.731 1.465 6.546.025.4.328.711.466 1.05.157.315.3.643.435.978a8.7 8.7 0 01.533 2.156 6.813 6.813 0 01.042.707q.71.841 1.487 1.633l.526.175-2.313.375a8.623 8.623 0 01-.289.839q-.311-.34-.616-.692l-2.247.364c-.039-.207-.058-.4-.112-.6a4.467 4.467 0 00.382-2.3 29.869 29.869 0 01-1.188-1.836 30.615 30.615 0 01-1.757-3.386q-.2-.437-.378-.885a3.86 3.86 0 00-.248-.534l-.245-.445-.929-1.741a114.42 114.42 0 01-4.854-10.558 75.27 75.27 0 00-1.423-3.428c-3.788-8.816-6.552-15.8-7.043-17.021-1.885-3.844-3.229-5.628-3.872-5.465 1.873 5.35 4.342 12.121 6.89 18.873 5.612 14.613 11.227 29.224 11.255 29.3-2.92-7.4-11.873-29.885-8.761-20.887 9.816 25.116 5 13.052 11.2 29.984-5.9-14.34-14.834-34.326-22.522-53.392-7.603-19.097-14.443-37.077-18.01-46.547 0 0 2.586 7.693 5.275 15.349l5.437 15.284 2.291 7.789c7.165 19.933 15.431 38.3 22.025 53.127 6.623 14.828 11.661 26.109 13.937 31.2 4.189 11.5 4.531 15.662 4.228 15.907-.342.278-1.652-3.091-2.672-5.8a97.56 97.56 0 013.338 13.537c.367.188.736.35 1.077.485l-.027.02a12.74 12.74 0 01-1.048-.491l.058.358c.251.114.507.217.765.309l-.64.5a.1.1 0 000 .017l.655-.512-.018-.006.225-.176.017.007-.224.175.144.05-.778.608q.135.926.241 1.826l.063.535-.521-.176a13.376 13.376 0 01-1.683-.7l-.819.641-.017-.149.71-.556-.014-.008-.7.547v.017l-.221.172v-.018l.22-.171a61.829 61.829 0 00-.122-1.006l-.215-.134q.065.648.118 1.311l-.028.022q-.063-.688-.139-1.365a12.085 12.085 0 01-1.987-1.591 13.97 13.97 0 01-2.929-4.331 16.967 16.967 0 01-.456-1.132 5.225 5.225 0 00-.511-.952q-.6-1-1.168-1.955l-2.228-3.693c-2.9-4.741-5.468-8.957-8.028-13.53a311.176 311.176 0 01-18.37-38.941s1.625 4.232 3.324 8.44 3.46 8.392 3.46 8.392c-1.922-4.161-5.6-12.822-9.014-21.519l6.385 21.812c-5.649-17.534-6.863-19.804-7.202-18.425a11.188 11.188 0 00-.089 2.06c.016 1.665.036 3.229-.918 1.042l4.088 11.74c2.488 7.03 5.869 16.378 9.5 25.624 7.193 18.518 15.31 36.617 15.31 36.617-1.178-2.42-4.446-7.883-4.405-7.424.849 1.482 3.576 8.075 7.644 17.683 2.048 4.811 4.372 10.358 7.1 16.366a181.028 181.028 0 017.978 19.892l-3.4 1.42c-6.974-12.653-13.8-26.609-19.849-39.952s-11.369-26.048-15.545-36.172l2.588 6.178c3.78 8.186-10.735-27.263-16.815-41.724 1.172 2.389 2.454 5.773 5 11.987-3.622-9.591-6.583-16.779-9.3-23.262 1.677 5.008 4.4 13.064 7.228 21.088a1682.61 1682.61 0 006.387 17.887l3 8.066c-.757-1.905-1.516-3.663-1.413-3.046s1.037 3.623 3.87 11.178a1076.855 1076.855 0 01-7.817-21.433c-2.488-7-4.878-13.749-7.059-20.09-2.159-6.268-4.115-12.134-5.784-17.418-.672-1.6-1.335-3.171-2-4.748-1.46-3.5-2.9-7.025-4.371-10.884 4.19 13.521 8.2 25.5 12.013 36.4 4.008 11.391 7.716 21.641 11.429 31.115 7.488 18.935 14.9 34.921 22.911 51.943.653 1.5 1.265 2.976 1.979 4.449q1.053 2.261 2.047 4.55t1.922 4.6l.917 2.32.707 1.847a6.227 6.227 0 011.53 2.373 3.873 3.873 0 01-.081 2.672 4.4 4.4 0 01-1.415 1.807l-1.908 1.5-1.386-1.957a271.023 271.023 0 01-14.973-24.563l-1.4-1.765-3.823-8.372c-3.432-5.642-5.61-9.256-6.2-10.495-.514-1.1.382.315 1.756 2.533-2.731-4.845-5.214-9.247-6.5-11.535a16.934 16.934 0 001.207 2.915c-2.781-5.421-2.634-5.429-1.207-2.915-.579-2.043 4.212 5.985 9.5 14.432l-2.085-4.055c2.72 4.667 5.365 9.08 7.714 12.955-1.7-2.687-3.6-5.7-5.629-8.9 2.178 4.206 4.477 8.514 6.786 12.845 2.741 4.38 5.168 8.125 6.029 9.191s.109-.5-3.357-6.816l-3.83-6.32c3.559 5.575 5.8 8.968 3.487 4.685l-3.186-5.435c-1.912-3.261-4.451-7.6-6.94-11.978-5-8.739-9.7-17.644-9.7-17.644a839.757 839.757 0 008.625 17.417c-6.4-10.9-12.836-22.8-16.331-29.523-.449-.854-.852-1.621-1.207-2.289.925 2.6 1.839 5.153 2.732 7.625.823 1.741 1.921 4.04 3.046 6.323a590.717 590.717 0 004.629 9.205c-3.315-6.38-5.765-11.395-7.591-15.294 5.513 15.306 10.194 27.6 11.886 30.649 4.985 11.909 6.249 14.291 6.995 15.617.769 1.318 1.052 1.566 4.409 9.052-.4-.68-1.18-2.018.706 2.36l4.2 8.792 4.276 8.741c1.272 3 .152.759-.968-1.479-1.587-3.172-3.174-6.333 2.042 5.433A254.37 254.37 0 01126.7 536.91l2.361 6.61-6.13-3.6a16.577 16.577 0 01-6.664-7.569 19.46 19.46 0 01-.849-2.263 1.274 1.274 0 00-.185-.454l-.495-.867-2.031-3.563c-2.676-4.715-5.269-9.287-7.861-13.857-5.169-9.151-10.31-18.331-15.88-28.806-10.991-20.526-8.471-15.043-5.945-9.682 2.347 4.983 4.7 9.859-3.785-6.35-1.989-4.971-3.768-9.371-12.785-28.331 1.575 4 3.1 7.766 4.546 11.35l5.639 13.975c1.723 4.37 3.3 8.47 4.765 12.367 0 0-2.637-5.894-5.181-11.846-2.552-5.936-5.107-11.869-5.107-11.869 2.55 6.4 4.828 11.945 6.838 16.8s3.844 8.974 5.423 12.59c3.176 7.221 5.518 12.323 7.471 16.583a277.691 277.691 0 0110.63 25.731c-7.484-17.357-16.9-38-12.835-27.608l11.273 24.946c.451 1.247-.546-.951-1.543-3.161-1.427-3.163-2.851-6.352-.026.481l6.605 14.257c2.5 5.336 4.966 10.588 6.475 13.805l-.191-.322.787 1.785.106.11.164.187a8.351 8.351 0 01.585.779 7.262 7.262 0 01.924 1.931 6.479 6.479 0 01-.289 4.466l-1.849 4.038-2.607-3.535c-7.81-10.6-15.1-21.564-21.95-32.781 3.917 6.4 4.767 7.279.239-.124 0 0-4.327-6.908-8.417-13.958a634.43 634.43 0 01-8.029-14.18c4.923 8.674.151-.356-6.37-13.418-5.215-10.486-8.693-17.449-11.335-22.667a948.74 948.74 0 004.971 13.842c4.243 11.484 8.575 22.992 12.085 31.7 3.525 8.724 6.187 14.751 6.886 15.434 4.116 11.124 4.189 11.547 1.708 5.681a2915.67 2915.67 0 01-13.238-32.083l4.295 11.853 4.419 11.822c-3.856-9.5-6.854-17.529-10.841-27.758 5.45 15.646 11.518 30.524 16.99 43.64 2.748 6.549 5.314 12.661 7.625 18.171.57 1.391 1.13 2.654 1.716 3.976l1.629 3.814a254.949 254.949 0 012.769 6.9c.248.769.456 1.4.625 1.922l.053.18.015.066.025.125.039.2a2.353 2.353 0 00.211.4c.12.214.239.438.206.468 0 .13-.2-.034-.308-.057s-.108.062.226.756a6.011 6.011 0 01.56 1.91 4.643 4.643 0 01-.148 1.8 5.12 5.12 0 01-.976 1.832l-2.449 2.975-1.744-3.275c-1.35-2.534-4.135-7.348-8.954-16.416-5.96-11.348-8.5-16.542-9.5-18.246-.975-1.714-.3.012.673 2.309.332.78.7 1.626 1.039 2.425l.058.119c3.5 7.3 6.916 14.422 10 21.266.376.178 2.082 3.595 5.257 9.366l2.976 5.409 3.945-4.9a6.743 6.743 0 001.241-2.351 6.314 6.314 0 00.077-3.14 7.38 7.38 0 00-1.028-2.366 5.59 5.59 0 00-.308-.439c-.081-.112-.266-.349-.22-.293l-.01-.019c.006-.026-.47-1.439-.808-2.415q-.6-1.693-1.258-3.526-.213-.579-.437-1.173l.185.483 1.382 3.691 1.038 2.859.015.013.175.222c.1.13.2.258.3.415a7.559 7.559 0 011.082 2.286 6.534 6.534 0 01.046 3.271 6.867 6.867 0 01-1.3 2.617l-4.031 5.08-3.262-5.614a353.872 353.872 0 01-3.891-6.844q.7 1.6 1.4 3.159l1.094 2.582a163.166 163.166 0 011.743 4.414c1.146 3.045 2.1 5.985 2.831 8.642.7 2.641 1.257 5.032 1.852 7.469a16.4 16.4 0 00-2 .655c.316-.168.46-.272.445-.307s-.217 0-.472.1l-.215.085-.06.024h-.178l-.336-.007a5.782 5.782 0 01-1.092-.156 10.026 10.026 0 01-1.8-.661 15.415 15.415 0 01-2.114-1.246 17.558 17.558 0 01-3.311-2.951 48.878 48.878 0 01-4.46-6.179c-1.294-2.076-2.312-3.84-2.85-4.91-4.233-6.691-8.18-13.523-12.04-20.364-3.858-6.869-7.707-13.726-11.5-20.644 10.26 18.56 10.28 17.454 12.541 20.65-7.23-13.087-10.813-19.163-15.63-28.131 3.056 5.416 6.177 10.863 2.638 3.786 0 0-6.085-10.991-11.993-22.073l-4.586-8.651a754.569 754.569 0 006.881 17.179c3.488 8.442 7.215 16.855 13.141 29.614l-2.748-4.621 10.617 23.568-9.18-18.858c9.177 21.32 10.792 24.412 12.158 26.85.681 1.222 1.308 2.268 2.766 5.395a337.99 337.99 0 012.938 6.5c.626 1.435 1.341 3.065 2.155 4.926.1.229.2.461.3.7a.972.972 0 00.14.251 10.378 10.378 0 011.031 1.854 9.518 9.518 0 01.707 4.832l-.84 7.308-3.9-6.2a320.813 320.813 0 01-4.944-8.111l.413-.42c-5.537-9.113-9.155-15.288-12.4-20.99-3.224-5.709-6-10.979-9.423-18.484-4.079-7.723-1.966-3.188.148 1.318 2.677 5.707 5.357 11.366-4.541-8 2.308 5.258 4.808 10.471 7.282 15.763a739.588 739.588 0 008.507 17.434l-8.019-15.144c4.055 8.545 8.872 18.044 11.161 22.643l-1.426-1.69c3.3 6.421 6.4 12.689 9.319 18.742l1.086 2.26q.574 1.106 1.136 2.2 1.134 2.242 2.163 4.472t1.961 4.444l.909 2.2.729 1.838.09.112.139.189a7.949 7.949 0 01.461.728 6.9 6.9 0 01.678 1.694 6.576 6.576 0 01-.15 3.631l-1.457 4.359-2.715-3.652c-8.088-10.885-14.2-21.035-19.624-29.082 3.875 5.581.688.364-3.958-7.814s-10.6-19.386-13.352-25.232c5.027 9.232 11.531 21.766 18.324 33.414 3.391 5.825 6.855 11.425 10.124 16.318s6.332 9.081 8.744 12.2l2.417 3.127 1.189-3.737a6.189 6.189 0 00-.023-3.8 6.38 6.38 0 00-.7-1.446 6.839 6.839 0 00-.4-.561c-.068-.083-.13-.145-.194-.213-.068-.118-.119-.241-.176-.355-.089-.2-.177-.386-.256-.565q-.258-.533-.455-.947a7.936 7.936 0 00-.631-1.1l1.216 3.144c.1.123.127.158.274.361a7.683 7.683 0 01.41.652 6.113 6.113 0 01.595 1.491 5.319 5.319 0 01.146.863l.251.346-.232.04a5.969 5.969 0 01-.3 1.938l-.944 2.86-1.787-2.4a225.02 225.02 0 01-15.279-22.791c2.225 3.591 5.1 7.912 7.7 11.628s4.958 6.8 5.995 8.041c-5.976-8.43-10.85-16.247-15.139-23.456s-8-13.819-11.414-20.011-6.526-11.969-9.526-17.571-5.866-11.049-8.651-16.646l3.065 6.167c1.854 3.7 4.377 8.607 6.906 13.5 5.028 9.8 10.308 19.5 10.308 19.5-2.569-2.686-9.41-17.5-15.615-28.216-4.743-9.984-9.039-18.844-12.985-27.314a534.462 534.462 0 01-5.26-11.627 431.94 431.94 0 002.682 9.006c2.635 8.491 4.873 15.092 7.732 22.518 1.666 4.383 3.757 9.709 6.022 15s4.657 10.561 6.715 14.9c4.125 8.672 6.789 13.666 4.224 7.775 3.407 6.877-3.581-7.439-9.15-20.705-2.807-6.628-5.225-12.985-6.308-16.133s-.837-3.021 1.935 3.253a290.211 290.211 0 0013.872 33.253c2.927 6.138 6.195 12.731 9.83 20.046 1.786 3.594 3.866 7.35 5.9 11.45a71.906 71.906 0 015.447 13.685l-4.121 1.966c-5.66-7.532-10.644-16.385-16.2-26.049 7.065 11.38 5.027 7.567 2.988 3.778-1.949-3.622-3.9-7.219 2.1 2.5-7.384-12.184-11.008-18.649-13.734-23.326l-4.88-8.411c.231.543.459 1.079.684 1.6l-.749-1.716-.022-.037c5.256 13.151 9.263 22.271 12.385 29.434 3.161 7.174 5.5 12.332 7.813 17.322s4.6 9.806 7.992 16.183l5.806 11.038c1.124 2.116 2.33 4.392 3.638 6.854l.5.931a3.755 3.755 0 00.465.742c.445.636.871 1.305 1.274 2.006a25.826 25.826 0 012.074 4.592 26.52 26.52 0 00-.889-2.642 27.111 27.111 0 00-1.174-2.543 25.956 25.956 0 012.565 5.7l-3.869 1.879c-11.219-15.5-22.253-32.721-33.21-50.626q-2.4-3.911-4.8-7.879c4.964 12.516 10.193 24.535 15.837 35.841 0 0-2.67-5.56-5.172-11.183-1.39-3.1-2.725-6.219-3.643-8.4 2.123 4.926 6.163 13.751 11.083 23.454 6.089 12.145 13.5 25.7 18.417 35.505-2.066-3.854-5.729-10.516-7.62-14.135a47.307 47.307 0 002.823 6.347c1.913 3.893 4.689 9.618 8.748 16.971l1.795 2.7 1.827 2.668s.33.632.787 1.479a48.1 48.1 0 014.486 7.42c.346.5.633.909.848 1.212l-.265.139q.093.231.183.466l-3.1 1.621c-.1-.138-.189-.275-.283-.413l-.263.138a21.802 21.802 0 00-.634-1.459q-.68-1.015-1.343-2.037c.119.266.258.574.367.846.276.664.412 1.109-.108.207a89.476 89.476 0 00-5.295-7.861l-1.476-2.436-1.958-3.314a657.366 657.366 0 00-5.415-8.863c-4.25-6.765-9.53-15.174-15.224-24.243-4.756-7.687-9.8-15.845-14.777-23.881 9.145 20.693 17.114 37.284 25.073 52.606a936.427 936.427 0 0015.4 28.55l8.326 14.429 4.288 7.4.3.39.357.494c.23.335.455.676.671 1.026a20.232 20.232 0 011.17 2.186 20.1 20.1 0 011.5 4.8l.893 4.969-3.948-3.151a59.951 59.951 0 01-10.287-11.362c-1.619-2.182-3.219-4.387-4.958-6.663q-2.6-3.437-5.278-7.115l1.752 2.2c-7.242-10.081-12.54-18.014-16.94-24.479-3.965-5.9-7.243-10.5-10.31-14.617q.479.919.955 1.824c5.788 11.042 11.3 20.751 16.154 28.516-1.365-1.219 4.846 10.625 9.778 20.28s8.529 17.145 2.332 7.025c0 0 2.223 3.867 4.449 7.735s4.579 7.7 4.579 7.7a108.253 108.253 0 01-6.025-9.71zm-32.778-64.435c.374.494.838 1.12 1.3 1.747 1.723 2.335 3.445 4.684.592.284q-1.454-1.984-2.9-3.981.507.974 1.008 1.946zm30.2-21.682a.18.18 0 000 .022l.221-.107a.17.17 0 01-.006-.02zm2.588-1.258a.087.087 0 00.012.018l.22-.107-.011-.018zM20.55 665.379q.639 1.444 1.282 2.879c.247.315.394.446.264.1-.113-.369-.653-1.312-1.251-3.091zm51.732-36.266c-.029.08-.062.162-.1.245l.393-.067c.021-.08.039-.159.052-.237zm2.9-.491l.151.2.4-.067-.127-.207zm-64.441-11.515l.012.019.067-.033c0-.006-.008-.014-.012-.02zm3.455-1.76a.11.11 0 01.009.022l.067-.034c0-.007-.005-.014-.009-.021zM56.69 599.54a47.984 47.984 0 002.95 5.68q2.869 4.791 5.89 9.477c-.148-.3-.3-.6-.446-.9-.684-1.356-1.451-2.816-2.1-4.23l-.167-.355c-1.328-2.122-2.388-3.859-3.241-5.239-1.519-2.489-2.371-3.816-2.707-4.273-.092-.122-.148-.179-.171-.179-.006 0-.01.006-.01.018zm19.45-19.838l.14-.088.251-.163zm-49.582-29.606zm10.98-5.086c-3.031-7.109-2.922-7.31-2.39-6.534a3232.4 3232.4 0 00-7.557-15.887c2.457 5.895 5.639 13.153 9.945 22.421zm-8.063-17.648l-1.333-2.671c.488.988.937 1.891 1.331 2.668zM11.756 507.12a.079.079 0 000 .027c.1.277 1.069 2.852 3.929 9.646l-1.168-3.053-1.147-3.087c-.777-1.76-1.574-3.537-1.617-3.537l.001.004zm109.3-7.429a.159.159 0 01-.06.023q.6.86 1.183 1.655l.811 1.105 1.066-.844a3.411 3.411 0 001.153-1.562 2.689 2.689 0 00.1-1.328l-.149-.02a2.71 2.71 0 01-.208 1.552 3.363 3.363 0 01-1.01 1.213l-.931.736-.681-.962q-.583-.826-1.145-1.639zm3.955-1.868a4.921 4.921 0 00-.672-1.02l-.214-.243-.143-.144-.061-.062q.52.71 1.087 1.469zm-5.656-.522c-.131-.324-.266-.651-.4-.984-2.254-3.411-4.249-6.644-6.1-9.677 2.2 3.885 4.407 7.507 6.497 10.661zm4.11-1.563c.039.054.077.107.117.16-.121-.272-.231-.545-.4-.932.119.322.204.562.28.771zM16.153 467.911a.034.034 0 00.01.021l.044-.047c-.041.005-.055.014-.056.025zm61.088-.37c-1.781-5.066-7.8-18.355-10.659-25.076 4.554 11.594 6.817 17.641 10.656 25.076zm-60.693-.053c.059-.075.115-.151.17-.228l.053-.078c-.074.099-.148.203-.226.305zm.494-.686l.027-.027.008-.01-.038.037zm2.258-1.694l.013.038.821-.384-.018-.055zm41.63-37.109c2.108 5.4 3.87 9.905 5.388 13.793 5.846 13.64 4.1 8.446.636-.965-.734-2.012-1.541-4.22-2.358-6.481-2.041-3.964-3.255-6.209-4.54-8.618q.445 1.162.874 2.271zm66.975 10.5l.1.127q-.107-.528-.214-1.032l-.079-.128q.099.51.192 1.033zm-8.8-16.5l1.054 2.462c1.038 1.813 2.078 3.63 3.109 5.428l1.532 2.681.756 1.323a4.418 4.418 0 01.49 1.032l.136.383c.033.1.074.2.115.3a10.967 10.967 0 001.529 2.791l-.2-1.077a12.355 12.355 0 01-.878-1.872c-.039-.1-.077-.2-.11-.3l-.137-.4a5.069 5.069 0 00-.525-1.125q-.385-.691-.777-1.4l-7.1-12.676zm8.543 15.144c.024.047.049.092.074.137-.2-.889-.394-1.727-.591-2.522q.271 1.156.518 2.388zm-53.272-71.084c-.445-1.16-.92-2.4-1.414-3.716.074.661.112 1.182-.015 1.163 1.109 2.66 1.483 3.158 1.429 2.553zm10.582-7.914c1.208 4.145 1.529 4.437 1.36 2.869a832.11 832.11 0 01-1.97-5.4l.61 2.534zm12.145-19.886a12.816 12.816 0 00.261 2.669c2.2 5.274 3.527 7.946 3.46 7.124l-3.718-9.846zm9.183-32.153a397.945 397.945 0 004.391 8.542l2.578 4.779c.883 1.635 1.851 3.241 2.7 4.966a82.731 82.731 0 006.154 9.92q.849 1.173 1.728 2.3l.861 1.088c.324.312.331.669.585 1.152a5.51 5.51 0 001.953 2.3c.055.037.111.071.168.105q-.157-1.091-.363-2.178a3.965 3.965 0 01-.27-.4 5.46 5.46 0 01-.487-.993c-.1-.455-.516-.773-.745-1.1-.478-.6-.95-1.187-1.414-1.767a83.426 83.426 0 01-4.834-6.916c-1.427-2.228-2.551-4.417-3.7-6.405q-1.725-2.959-3.153-5.4c-3.659-6.367-5.736-10-6.128-10a.049.049 0 00-.024.011zm-33.062 2.606q-.123-.6-.285-1.354l.285 1.359zM68.2 303.56a1.348 1.348 0 00.254.3 26.667 26.667 0 01-.636-2.024c.152.699.279 1.268.383 1.728zm55.508-12.3a19.384 19.384 0 001.473 1.625q-.115-1.015-.26-2.037a22.451 22.451 0 01-1.628-2.125c.153.853.292 1.697.416 2.536zM75.556 186.869c.27.773-.6-1.7-2.913-9.618-.083-.242-.153-.451-.254-.751 1.592 5.511 2.927 9.584 3.168 10.372zM59.93 748.877l3.693 6.145 6.086 11.568zm6.68-51.117c-.459-.9-1.069-2.088-1.575-3.076.944 1.753 1.619 3.009 1.615 3.1v.005s-.02-.008-.042-.03zm-49.994-30.792a442.274 442.274 0 007.924 16.637c-4.325-8.523-6.576-13.613-7.926-16.638zm7.969 4.493l.974 1.747q-.493-.871-.977-1.749zm9.738-38.645c.023.057.487 1.187 1.213 2.91-.531-1.23-.942-2.215-1.216-2.911zm0 0zm7.3-3.4q.292.7.562 1.356a91.205 91.205 0 01-.566-1.358zm11.889-28c-.407-.719.32.506 3 4.821.347.636.746 1.3 1.076 1.874-2.092-3.33-3.674-5.974-4.08-6.695zm42.27-33.526l.008.014s-.008-.003-.011-.013zm.005.015zm-5.125-13.711c.965 2.3 1.835 4.506 2.622 6.6a323.036 323.036 0 00-2.622-6.6zm22.507-5.032c-.03-.017-.16-.206-.4-.5-.119-.141-.261-.321-.433-.5a2.54 2.54 0 00-.219-.194 1.641 1.641 0 01-.091-.153.813.813 0 01-.107-.2l-.5-1.044.488.832.178.306.053.031.076.083c.013.032.03.062.03.062l.1.107.16.189c.175.213.31.409.415.551a3.05 3.05 0 01.255.427zM85.93 521.304q.583.966 1.174 1.93-.549-.894-1.174-1.93zm-20.133-35.779l2.533 4.734 2.569 4.714c-1.169-2.089-2.74-4.952-5.102-9.448zm-7.231-12.991l-1.2-4 3.29 8.252zm21.775-15.242zm10.179-7.823zm40.091-2.748a16.039 16.039 0 01-4.211-2.234 17.021 17.021 0 01-2.017-1.76 19.385 19.385 0 01-1.817-2.064 12.572 12.572 0 01-1.049-1.725c-.21-.4-.421-.869-.651-1.43l-.24-.635-.3-.526c-1.355-2.356-3.412-6.011-6.651-11.948-1.749-4.081-1.457-3.869.435-.553.945 1.639 2.326 4.028 4.064 7.038l2.858 4.964.334.577a.7.7 0 01.081.174l.113.314a18.363 18.363 0 00.734 1.722 15.31 15.31 0 002.212 3.371c-.684-.779-.931-1.135-.931-1.1a6.364 6.364 0 00.769 1.118 13.6 13.6 0 002.408 2.353 15.536 15.536 0 003.94 2.13l3.679 1.355-.342-3.965c-.551-6.379-2.525-13.362-1.335-9.437a83.056 83.056 0 011.556 9.415l.472 4.329zm.193-.539a14.29 14.29 0 01-6.3-4.175 14.688 14.688 0 001.883 1.779 14.943 14.943 0 004.422 2.395l2.862-2.239c-.036-.07-.2-1.55-.5-3.3.231 1.15.35 2.3.506 3.291l.534 3.381zm-1.911-1.911zm-24.584-26.067c-2.386-5.445-4.692-10.932-4.692-10.932l-1.13-5.882-1.086-5.889a327.037 327.037 0 0011.761 33.558s-2.473-5.405-4.853-10.854zm-9.032 6.566zm-51.052-28.983c-.017-.027 0-.008.02.019-.02.027-.034.041-.039.041s-.001-.017.019-.058zm.02.019zm52.734-1.722c.136.4.215.637.365 1.083l.059.333zm25.072-8.33q.337.371.68.725l-1.101.18a8.755 8.755 0 00.42-.9zm-10.063-14.415c-.771-1.507-1.5-3.037-1.5-3.037s.893 1.183 1.815 2.334l1.866 2.273-.6 1.422s-.812-1.482-1.581-2.991zm16.955-30.98a4.125 4.125 0 001.166.155l-.968 1.052q-.091-.597-.198-1.207zm-2.141-11.155s-.5-1.574-1.354-3.906-2.06-5.414-3.31-8.485-2.516-6.141-3.417-8.466-1.453-3.893-1.453-3.893c-.569-1.958-.051-.612.939 1.954 1.006 2.563 2.568 6.3 3.816 9.225a103 103 0 015.043 14.066c0 .016 0 .025-.011.025a1.664 1.664 0 01-.253-.517zm-2.772-13.236c-1-2.35-2.445-5.731-3.639-8.684s-2.092-5.552-2.377-6.144c-7.835-23.088 1.024 1.961 2.116 4.412 2.97 7.777 4.58 11.568 5 12.824a3.665 3.665 0 01.159.481c-.03.002-.525-1.162-1.259-2.889zm-56.889-15.4s.116.317.275.908c-.086-.273-.175-.574-.276-.911zm58.375-6.5l.408-.216.066.055-.464.248zm-1.5-.476zm-5.112-26.258a158.314 158.314 0 015.214 18.795c-1.23-6.116-3.936-14.779-5.217-18.798zm3.632 15.106c.161.628.308 1.22.437 1.77q-.203-.831-.443-1.773zm-10.38-21.69c1.79 4.347 3.467 8.323 4.936 11.766-2.721-6.257-4.168-9.857-4.939-11.769zm-.8-2.11c.421.918 1.9 4.4 1.9 4.421-.011-.002-.491-1.115-1.901-4.425zm-2.471-5.945a707.547 707.547 0 002.471 5.945c-.218-.48.069.29.8 2.11-1.067-2.622-2.152-5.299-3.273-8.059zm16.034-1.832a43.9 43.9 0 011.641 9.367l-.071.021a45.59 45.59 0 00-1.571-9.392zm1.641 9.367l.878-.257a55.694 55.694 0 00-2.926-14.484q-.321-1.014-.655-2.012l-1.053-2.173c-.767-1.653-1.718-3.666-3.26-7.124 2.017 6.136 4.034 11.469 5.376 16.684-1.4-5.173-3.543-10.576-5.715-16.71q-.51-1.512-1.018-3.048a923.014 923.014 0 01-4.109-9.572c-2.705-7.306-.978-3.677 1.618 1.931q-.84-2.613-1.7-5.33a751.267 751.267 0 01-8.335-20.739c.026.063 3.7 9.293 7.735 18.845l-.529-1.675c1.507 4.5.735 1.635-.033-1.28s-1.528-5.852-.041-1.636a2358.63 2358.63 0 003.037 10.317c1.108 2.588 2.18 5.066 3.135 7.256-.256-.829-.476-1.554-.668-2.186a554.98 554.98 0 01-2.4-6c.324.65 1.121 2.561 2.078 4.911-1.563-5.275-.229-1.672.315-.344-2.484-7.906-4.8-15.271-6.983-22.223 1.794 5.257 3.635 10.78 6.429 20.117.573 1.8.77 2.468.766 2.55 0 .052-.09-.148-.212-.445.5 1.6.987 3.194 1.486 4.807.921 2.3 1.82 4.559 2.481 6.215q-1.122-2.688-2.188-5.272.215.69.438 1.385l2.116 4.821-.366-.934c2.751 6.61 5.477 13.589 9.241 20.182-3.558-6.026-6.471-13-9.922-20.835 0 .015.01.03.014.046l3.011 7.287a10.173 10.173 0 01.711 1.911c-.123-.093-1.1-2.146-2.005-4.116q.3.884.58 1.769c1.064 2.443 2.536 5.878 4.851 10.375-1.855-3.5-2.918-5.763-3.767-7.484-.171-.351-.329-.681-.482-1a57.206 57.206 0 012.984 15.205l5.021-1.471c-.34-.57-.681-1.121-1-1.691.334.585.688 1.147 1.017 1.685l.877-.256.012.016-.879.258.126.208-.023.006-.123-.208-5.031 1.473q0 .121.005.243l-.024.007c0-.081 0-.161-.007-.243l-.877.257a.146.146 0 00-.008-.023zm-4.93-22.697a3.761 3.761 0 00.16.422c.158.376.433 1.027.856 2.023q-.232-.653-.464-1.3c-.319-.688-.536-1.144-.552-1.144v-.001zm1.126.547c.8 1.964.593 1.38-.09-.375l.024.036-.082-.19.058.154c-.041-.029-.2-.336-.278-.46.099.214.314.702.373.835zm-1.753-3.785l.317.949.109.257a19.267 19.267 0 00.959 1.743c-.426-.946-1.027-2.3-1.6-3.593zm.372 1.112l.05.1-.08-.182c.015.025.024.054.034.082zm-4.045-8.411a358.827 358.827 0 002.837 6.007c-.123-.356-.247-.713-.367-1.069a36.743 36.743 0 00-.2-.631 1035.7 1035.7 0 01-3.259-7.6l.989 3.293zm1.809 2.98c0 .018.077.22.257.658-.041-.131-.08-.26-.121-.386a2.039 2.039 0 00-.135-.273zm8.329 30.248l5.149-1.508v.007l-5.153 1.508zm-.91 0zm2.739-9.077a98.595 98.595 0 004.157 7.057l-.072.022a83.23 83.23 0 01-4.085-7.078zm-18.58-11.983l-2.034-6.9 7.13 23.289zm-5.033-4.31c1.007 3.04.247.1.233-.325 1.5 5.089 2.5 8.706 5.677 18.724zm.385 10.906l2.813 6.929a1026.47 1026.47 0 01-2.812-6.93zm-10-6.5c-1.05-3.913-1.071-4.414-3.144-11.286l4.088 11.828zm6.245-3.137c-1.3-3.867-1.014-1.1-3.437-7.891-8.366-21.809-4.454-12.459-.561-2.721 2.19 5.478 4.374 11.079 4.363 11.324v.008a3.933 3.933 0 01-.367-.723zm2.638-3.554l.735 2.29c-.184-.554-.424-1.3-.737-2.293zm3.667-42.106c.958 2.4-.054-1.963 5.974 17.828l-.023-.974 5.066 17.825zm-8.989 15.52l-1.012-5.395.608 2.1a218.14 218.14 0 001.373 4.605l2.038 6.687zm-5.413-13.84c-1.578-5.284-2.309-8.126-1.346-6.072l-.77-2.58 5.919 19.473c1.589 5.291 2.7 8.961 2.718 9.858-2.564-7.655-4.93-15.397-6.517-20.679zm32.778 16.7l2.125-.318.1.056-2.3.345zm.72-1.237l-.11-.083s-.208-.164-.51-.445a3.386 3.386 0 01-.334.624 3.942 3.942 0 00.306-.649 10.451 10.451 0 01-1.428-1.626 11.835 11.835 0 01-1.362-2.576 10.856 10.856 0 002.821 4.116 3.193 3.193 0 00.145-1.159 3.985 3.985 0 00-.134-.85c-.03-.139-.078-.279-.12-.414-.1-.291-.2-.572-.3-.841-.051-.316-.048-.635-.071-.932l-.031-.577a356.66 356.66 0 00-.054-.9c-.031-.554-.055-1.026-.078-1.444l.148 1.486.063.721.066 1a2.838 2.838 0 00.086.712l.247.683c.062.2.122.4.165.589a3.362 3.362 0 01-.07 1.87l-.032.087q.3.274.627.524a3.866 3.866 0 00.324-1.19 4.378 4.378 0 00-.085-1.4 8.232 8.232 0 00-.212-.752l-.256-.7-.049-.743a62.58 62.58 0 00-1.055-7.915 63.467 63.467 0 00-2.021-7.648 72.346 72.346 0 00-.661-1.9c-.189-.589-.222-.79-.328-1.149l-.267-.983-1.091-3.929 1.1 3.926.27.982c.107.358.139.561.329 1.148.248.679.453 1.257.666 1.9a63.631 63.631 0 012.044 7.647 62.147 62.147 0 011.078 7.918l.05.734.254.688a7.557 7.557 0 01.218.761 4.452 4.452 0 01.091 1.422 3.943 3.943 0 01-.334 1.233 11.331 11.331 0 001.442.931l-.147.022a12.245 12.245 0 01-1.336-.866 5.256 5.256 0 01-.789 1.183l-.139.021a5.263 5.263 0 00.868-1.252zm-25.751-12.036c-4.865-13.11-1.394-4.313 3.615 8.247l.075.9c-1.224-2.874-2.472-6.208-3.686-9.142zm5.208-4.451c.134.542.224.927.222.968 0 .057-.185-.558-.677-2.354.165.5.3.922.455 1.387a129.12 129.12 0 00-.84-3.178l4.96 15.426c-1.274-3.746-2.562-7.476-4.116-12.245zm18.5 9.863c-.065-.018-.165-.951-.479-3.02a66.059 66.059 0 00-2.244-9.718c.464 1.425.5 1.534.339.822-.09-.353-.237-.911-.444-1.6l-.35-1.13-.251-.769-.222-.893-2.687-10.9a509.027 509.027 0 003.09 10.933l.127.468a3.229 3.229 0 00.113.377l.1.278.275.77a67.14 67.14 0 01.9 2.791c.487 1.645.754 2.758.754 2.758a56.912 56.912 0 01.911 6.4c.092 1.168.115 1.963.1 2.281 0 .1-.013.154-.025.154zm.347-4.265a62.8 62.8 0 00-1.514-6.787 69.452 69.452 0 00-1.112-3.545q-.151-.425-.3-.835c-.049-.148-.091-.243-.121-.371l-.079-.3-.111-.414-.414-1.537c-.523-1.9-.869-3.172-.869-3.172l.856 3.009.378 1.339c.141.464.179.715.438 1.473a59.81 59.81 0 011.224 3.55c.55 1.791.667 2.368.351 1.594a31.419 31.419 0 011.485 5.854c.158 1.192.147 1.938.221 3.272.008.012-.122-1.253-.431-3.125zm-23.719-7.868l1.184 2.906-2.488-6.6a946.027 946.027 0 01-5.26-14.621c-3.746-10.666-7.313-21.414-7.313-21.414.5.94 1.62 3.926 6.841 18.288 4.218 13.138 6.664 20.207 10.391 29.985zm3.364-2.974a7.534 7.534 0 01.672 2.07l-.672-2.069zm-18.623-19.244l4.038 13.481c-2.459-7.997-4.806-15.115-4.038-13.48zm2.225-6.192c-4.165-13.146-8.952-27.521-12.3-36.8l-.059.014a60.276 60.276 0 002.617 10.273c1.031 4.365.438 2.506-.151.6a18.658 18.658 0 00-.707-2.152s.383 1.579 1.025 3.929 1.547 5.469 2.489 8.579 1.886 6.218 2.595 8.55l1.207 3.877c.509 3.206-2.9-7.115-5.893-16.832-3.062-9.7-4.721-19.134-3.92-12.978a97.882 97.882 0 01-.574-3.63l2.632-.649c2.993 9.611 2.111 8.116 10.841 33.345 3.253 8.858 1.563 3.38-1.177-5.264s-6.511-20.473-7.643-24.227c7.365 21.141 7.543 21.069 7.952 21.646l-.519-1.839.745 2.234c-.089-.175-.149-.262-.226-.4 2.609 9.125 4.752 17.149 5.308 20.352a6.5 6.5 0 01.138 1.235c-.008.16-.041.243-.1.243-.362.006-1.681-2.922-4.28-10.105zm3.812-11.942l3.8 11.492 2.871 9zm19.367-1.024c-1.387-4.944-2.124-7.852-2.237-8.528-.231-1.357 2.052 6.233 7.309 23.9-5.718-18.495-1.872-5.045.933 5.374-2.561-8.832-4.627-15.8-6.005-20.745zm21.316 14.22c.158.738.243 1.168.243 1.168l-.244-1.167zm-.478-2.135c-.458-1.979-1.134-4.617-1.82-7.275l-2.738-10.62.8 2.513 2.336 9.366c.586 2.338 1.152 4.662 1.537 6.409.141.68.265 1.272.364 1.741-.121-.554-.282-1.284-.48-2.133zm-52.014-5.482l-1.872-5.936.939 1.546 2.855 10.337-1.922-5.946zm45.061-.57c-1.319-2.451-2.587-4.932-2.587-4.932l-1.423-3.81c-2.313-5.709-4.806-12.182-7.155-18.929s-4.582-13.769-6.611-20.483c-1-3.364-1.966-6.641-2.891-9.763-.914-3.146-1.78-6.084-2.468-8.85-1.388-5.544-2.6-10.253-3.626-13.493 1.9 5.129 3.287 11.485 5.207 18.242 1.979 6.838 4.147 14.34 6.57 22.036s5.124 15.575 8.121 23.187 6.251 14.961 9.544 21.667c.002.001-1.366-2.419-2.681-4.872zm-22.336 1.541c.308.818.648 1.731 1.029 2.746-.325-.852-.67-1.776-1.027-2.746zm-2.808-6.867c-.1.176.17 1.526-1.373-2.685-3.588-12.084-3.276-11.958-1.7-7.293 1.351 3.98 3.806 11.2 5.882 16.844-2.348-6.254-2.695-7.032-2.807-6.866zm-9.922-10.869l1.834 8.211c-3.21-11.538-3.754-14.7-4.1-16.316l2.262 8.105-.065-.288c2.913 10.149 4.445 15.481 5.088 17.718-.744-2.602-2.493-8.675-5.016-17.43zm-4.669 5.55l-5.347-15.283 7.392 19.681zm24.177.064c-.121-.4-1.28-4.256-.815-2-1.893-6.815-2.912-10.831-3.7-13.72 1 4.271.3 1.675-.4-1.049-.827-3.232-1.647-6.64.4 1.049l-.722-3.052c4.073 15.145 5.248 18.772 5.247 18.806a.224.224 0 01-.008-.034zm-13.26-11.458l-2.1-6.784c.148 1.2-.988-2.061-6.135-20.4l6.135 20.4c-.183-1.44-2.009-8.9-1.5-7.794 0 1.007 3.7 14.351 5.759 21.336l-2.156-6.758zm-5.756-9.308a7.615 7.615 0 01.636 1.661c.59 1.735 1.169 3.47-.359-2.184-2.786-9.932-3.688-12.426-4.628-15.465-.77-3.172-1.4-5.8-1.67-7.146l-.5-2.515-1.079 2.446a7.533 7.533 0 00-.285 5.133 11.382 11.382 0 00.778 1.939l.147.3.053.319c.049.263.094.519.139.768.3 1.642.543 3.054.77 4.449-.092-.437-.2-.959-.333-1.556l-.463-2.123-.274-1.231-.1-.481a3.183 3.183 0 00-.218-.438 9.605 9.605 0 01-1.107-3.307 7.7 7.7 0 01.518-3.91l1.425-3.43.923 3.532c1.746 6.687 3.9 14.965 5.924 22.3l.923 2.947c1.805 6.438 2.446 8.922 2.435 9.169 0 .014 0 .021-.008.021-.16.002-2.473-7.406-3.647-11.198zm-3.31 5a13.339 13.339 0 01.56 2.044c-.204-.737-.356-1.29-.561-2.044zm.038-2.106l-2.123-8.152 3.028 10.7zm3.272-2.9c-.006.108-.058.06.274 1.374-1.453-5.08-1.111-4.068-.274-1.368zm0 0zm-7.7-13.842l-.287-1.074-.093-.331a.53.53 0 00-.11-.237l-.067-.1-.168-.3c-.115-.194-.214-.41-.319-.616a10.585 10.585 0 01-.535-1.328 8.985 8.985 0 01.109-5.975l2.649-6.826 2.114 7.034 1.888 6.279c-1.832-5.931-.9-1.948-.908-1.483l-1.314-4.7-1.709-6.1-2.394 5.927a8.662 8.662 0 00-.182 5.778 10.5 10.5 0 00.5 1.307c.1.2.194.415.3.607l.229.413a.578.578 0 01.11.262l.085.354.267 1.078 2.135 8.626zm1.908 4.829a231.09 231.09 0 00-.207-1.287c.2.93.3 1.475.3 1.548v.008a1.206 1.206 0 01-.092-.261zm18.357-20.45zm-.491-1.57c.284.922.476 1.528.491 1.57a32.822 32.822 0 01-.491-1.563zm-1.3-4.4c-.848-3.008-1.75-6.019-1.75-6.019a70.078 70.078 0 00-3.3-10.069l-1.565.434a75.98 75.98 0 00.518 3.988 19.084 19.084 0 01-.683-3.969l1.88-.521c2.516 5.216 4.723 15.464 6.2 20.561a225.64 225.64 0 01-1.3-4.401zm1.9-82.256a14.648 14.648 0 01-.432-1.733 11.576 11.576 0 01-.216-1.552 4.108 4.108 0 01.015-.751 1.486 1.486 0 01.047-.208c0-.031.015-.012.012-.025a1.257 1.257 0 00-.136-.075l.038.018.158.086a2.909 2.909 0 00.341.133.035.035 0 010 .03V.47a4.543 4.543 0 000 .582 14.478 14.478 0 00.194 1.559c.1.688.281 1.445.391 2.724-.122-.921-.212-.283-.406-.868zm-4.7-3.135a2.006 2.006 0 00-.215-.228 2.561 2.561 0 00-.3-.3L99.65.72l.037.057a1.9 1.9 0 01.154.463.451.451 0 01.005.08c0 .04-.013.063-.035.063s-.044-.015-.081-.051zm-.218-.823l4.023-.509-3.885.722zm4.172-.405l-.023-.013.062.031zm-.081-.05l.059.037a.64.64 0 01-.057-.029zm-.023-.017h.011l.014.011zm.005 0zm0 0zm-.049-.039l.045.037a.153.153 0 01-.044-.032z" fill="#232323"/></svg>