<svg xmlns="http://www.w3.org/2000/svg" width="912.733" height="848.511"><path data-name="Color Overlay" d="M817.505 813.929c-9.113-73.022-17.019-146.1-30.528-217.8q-10.732-53.934-21.446-107.707l-5.349-26.882-2.109-11.1.254 5.38 1.148 25.048q1.066 25.026 2.121 49.945l.953 24.9.341 24.86c.915 19.662 1.888 8.306 2.531.7-1.987 53.77 3.389 51.209 4.765 80.541l-1.34 39.226c-.149 9.841-.3 19.674-.4 27.051l-.435 12.5c.884 16.332 1.119 18.346 2.047 16.306.825-2 1.614-7.9 2.094-6.675a200.848 200.848 0 01-1.97 26.749l-24.013 1.381c-9.412-35.816-10.775-70.858-14.86-104.21l-10.571-99.774c-3-27.577-5.757-54.646-8.908-80.818.175 17.945.139 35.546.093 53.191-.949 10.223-2.455 37.7-4.909 73.557-2.056 30.993-4.717 68.242-6.455 106.17q.544 8.371.935 17.315l-1.657-.012-.022.576-18.646-.13c0-.193-.008-.384-.012-.578l-1.665-.012q.182-12.543.7-26.289c-1.48-29.366-4.136-57.931-6.228-83.036-2.76-31.642-4.621-57.649-4.857-72.656.474 40.264-2.4-5.01-8.2-45.075l.42 37.094-9.11-91.882c-.488-4.04-.888-7.452-1.214-10.319-.365 27.764-1.616 55.565-3.221 83.4 1.294 19.634 2.785 39.708 4.539 69.983l-3.481-11.767s.695 14.314.94 28.664c.219 7.169.257 14.344.29 19.731s.067 8.98.067 8.98-.885-11.642-1.778-23.283c-1.023-11.615-2.191-23.193-2.191-23.193-.5 54.871-.292 59.935 1.211 66.571.616 3.313 1.13 7.01 1.089 17.534-.153 10.511-.832 27.889-4.626 58.364l-2.852.016-.7 8.536-19.216 2.462c-4.652-11.675-5.283-21.2-6-29.51-.519-8.293-.527-15.469-.374-22.275.158-6.781.572-13.248 1.011-19.7.4-6.366.988-14.187 2.208-22.522.2-19.26-1.15-8.341-2.424 2.578-1.736 14.886-3.326 29.772-.634-31.816 2.468-18.719 6.142-58.918 8.376-89.238.5-31.738-4.072 18.491-5.505 42.772 2.221-40.749 4.047-66.545 5.65-85.106-1.753-15.763-3.386-28.5-3.386-28.5-3.8-11.967-7.194-32.716-10.768-59.137-.207 7.8-.275 13.747-.085 17.492l-3.154 10.5c.878 50.326.2 78.843-1.589 109.392q-.092 1.48-.188 2.968c.532 9.022 1.008 17.92 1.292 26.231-2.038 2.86-2.191-2.192-2.2-13.515-.825 10.6-1.875 21.857-3.265 34.653-.544 5.362-1.259 11.025-2.005 16.942 1.036 14.712 1.7 22.527 2.188 25.711.711 4.418 1.371.234 1.9-5.378.953-11.136 1.706-28.181 3.3 6.358-.557 9.014-1.377 18.157-2.593 27.351l-33.89 1.383a149.078 149.078 0 01.767-25.468c-.021-11.634.967-22.442 1.912-32.541l1.48-16.615c-1.315-19.3-2.362-43.544-3.88-76.053l1.094 3.329s-1.745-32.3-4.243-64.48c-1.23-16.1-2.642-32.17-3.816-44.2-.665-6.835-1.2-12.38-1.547-15.911q-.009 1.656-.024 3.318c-.325 36.94-2.667 74.273-3.109 101.886.139 29.171 1.447 24.546 2.983 13.423-.167-8.986-.168-14.806.265-19.223l1.069 3.376-.93 35.087c-.1-5-.2-9.412-.284-13.318a893.385 893.385 0 00-1.561 52.644c.006 22.458.589 46.041-.234 68.272 2.5-.65 5.482-71.7 6.257-83.728-.865 34.515-.909 63.169-1.243 87.844l-5.175-.18-.071 1.512-28.885-1-.062-1.519-5.08-.176c1.408-13.935 2.29-26.828 3.421-38.939-.8-19.33-1.312-34.231-1.023-41.445-.494-33.382.881-31.847 2.366-30.314.823.851 1.679 1.7 2.27-3.393-1.54-35.658-3.511-35.428-4.9-35.2a2.091 2.091 0 01-.324.037c-1.669.031-1.992-3.339-3.961-54.747 1.4 11.873 3.02 33.94 3.025 25.349-.809-19.662-.2-47.191-1.082-74.733-.854-27.493-3.221-55.155-7.425-74.436l2.527 26c-6.606-35.488-12.346-77.833-17.809-112.622-1.4-8.726-2.714-16.976-3.919-24.539q-.5-3.424-.964-6.634c1.092 12.979 2.446 32.729 4.172 67.5l-.581-1.54c4.582 55.044 2.6 85.081 8.441 111.875l-.335-19.011c2.04 34.231 2.366 52.895 2.881 71.7.473 18.813.952 37.777 1.836 72.646.661 8.155 2.377 41.91 1.656 51.58.695.567 1.314 6.368 2.015 15.826a357.64 357.64 0 011.014 38.117l-19.791 1.084c-8.034-49.593-15.908-119.1-18.508-138.4 7.882 54.571 5.986 28.488 5.439 12.75-7.422-31.778-10.6-53.915-15.57-98.546-2.873-2.784-5.8-6.2-10.094-19.7-4.337-13.519-9.655-37.057-19.847-79.754 3.9 13.08 8.755 33.851 7.832 25.1-.913-8.962-6.58-28.654-8.6-35.281-.545-4.311.952.117 2.528 4.544 1.629 4.576 3.342 9.152 2.973 4.081-4.891-15.406-9.1-29.766-13.114-44.188 3.44 34.893 5.922 69.779 7.5 103.188 2.109 47.831 1.681 92.418.194 129.108a1470.613 1470.613 0 01-2.737 48.533c-.93 13.688-1.651 25.058-2.541 33.366-1.463 9.58-1.612 27.788-3.632 47.476q.107 1.15.213 2.319l-.457-.019q-.09.819-.185 1.643l-14.657-.607-.165-1.661-.334-.013q.093-.751.182-1.512c-1.435-14.414-2.9-29.029-3.7-40.843l2.581 3.884c-4.8-41.267-6.338-57.308-8.031-75.177-1.781-17.843-3.43-37.581-10.237-85.724 6.5 39.79 6.414 22.979 4.432-17.653 0 0-2.954-16.492-6.223-32.891-3.213-16.411-6.784-32.71-6.784-32.71l1.7-13.34c-3.005-14.707-5.749-30.392-8.492-46.513.788 9.572 1.759 20.051 3.035 32.219.113 35.7 2.355 74.215 5.1 113.979q1.056 14.911 2.13 30.032l1.1 15.095c.384 4.864.888 9.8 1.417 14.777 2.1 19.895 4.986 40.7 4.542 62.535l-28.489 5.733c-6.724-14.927-10.023-30.417-12.008-45.074-1.969-14.773-2.705-28.654-3.829-42.264.782 7.931 1.624 17.2 2.629 25.718.983 8.435 2.28 15.8 3.277 18.829-1.886-11.458-3.031-22.7-4.267-33.5q-1.959-16.38-3.883-32.494c-2.462-21.49-4.867-42.467-7.159-62.418-4.711-39.817-10-75.335-16.556-102.447l-1.821 4.409q-.616-2.843-1.229-5.643c1.182 11.775 2.349 26.489 3.383 42.089 2.021 29.6 3.368 62.411 4.648 84.232l-1.845 11.147c1.192 44.3.984 76.084-1.968 104.489l-28.513.807c-1.585-8.032-2.9-15.7-4.06-23.266l1.748 15.95c-2.047-9.11-3.586-18.349-4.815-27.5q-.151.549-.312 1.1l-11.95 41.157-.236-.527 12.141-40.647q.175-.585.344-1.183a541.905 541.905 0 01-1.918-16.357c-1.459-14.4-2.57-28.245-3.614-41.3 2.355 19.958 4.21 37.217 6.45 54.068a69.83 69.83 0 00.633-3.056c-1.855-22.614-3.6-44.367-6.3-66q-1.79-15.106-3.86-29.99a7.471 7.471 0 01-.489 2.119q.472 4.9.939 10.354l.951 10.336c.445 5.387.977 9.848 1.592 13.564.617 3.745 1.031 6.242 1.031 6.242.214 5.826-.346 4.329-1.037 1.264q.045.549.088 1.1l-.164-1.445c-.166-.749-.337-1.574-.5-2.4-1.116-5.466-2.12-10.931-.538 5.646.891 5.425 2.106 13.017 2.892 22.275a138.7 138.7 0 01.5 15.148 67.156 67.156 0 01-2.545 17.834l-7.464 24.944-11.236-23.91c-7.327-15.579-12.014-33.081-15.445-47.932s-6.256-27.45-8.427-35c.058 4.114 1.192 14.088 3.019 26.371.841 3.443.761 3.254.158 1.063l.413 2.858-.59-3.479c-.913-3.42-2.381-8.787-3.148-11.039 1.022 5.683 2.092 11.646 3.453 19.23-4.292-19.476-4.342-21.883-3.453-19.23-8.548-51.242-6.114-32.265-7.082-30.281-5.113-53.39-11.912-83.933-16.1-122.727.563 29.993.41 46.476 1.106 69.325l-1.284-20.294.709 6.933s-.905-20.548-2.438-43.069l-6.261-30.577c-.588 8.785-1.526 15.694-2.632 19.517-2.156 7.273-4.624 3.273-7.678-20.428-.875-24.305-4.628-50.341-8.444-70.581-3.793-20.253-7.191-34.91-8.584-36.62-1.066-9.911.124-5.606 1.288-1.3.693 2.562 1.376 5.126 1.569 4.689 0 0-2.245-12.321-4.224-25.505-.739-2.649-1.627-6-2.788-10.538q1.035 2.681 2.045 5.382c-.38-2.7-.757-5.377-1.114-7.924-.559-3.3-1.084-6.384-1.53-9.022a36.819 36.819 0 01-.448-9.2c1.836-3.47 1.093 1.039 2.86 8.514.235 1.044.507 2.192.794 3.416 3.662 8.57 7.274 17.562 10.445 26.557-3.424-9.477-7.36-18.037-9.689-23.258.5 2.249.988 4.66 1.368 7.116.943 5.169 1.956 10.74 2.954 16.208.539 2.8 1.084 5.573 1.62 8.251 4.665 14.091 8.831 28.322 12.64 42.443-.245-2.2-.436-4.04-.552-5.405.768 4.1 1.472 7.85 2.119 11.289 8.263 31.35 14.843 61.945 21.263 88.914l-6.549-48.232c5.208 15.025 9.873 42.064 14.015 68.531 3.7 24.791 6.548 49.447 9.478 64.111-3.932-19.257-9.2-55.637-9.173-60.49l-1.234 12.917c5.175 34.141 10.261 64.879 16.007 93.036 2.888 14.089 5.787 27.454 9.022 40.443a229.76 229.76 0 0012.3 37.172c-4-11.215-4.127-13.653-3.153-11.3 1.048 2.341 3.751 9.346 7.32 16.474l4.267 8.525 2.288-8.88a62.752 62.752 0 001.389-21.33c-.613-4.331-.937-4.428-1.7 4.106a63.705 63.705 0 01-1.89 15.17l.187.378-.294.016q-.116.418-.24.836l-.63 2.113-.927-2.027q-.184-.4-.364-.8l-.26.014c.032-.127.064-.254.1-.381a171.438 171.438 0 01-6.827-17.86c-2.178-11.037 1.167.446 7.563 14.171a73.219 73.219 0 00.644-14.319c.436-13.141-1.5-27.663-2.983-43.169-1.03-15.65-1.147-31.935-1.865-48.808-.62-16.842-1.25-34.144-1.89-51.5-.248-9.868-.8-19.723-1.55-29.5-6.683-37.517-13.73-74.021-21.294-109.287l.441-1.049c-5.154-22.507-12.054-44.815-16.63-69.165l29.347-5.7c2.464 10.572 4.484 21.164 6.235 31.7-3.154-13.333-1.926-8.3.445 3.906 2.386 12.263 5.318 31.51 6.954 46.549a1176.555 1176.555 0 016.493 46.553c1.66 7.39 3.362 15.037 3.994 16.934 10.277 59.272 2.3 19.257-2.2-.84 2.167 20.947 3.716 42.483 3.732 60.881l1.512 38.537c9.683 47.841 16.466 77.878 19.629 77.4-3.251-21-8.545-52.409-13.194-80.167-4.612-27.762-8.452-51.915-7.737-58.64 8.641 41.5 19.614 113.949 22.183 117.428.7 22.075-2.057 2.216-4.737-15.9-2.7-18.121-5.172-34.516-2.885-5.754 4.115 29.475 6.9 41.98 9.24 55.7-3.944-19.51.146 26.925.079 35.809.91 8.211 1.859 16.1 2.871 23.549 2.3-28.219 1.929-54.23 1.345-81.311-.814-33.107-2.411-67.925-5.9-111.019.142-5.523.459-16.944 1.735-14.067-2.838-25.1-7.621-55.449-12.521-76.924-4.821-21.483-8.974-34.275-8.906-24.791-5.98-41.064-7.234-55.037-9.994-77q-1.37-5.243-2.9-10.939c1.025 13.2.535 8.2-.816-2.7l-.061-.554c-4.068-15.026-8.855-32.09-13.94-50.219l7.623-.584c.1-2.2.265-4.113.411-5.524l19.912-1.527a781.185 781.185 0 011.461 5.382l7.412-.568c-.767 7.384-.041 16.234 1.306 26.132l.293 2.159c5.682 21.489 6.873 28.079 6 27.466 1.436 8.32.432 8.2-1.7 4.22 2.4 16.651 4.8 33.2 7.074 48.971l2.013 7.606-1.1-1.314.4 2.741c3.383 23.265 5.945 44.831 7.3 62.17 8.5 18.311 19.253 7.485 15.214-27.6 3.322 3.242 8.925 48.336 12.983 70.7 3.964 27.994 7.911 50.1 11.793 70.5-.008-1.494-.02-3.108-.036-4.853q.593 5.4 1.263 11.26.362 1.885.724 3.752c4.467 23.292 8.688 45.229 11.465 72.329l-7.545-40.916c.149 4.529 3.168 26.655 6.438 49.156 1.643 11.252 3.37 22.6 4.907 31.892 1.565 9.393 2.735 16.841 3.445 19.9-.316.642-1.4-2.487-2.793-6.664 1.7 10.31 3.549 20.213 5.257 29.525 1.342 5.261 3.334 13.852 6.516 22.955-.73-9.848-1.88-19.553-3.053-29.153l.374-17.831c-4.023-45.839-9.652-90.122-15.433-125.345-2.841-17.663-5.581-33.2-7.939-45.808-2.559-12.542-4.808-22.146-6.167-28.12-4.2-52.833 4.356-35.2 7.14-22.676-5.291-52.19-11.841-77.454-17.957-102.772-3.054-12.839-6.284-24.854-10.54-40.805-2.046-7.966-4.2-16.843-6.139-27.223-1.672-9.461-3.43-20.087-3.539-32.84l-.12-.425c-.022.949-.035 2.06-.03 3.29-.014 4.022.178 9.311.595 14.495.769 10.423 2.282 20.461 2.282 20.461-1.57-8.383-4.679-24.051-4.378-42.711l23.424-2.813c8.714 32.54 17.616 69.942 16.871 63.41 2.522 16.145 3.174 31.629.29 27.454q.271 1.625.554 3.612c.777 2.485 1.636 5.245 2.55 8.2l.4-4.7c.868-2.013 1.873 4.532 2.9 15.465 1.3 4.257 2.64 8.689 3.965 13.127 5.767 19.226 11.2 38.589 12.675 43.89-1.967-6.584-3.979-6.214-5.73-5.844-1.244.263-2.355.526-3.227-1.7 7.187 35.532 17.739 60.028 15.486 40.643 4.548 34.852 6.056 48.29 7.408 60.088 1.3 12.061 2.349 22.462 3.8 52.407 3.008 21.574 5.794-2.72 4.2-18.682a896.9 896.9 0 0110.819 92.53c.082-26.44-.338-51.073-1.079-71.286l.576 14.6c1.122 9.81 1.582-6.206.782-28.944-.835-22.727-3.122-52.241-5.544-69.211 1.5 5.687 1.9 13.6 3.039 28.242-.567-32.63-4.6-53.521-8.8-74.4-4.283-20.893-8.615-41.8-11.8-74.735 4.636 29.584 7.214 47.333 9.2 57.219 1.926 9.9 3.169 11.959 3.968 10.322-3.741-24.363-9.449-64.751-16.011-95.724-6.493-31.054-11.66-53.372-12.313-40.943-2.269-15.244-4.569-29.831-5.806-40.525L372.212 0l25.279 32.116a48.5 48.5 0 018.054 14.481c1.12 3.574 1.058 5.346.076 4.784a48.835 48.835 0 011.87 5.927 63.193 63.193 0 011.365 6.932c.2 1.347.346 2.776.464 4.28.071 1.266.139 2.6.21 4a7.392 7.392 0 00.555 2.443c.425 1.477.868 3 1.318 4.566.909 3.14 1.87 6.445 2.859 9.866l6.207 21.431c8.4 29.129 17.347 58.14 17.347 58.14-2.945-8.522-6.667-15.6 2.166 18.328-7.653-29.352-16.387-57.681-23.744-83.623-1.868-6.5-3.681-12.829-5.439-18.936q-1.295-4.591-2.541-9.022c-.257-1.158-.74-1.937-.634-2.971a79.208 79.208 0 00-.162-4.361 62.173 62.173 0 00-8.707-28.317c2.436 21.789 5.111 37.418 5.485 21.905 2.48 16.6 5.652 34.136 8.872 52.423l.247.84c6.927 23.289 13.8 44.287 20.336 64.118 13.1 39.639 25.083 74.469 35.963 112.358 0 0 6.035 28.613 10.743 57.424 4.833 28.782 8.563 57.63 8.563 57.63l2.4 4.593-1.147 20.6c.957 4.473 1.819 8.435 2.553 11.859-.931-25.912-.791-53.184-1.205-77.333-.441-35.953-.966-65.11-3.572-72.589-5.151-56.475-5.3-23.276-9.254-59.129.6 1.674 1.8 4.972 1.01-5.478l-6.586-42.403c-.179-7.176.728-1.733 1.648 3.709 1.3 7.719 2.636 15.439.931-12.85l-4.792-40.667 23.256-6.9a121.553 121.553 0 018.891 22.648c2.123 7.132 3.8 13.993 5.269 20.678 2.957 13.278 5.108 26.26 7.386 38.082 5.152 24.484 9.9 49.323 14.283 77.442q.333 1.878.648 3.635l-3.725-39.051c2.454 21.725 1.97-.631.636-32.706-2-47.526-7-64.336-11.562-79.247l7.7-1.408-.044-.169 13.655-2.5.049.169 7.662-1.4c4.213 14.242 8.037 26.785 13.662 60.7-2.145-10.172-2.979-11.7-5.12-21.924l6.163 36.2c2.31 1.448 6.553 15.626 10.7 36.322 4.191 20.661 8.211 47.755 11.44 74.805a4259.49 4259.49 0 013.121 27.33c-.147-22.566-1.03-45.074-2.587-66.651-1.327-18.7-3.15-36.691-5.253-53.461-1.069-8.379-2.073-16.488-3.241-24.2-1.091-7.218-2.3-16.464-2.794-23.371.982 5.929 1.005.019.52-8.344-2.1-9.9-4.139-19.744-5.983-29.491a4.693 4.693 0 00-.679-.692l.5-.275q-.9-4.756-1.722-9.477l-5.785-33.078 24.953 22.469a35.887 35.887 0 016.06 7.087l1.52-.841q.487 2.591 1 5.18.529 1.021 1.014 2.021a83.3 83.3 0 014.59 12.717c-2.146-6.895-3.926-10.386-5.113-12.279l.315 1.549a98.56 98.56 0 016.168 21.069c1.107 5.829 1.915 11.65 2.624 17.33 3.5 14.3 7.166 28.722 10.594 43.375-4.436-18.433-7.4-28.94-9.624-35.438l.476 3.81.806 5.489 1.724 11.731c.48 3.842.97 7.686 1.427 11.528 1.721 6.878 3.32 13.644 4.872 21.273-1.528-6.026-3.121-12.027-4.192-15.275q.319 2.993.588 5.983.374 3.779.7 7.55c.589 2.594 1.3 5.746 2.116 9.312 2.091 10.179 4.89 23.747 7.68 37.315.915 4.6 1.813 9.2 2.672 13.666-.877-12.19-2.126-24.49-3.923-36.956l3.406 18.468 3.234 18.523c-1.388-20.647-4.813-43.719-6.406-54.833l3.234 4.387c-1.415-8.7-2.781-16.8-3.927-25.565l-.283-2.534a257.391 257.391 0 01-5.5-26.842c1.856 8.184 3.434 14.873 4.764 20.266l-1.7-15.27c-.922-7.755-1.937-15.234-3.36-22.135a72.8 72.8 0 00-5.145-16.572 388.385 388.385 0 00-.02 11.268c-1.015-5.431-1.876-10.934-2.705-16.609l23.1-8.206c4.155 7.246 6.1 13.944 7.788 20.516a188.243 188.243 0 013.554 19.334c1.132 8.11 1.855 16.323 2.507 24.25q2.672 8.544 5.62 16.2c-5.845-13.9-2.552-1.014 2.174 19.4 4.581 20.428 9.954 47.823 11.146 62.122-5.125-23.237-10.458-55-17.6-84.667l-.4-1.64q.063.722.128 1.438 2.523 24.184 4.471 48.705c6.5 29.945 11.9 55.8 16.125 82.642 0 0-3.433-24.021-7.453-47.991-3.966-23.975-8.706-47.84-8.706-47.84 6.111 6.889 8.5 42.979 15.884 69.436 4.45 48.527 12.314 85.747 14.672 125.257-.981-9.716-1.5-10.95-2.419-19.522 10.693 103.406 6.261 133.313 10.408 174.776.655 7.357 1.532 15.877 2.5 24.752q.837-8.66 1.8-17.722c-.715 28.747.838 20.381 2.366 11.255-1.55-19.958-1.631-30.377 2.966-8.079q-.011.985-.016 1.974c2.762-50.16 1.778-54.087 1.175-79.854l2.848-18.675c-.594-20.374-1.473-31.709-2.139-39.214-.641-7.51-1.166-11.18-1.659-16.145-.472-4.965-.842-11.231-1.708-23.9-.906-12.656-2.119-31.717-5.525-62.133 2.606 20.368 2.41 8.078 1.892-5.466-.534-13.539-1.517-28.308 1-12.784a774.953 774.953 0 00-4.2-33.7 2595.311 2595.311 0 00-3.864-17.095c-4.4-19.137-9.824-39.212-12.928-52.113-2.694-11.058-4.134-16.557-3.705-10.769-.974-9.656-2.467-21.913-3.145-35.894l19.606-5.177c3.34 8.114 5.092 15.875 6.744 23.8 1.6 7.885 2.854 15.808 3.957 23.586 2.059 15.338 4.055 30.229 5.741 42.778q.234 1.786.449 3.51c3.406 14.864 7.563 33.405 12.92 58.828l-.843-11.452c6.972 31.858 13.128 65.781 18.485 100.918 3.978 25.3 7.148 51.134 10.255 77.248q-.05-.94-.1-1.931c1.191-8.4 1.017-28.07.149-53.589-.246-6.38-.5-13.121-.774-20.149q-.228-5.265-.462-10.733c-.088-1.98-.156-3.23-.324-5.08-.178-1.792-.352-3.6-.53-5.415-.767-7.46-1.619-15.36-1.928-23.653a115.187 115.187 0 01.151-12.937 46.767 46.767 0 013.156-14.868l7.348-17.973 10.415 16.446c9.545 15.073 13.966 31.539 17.191 46.739 1.606 7.642 2.876 15.066 4.116 22.135 1.278 7.045 2.521 13.876 3.712 20.417 4.792 26.373 8.333 48.121 9.29 60.259 5.927 18.258 1.094-7.346-3.815-32.949-5.012-26.141-10.1-52.281-3.9-31.741 2.639 17.067 3.278 24.844 10.007 61.067l.283-13c6.139 33.324 11.732 62.249 16.322 89.273 4.512 26.929 7.862 51.327 10.81 74.638l4.166 35.166c1.98-37.457.846-60.493-1.955-80.1.425-5.129 1.067.132 1.681 5.394.733 6.284 1.43 12.568 1.676 1.152-4.409-39.962-7.594-80.348-7.046-118.412l.364-25.151 15.4 19.049a44.475 44.475 0 014.037 5.92l.45-.174v.028l-.438.169c.159.279.315.559.466.837l-.028-1.006.078-.031q.022.61.041 1.206a72.846 72.846 0 015.19 13.056c1.945 6.5 3.194 12.111 4.927 17.883 3.388 11.811 6.161 23.263 8.667 34.153 5 21.782 9.108 41.337 14.123 57.466-3.616-3.141.205 26.129 2.348 49.976 2.255 23.8 4.045 42.289-3.78 17.141l4.631 19.2c2.393 9.6 5.161 19.161 5.161 19.161-1.736-2.918-4.656-11.955-7.675-24.211-3.052-12.249-6.222-27.711-9.472-43.3-6.669-31.024-13.915-63.625-18.367-73.9q-.244-1.2-.491-2.4c.769 26.856 1.291 54.024.07 81.177-.76 20.053-1.987 40.045-3.4 59.989l-1.1 14.992c-.2 2.579-.353 5.162-.7 7.757l-.724 7.215q-1.228 13.945-1.163 27.981a28.169 28.169 0 01-1.425 16.2l-13.63 32.3zm-72.871-48.721c.147-1.056.3-2.435.437-4.111-.239 2.573-.437 4.111-.437 4.111zm-167.928-93.01l.008.07.888-.037c0-.023.008-.046.012-.07zm17.263-.7v.064l.867-.036-.016-.063zm-37.806-18.773l1.833.064-.014-.261-1.812-.063zm-25.676-.893l1.841.064.029-.26-1.859-.065zm-1.435-.908q.232-2.087.443-4.129l-.109-2.6c-.182 4.11-.334 6.729-.334 6.729zm212.111-107.29a59.79 59.79 0 01-.235 1.553q.664 5.585 1.338 11.18l1.129 9.616.211-2.451c-.823-18.116-1.35-22.9-1.779-22.9-.241-.004-.451 1.499-.664 3.002zm-366.867-9.422l-1.083.218q.882 2.025 1.838 4.023l15-3.017q-.014-2.2-.067-4.381l2.725-.549-.2-.407-2.542.511q-.093-3.511-.28-6.995a127.814 127.814 0 01-3.518-10.156c1.021 6.255 1.849 12.1 2.371 17.438l-2.673.537.192.409 2.524-.508-.042-.438 1.427-.287c0 .148.008.3.012.445l-1.4.281q.2 2.089.329 4.073l-12.827 2.58q-.965-1.994-1.794-3.777l2.947-.593c0-.148-.006-.3-.009-.446l-3.128.629a205 205 0 01-3.648-8.31q.055 1.18.1 2.359 1.162 3.106 2.479 6.167l-2.331.468v.449l2.507-.5-.179-.412 1.071-.216c.066.133.134.267.199.405zm-6.175-13.41q-.061-.824-.125-1.643c-.695-1.883-1.263-3.488-1.834-4.982q.911 3.319 1.959 6.625zm38.068-94.431c3.086 16.135 7.015 37.7 10.75 59.314.781 4.522 1.555 9.042 2.317 13.515q.292-8.348.583-16.737.057-1.829.109-3.656l-3.5-13.538 4.2-22.019q.069-6.359.1-12.61c-6.369-47.73-10.444-40.688-14.045-33.65-1.976 3.861-3.811 7.723-5.8 2.538-.004 0 2.115 10.737 5.286 26.844zm68.437-16.944s3.731 21.792 7.456 43.584c3.489 21.847 6.975 43.7 6.975 43.7l-2.668-42.723c1.685 8.95 3.4 18.1 5.081 26.942a4145.58 4145.58 0 01-.221-3.634c.544-2.227 1.21.965 1.84 4.157.875 4.432 1.684 8.862 2.005-1.2q-.181-1.8-.348-3.633c-2.376-6.557-5.655-19.336-8.994-32.647.212 3.367.429 6.759.637 10.016-2.3-11.643-4.48-22.741-6.4-32.517 1.735 6.794 3.691 14.409 5.766 22.5a1901.093 1901.093 0 00-2.382-31.916c-5.612-22.128-10.441-37.912-6.744-6.471.989 4.35 2.164 9.966 3.36 15.886-2.539-9.716-4.64-16.8-5.346-16.8-.323 0-.357 1.448-.017 4.756zm-181.347 61.379a827.671 827.671 0 002.154 15.175q-.8-9.23-1.526-18.248-.274 1.517-.628 3.073zm357.884-36.318l.6 11.493c1.72 8.806 3.37 17.716-.588-13.216-.012.575-.012 1.147-.012 1.723zm-157.98 19.02l-.038-.783-.234-.924.27 1.707zm67.529-54.8c1.646-1.758 1.238-14.811-.652-34.18.439 11.012.656 22.512.65 34.181zm23.576-3.4q.221-5.648.377-11.335a737.855 737.855 0 00-2.627-22.621c.603 11.471 1.376 22.816 2.248 33.953zm-103.825-12.225c-2.409-20.83-5.428-39.2-8.755-50.786a2626.097 2626.097 0 008.755 50.786zm147.012-24.379c.4 2.921.753 5.565 1.074 7.95q-.336-5.833-.761-12.2l-.238-1a281.002 281.002 0 01-.076 5.249zm-94.694-28.164c-.446-6.7-.753-10.871-.753-10.871.235 4.359.499 8.015.753 10.871zm-268.23-110.685c1.177 6.476 2.714 14.656 4.687 24.95q2.183 10.969 4.267 21.494c1.649 4.158 3.153 5.988 3.216-6.945l-4.187-22.393c-.443-6.635 1.719 3.224 4.084 14.333q-.065-2.479-.169-5.379c-3.634-42.735-7.641-67.78-10.931-88.509-3.514-20.85-6.949-37.426-13.277-61.927l-12.592 2.441q.648 3.129 1.409 6.4l3.5.894c.542 7.177.414 9.274 1.273 18.081 2.821 10.763 6.068 22.92 9.426 37.19-3.01-26.85-6.255-49.064-9.048-63.69l-.477.089c.794 5.466 1.4 9.709 1.868 12.92-.623-3.8-1.334-8.112-2.117-12.875l.983-.189c5 23.707 9.437 56.85 12.433 73.966 0 0-1.305-13.548-2.616-27.1-1.345-13.54-3.239-27.068-3.247-27.128 3.775 21.927 5 41.728 7.251 63.989q.266 2.746.548 5.545 1.044 5.181 2.076 10.69c1.066 4.293.472 2.791-.3 1.288a9.984 9.984 0 00-.643-1.113c.781 7.263 1.641 14.873 2.583 22.978zm-45.988 46.408c-.131-1.92-.268-3.852-.41-5.783a1200.75 1200.75 0 00-1.481-18.613c-1.075-5.2-2.339-11.679-3.7-18.8-.1 4.936-.3 9.576-.579 13.785 1.22 4.953.835-1.005 1.2-1.927 1.342 9.331 2.306 16.794 4.97 31.338zm61.675-19.057l.324 1.713c-1.267-13.94-2.173-24.077-2.2-24.077s.526 6.398 1.88 22.364zm-60.44.073l.04.32-.1-1.025c.025.242.046.475.065.705zm-20.435-74.848c.788 9.16 3.141 22.358 7.16 54.879 3 20.633 2.912 7.961 1.562-12.109-.715-10.492-2.056-22.875-3.281-33.557-2.535-11.433-5.109-21.587-7.058-28.216.768 7.912.961 12.391 1.622 19.003zm408.063-16.033l-.894.318c.454.741.879 1.473 1.278 2.188q-.2-1.251-.384-2.506l1.341-.476-.167-.306-1.227.436q-.274-1.844-.532-3.69l15.251-5.42 1.715 3.267-1.049.373.049.349 1.163-.413-.162-.309.787-.28-1.316-3.689-17.8 6.321q-.055 2.281-.1 4.569l1.152-.41-.185-.3 1.026-.365c.024.112.042.229.059.344zm17.285-6.143l-.742.264.354.674 1.743 4.206-1.124-4.5-.231-.646.374-.132-.062-.345-.428.152zM302.386 83.44c1.5 3.949 2.756 6.88 3.275 7.267-.945-5.412-2.6-13.379-5.968-27.2.895 6.614 1.793 13.271 2.693 19.933zm79.022-29.915c1.026.294 1.629-1.265 2.112-3.143a37.053 37.053 0 00-2.623-4.078q.319 3.791.511 7.224zm-1.023-12.756q.273 2.7.488 5.234l7.342-3.275-.53-3.021-.531-3.008 2.008 2.344q1.006 1.173 1.933 2.4l6.678-2.979q-1.407-2.188-2.935-4.142l-17.33-22.2zm-54.437 1.981l.077-.01q0-1.073.023-2.169s-.054.808-.101 2.182zm580.115 777.577l4.579-35.955a21.592 21.592 0 00-.894-9.076c-.651-2.153-1.248-3.6-1.527-4.486a4.415 4.415 0 01.22-4.012c-.634 1.359.034 2.978.869 4.149a33.683 33.683 0 012.071 4.561 21.369 21.369 0 011.283 9.139l-3.487 41.5zm-8.645-16.162l8.645 16.162-.521 4.092zm-8.8-16.458l-4.639-8.676s-.022-2.892-.047-5.778.067-5.738.067-5.738c.85 4.263 3.489 11.892 6.51 19.416l6.913 17.234zm-25.659-81.241c-1.966-10.988-3.936-21.971-3.936-21.971l3.948 15.312s1.026 7.188 2.047 14.373c1.131 7.231 2.266 14.457 2.266 14.457s-2.327-11.131-4.33-22.172zM617.728 587.748l-.24 4.438c.064-1.346.145-2.834.24-4.438zM265.437 483.955l14.43 32.2-.1.33zm-3.041-6.787a187.788 187.788 0 01-7.91-20.967c.463 1.176-.027-.741-1.136-5.25a179 179 0 009.088 26.2l3 6.808zm-7.91-20.967c-1.447-3.539-6.512-22.698 0-.001zm-7.009-34.072c2.621 15.12 4.751 24.1 5.873 28.822a293.814 293.814 0 01-5.873-28.823zm-99.968-24.189l-.6-1.152a6.857 6.857 0 00.643 1.131l21.281-3.667c1.016-19.993.079-22.225-.636-21.99-.786.243-1.683 2.956-1.9-6.892 2.382-27.577 2.921-27.547 3.527-16.986.548 10.551.032 31.645-.941 45.871l-2.7 39.383zm100.048-47.079c1.57 8.192 2.99 14.845 3.338 13.966l4.135 26.413 4.467 26.375q-.02.04-.046.04c-.877-.001-6.877-34.892-11.894-66.792zm-53.508 36.951l1.674 16.133 31.148-2.7v-20.646c.486 2.368.535 11.427.433 20.627l-32.021 2.784c-.447-5.938-.91-11.94-1.234-16.196zm-.153-2.179c.047.711.089 1.313.153 2.179-1.74-15.413-4-31.723-6.733-48.59 2.909 15.556 5.788 32.075 8.847 50.479-4.2-31.86-1.877-22.389.2-12.919 2.355 10.763 4.387 21.526-3.848-28.374 5.844 29.49 6.138 20.9 11.4 54.449l14.706-1.28c-.262-5.427-.6-12.454-1.011-21.136 1.265-23.553 3.337 1.7 5.728 20.944l-24.1 2.094c-1.147-5.171-2.241-9.819-3.252-13.008.787 5.433 1.543 10.576 1.919 13.181l26.778-2.321c-1.683-37.709-2.489-59.531-3.011-77.405l4.211 77.355-29.168 2.534zm.518.737c1.551 8.463 4.771 31.4 1.55 4.1a18.682 18.682 0 00-1.55-4.1l-.333-1.952c-.507-4.585-.493-3.223-.2.862l-.05-.084.068.437-.018-.353c.138.076.364.795.533 1.092zm-47.524 10.382l.019.035zm-.018-.035c.006.012.013.023.018.035zm96.633-48.777a36.151 36.151 0 002.521 7.9c-.639-.429-1.532-3.613-2.521-7.9zm-65.031-26.776c-.3 9.837-.645 21.1-1.309 29.006 0 0-.077-8.015-.148-16.036l-.506-15.979a17.838 17.838 0 00.6-2.786l-.517-2.2.535 2.08c.77-4.9 1.491-13.5 2.16-14.99q-2.529-11.019-5.262-21.227c.361 4.309.8 9.806 1.166 15.317a777.18 777.18 0 011.016 17.125l.385 1.7-.372-1.434c.189 3.886.288 6.415.288 6.415-.674 1.6-.952-.455-1.486-10.99-2.642-10.028-5.508-20.5-8.564-31.569l-1.6-5.754c.185 12.637.315 26.412.225 39l.454 6.817c-1.327 43.112-2.166 8.7-3.108-4.945.282-.366.551 1.762.8 3.891.478 4.033.894 8.066 1.218-4.87-.321-22.777-1.78-28.549-2.5-35.518.132-5.026.264-9.454.4-13.414q-.8-2.889-1.62-5.832-3.021-10.928-6.012-22.61c3.018 10.022 1.972 3.422 1.012-3.179-.941-6.474-1.8-12.946 1.344-3.739 1.949 9.353 3.82 18.071 5.62 26.3.374-8.641.794-14.736 1.339-20.658q-3.249-12.744-6.443-24.539c2.178 6.691 4.3 13.612 6.615 22.346 0-2.628.077-3.545.259-2.218q-.12 1.166-.232 2.318c1.355 5.117 2.776 10.855 4.315 17.534l-.2-3.252c-.441-6.213-.872-12.632-1.361-17.3l-.905-7.759s.534 3.321 1.342 8.3c.7 5.022 1.472 11.853 2.237 18.512.586 5.175 1.129 10.36 1.574 14.775 6.256 25.736 11.783 52.915 16.081 79.411-2.541-13.517-5.113-26.189-7.837-38.127-.454 2.577-.706 10.385-.988 19.521 2.862 11.367 5.384 22.087 7.517 32.563l-7.532-32.004zm-13.757-60.241c3.663 16.483 7.044 31.069 10.25 45.105-.316-6.365-.723-15.557-1.342-28.474q-1.014-3.725-2.065-7.349-.6-2.46-1.1-4.548a18.4 18.4 0 01-.592 2.664l-.423-6.987c-3.068-13.338-1.921-11.5-.508-8.389l-.193-3.177q-2.3-9.194-4.523-17.945c.06 6.154.286 16.717.496 29.103zm-61.428 86.27c-.671-.381-4.233-11.648-6.6-24.547-2.417-12.586-4.23-26.549-5.625-33.207l2.776 13c1.54 6.747 3.077 13.5 3.077 13.5a240.621 240.621 0 006.511 31.208l8.573-1.191.034-.43c.054-.07.1-.075.119.434l.261 6.483zm136.761-38.669c2.066 9.32 4.77 25.4 7.506 42.336-2.593-13.52-5.921-33.204-7.505-42.333zm3.32 38.832l.134.583q-.067-.284-.133-.58zm-.755-3.514c.214 1.048.424 2.045.629 2.984q-.315-1.409-.628-2.981zm-35.039-25.938c-1.029-30.715 1.229-10.028 2.586 19.681l-1.231 1.956c-.639-6.854-.668-14.683-1.354-21.634zM81.563 260.54c-6.943-27.31-14.642-57.312-28.545-81.078l2.146-.14c-.148-.275-.3-.546-.444-.819l14.388-.942c-.122.31-.236.6-.346.874l2.16-.141a22.222 22.222 0 00-1.429 6.769 22.538 22.538 0 00.088 3.446 35.092 35.092 0 00.829 4.675q.082 8.7.157 17.006l-1.087-7.867c-.369-2.849-.708-4.621-1.093-8.934l-1.314-4.214a24.482 24.482 0 01-.715-3.366 23.994 23.994 0 01.818-3.4 24.841 24.841 0 011.273-3.19c.1-.258.208-.517.315-.787l-13.6.887c12.08 22.483 20.945 54.1 28.179 82.891 3.376 14.395 5.5 28.562 7.381 40.856 1.824 12.309 3.447 22.775 4.236 30.2-4.59-19.477-7.258-45.782-13.397-72.726zm-12.351 57.307s.849-11.086.575-21.963c-.152-10.9-.956-21.568-.956-21.568s1.113 12.115 1.4 24.55a235.118 235.118 0 01-.778 25.136zm93.218-7.132c-.183.231-.365.1-.553 3.086-.143-11.636.073-9.287.554-3.081zm146.053-17.648l.154 1.9c-.049 1.7-.072 2.846-.09 2.846s-.033-1.333-.064-4.746zm-217.516-4.1c.033.155.068.312.1.475a8.829 8.829 0 00-.104-.475zm0 0zm21.72-44.4c-2.911-11.086-5.824-22.172-8.01-30.487a610.441 610.441 0 00-2.168-7.788c.468 1.6 1.02 3.477 1.635 5.573 1.869 6.934 4.369 16.176 6.868 25.418 2.6 9.4 4.964 18.653 6.738 25.62s2.977 11.612 2.977 11.612l3.111 14.45s-5.575-22.2-11.152-44.399zm118.857.041l-2.3-15.644 9.073 52.758zm-122.094 2.3l5.176 21.261c-3.69-11.729-4.697-17.373-5.177-21.26zm-106.3 17.87a12.433 12.433 0 01-1.632-3.719 26.741 26.741 0 01-1.411-7.34c-.162.022-.118-.3.047-.617.193-.374.552-.75.942-.574.333.083.662.076.962.958.258 1.1.774 2.973 3 12.779-.562-1.711-1.043-.369-1.913-1.486zm163.842-49.2a997.914 997.914 0 00-2.161-8.106l1.256 10.759-2.437-15.083c-3.921-14.26-7.38-25.833-7.38-25.833 2.334 5.183 1.831-4.877 12.5 39.181l.776-2.319 7.626 40.036s-5.095-19.32-10.185-38.638zm357.791 14.557l2.18 23.476c-.588-5.215-1.29-12.349-2.185-23.48zm139.662 17.383q.2 1.967.365 3.788c-.18-1.587-.3-2.842-.37-3.792zm-558.734 2.8c-.262 0-1.006-2.121-2.328-6.884-1.335-4.8-3.163-12.262-5.712-22.634 1.855 6.668.82.856-.885-7.526-1.789-8.212-4.155-19.079-5.057-23.243 0 0 3.189 9.436 5.945 19.362l5.378 20.156c1.857 12.168 3.241 20.768 2.669 20.768zm-2.019-26.078c-2.8-11.192-5.882-21.962-5.9-22.025 5.521 18.368 8.464 27.328 6.491 23.825 5.607 13.671 4.426 14.683 5.167 20.872-.001-.003-2.877-11.341-5.758-22.672zm290.533 13.63q.19 1.327.32 2.451l-.321-2.454zm-270.38-9.942c.02 2.188.032 3.267.061 7.014-3.026-37.139-4.707-44.109-4.407-43.206.134.919 1.42 9.8 1.695 4.627 1.475 15.66 2.146 24.877 2.651 31.566-.046-10 .454-3.607.767 2.788a79.741 79.741 0 01.189 7.988c-.108-.005-.392-2.812-.956-10.781zm225.956 4.3c-2.632-30.887-4-33.182-5.224-36.286-1.354-3.108-2.588-7.02-6.843-41.11.97-19.428 3.729 2.211 10.634 43.144-1.679-8.124-.325 4.4.849 16.975.92 9.855 1.723 19.742 1.27 19.742-.124-.01-.346-.761-.687-2.473zm-1.432-34.252c.692 3.442 1.719 9.014 3.506 20.9-1.24-7.402-2.405-14.35-3.507-20.908zm39.648 9.247q.2.66.393 1.415zm131.7-9.2l2.705-9.081-2.116 19.316zm-370.834-18.095c.4 2.885.391 3.777-.964-2.994l.964 2.994c-.263-1.877-.73-4.452-1.292-6.991 3.24 9.741 6.62 21.163 10 33.627-2.676-8.181-5.334-16.319-8.712-26.647zm-48.047 20.657s.644 2.111 1.676 5.718l-1.68-5.73zm112.1-4.923l-3.148-17.743-.7-3.719c-3.321-13.009-6.722-25.174-9.207-34.069-3.247-11.44-4.728-17.6-1.657-13.487l-1.776-5.552c9.6 28.4 15.768 55.162 15.683 62.841 2.6 11.089 4.873 22.1 4.873 22.1zM110.151 153.78l.239-.073-.022-.116 1.859-.571c0 .04.008.079.013.119l-1.849.568c3.87 21.222 3.318 13.612 1.849-.568l.756-.232c2.262 15.247 3.495 27.087 4.2 35.19.649 8.11.78 12.486.494 12.86a.07.07 0 01-.051.027c-.729-.013-2.539-15.22-7.492-47.215zm55.538 36.639c-.816-6.445-1.621-12.8-2.329-18.418l.122-18.731c2.783 26.333 2.275 33.467 2.207 37.148l.581 4.642a13.046 13.046 0 01-.585-4.652zm274.3-3.124l.112.429a17.677 17.677 0 01-.118-.44zm-226.474-17.377s.055-3.081.107-6.157c.008-3.084.021-6.165.021-6.165s1.691 7.494 3.208 15.026c1.466 7.533 2.937 15.07 2.937 15.07zM84.473 161.65l.741-.228-.044-.1 1.878-.577-.136-.263.224-.068-.014-.032 22.956-7.046.005.037-22.947 7.042.122.266-.211.065.054.1-1.888.579a179.573 179.573 0 016.018 16.623 191.361 191.361 0 00-6.758-16.399zm61.654 6.828c.266-.608.856 1.625 1.461 4.448-.425-1.295-1.009-3.067-1.461-4.448zm13.923-22.81c-.216-1.431-.331-2.607-.457-3.776l.033.26c.18 1.453.373 3.021.583 4.693.837 6.7 1.9 15.158 3.146 25.146l.006.656c-1.422-11.579-2.498-20.407-3.311-26.979zM87.102 160.84l.205-.064-.049-.1 22.869-7.023-.044-.285.229-.07.051.283-.237.073.019.116-22.839 7.01c.688 1.48 1.726 3.561 2.665 5.824-1.089-2.408-2.178-4.436-2.869-5.764zm79.765-14.431zm-.004.003zm-.85-4.114c-.129-.61-.268-1.278-.416-1.986l-.536-2.812c-.11-.711-.391-1.5-.554-2.138l-.346-1.068-.562-1.788a61.933 61.933 0 01-2.051-9.827q-.254-2.954-.221-5.959l-35.77 5.792c1.726 3.679 3.512 7.331 5.143 11.088-1.7-3.751-3.554-7.394-5.343-11.056l.2-.032-.021-.045 35.791-5.8v.048l.2-.032a59.392 59.392 0 001.5 12.912q.362 1.582.811 3.139l.465 1.553.271.884.528 1.914.517 2.912.42 2.138.83 4.27c-.006-.023-.346-1.665-.851-4.107zm-6.658-2.239a28.14 28.14 0 01-.087-.707c.139.9.232 1.719.32 2.54zm-.682-3.8a71.174 71.174 0 01-.814-4.211l.378 2.1q.288 1.374.664 3.083a13.682 13.682 0 01.366 2.12 38.756 38.756 0 00-.59-3.088zm38.974-42.853l-.4-4.288c-.265-2.425-.624-5.224-.741-7.436a13.676 13.676 0 01.222-4.236c.055-.084.056-.253.095-.227-.021-.014 0-.013.023-.013s.059 0-.1-.053c.318.1.255.094.255.094l.018.027a1.48 1.48 0 01.045.355 41.163 41.163 0 00.772 5.4c.538 2.743 1.367 6.32 1.853 9.722l.678 4.119zm-1.023-16.292c-.3-.082-.541-.155-.741-.218.14.042.3.086.474.13.188.059.311.1.389.126zm-1.463-.474c.019.008.235.1.723.257a6.708 6.708 0 01-.721-.257z" fill="#919191"/></svg>