<svg xmlns="http://www.w3.org/2000/svg" width="115.3" height="461.379"><path data-name="Color Overlay" d="M22.96 460.943a9 9 0 01-.321-2.336c.064.234.258.07.435.236s.327.693.407 1.971c.081-.055-.014.5-.194.561a.1.1 0 01-.03 0c-.086-.001-.187-.107-.297-.432zm1.67-20.817l-1.174-4.944 1.55 5.583zm-2.812-15.466l.1-1.1c-.529-6.5-3.172-16.027-2.519-19.613.449 5.574 2.45 15.685 3.744 23.487zm23.765-24.436c-.5-.995-1.012-1.959-1.378-2.917.488 1.034 1.082 1.967 1.563 2.8l6.889 12-.146 1.844zm7.074 11.888l.792-9.965-.283 10.851zm-.001.001zm-6.415-12.29a92.421 92.421 0 01-6.749-16.625c-1.689-5.4-3.044-10.616-4.29-15.563l.146-.151-3.578-11.631c1.368 2.938-.993-2.219-1.8-5.789a113.719 113.719 0 01-3.652-14.241l-2.106-7.434c1.856 5.387 1.555 3.263 1.3 1.023a7 7 0 01-.068-2.53l-1.967-4.565c-.109-.883.161-.43.419.051.328.614.639 1.274.129-.706-1.313-3.049-4.278-12.384-5.954-15.044a17.277 17.277 0 00.511 3.129c.172.382.157.362.026.124l.069.334-.106-.4a12.217 12.217 0 00-.688-1.193l.649 2.2c-.838-2.179-.86-2.479-.649-2.2-1.4-4.662-1.432-4.227-1.5-3.694a.867.867 0 01-.086.351c-1.086-6.568-2.919-10-3.578-14.956.137 2.02-1.232-1.9-2.617-5.774-1.391-3.893-2.8-7.745-2.713-5.5-.743-5.283-1.174-3.391-1.458-6.814 2.324 6.955 5.732 13.477 8.159 18.887l-1.3-5.7c2.493 3.135 3.875 12.46 5.37 15.592a33.517 33.517 0 01-2.258-7.335l-.393 1.7a177.828 177.828 0 007.349 19.435c-.724-2.857.045-.936.847.9.714 1.634 1.451 3.2 1.187 1.3l-1.442-4.153c-.287-2.025 1.3 1.939 2.308 4.213 3.58 13.451 10.67 37.889 11.223 42.89a67.946 67.946 0 00-2.979-10.11l1.3 6.4c-1.409-5.1-1.642-9.368-4.034-16.808-.094.552-.5.112-.918-.293-.664-.646-1.361-1.207-.9 2.436 2.966 14.645 4.829 11.439 9.147 28.862.2.544.041.3-.151.135-.361-.316-.824-.366.876 5.683a66.217 66.217 0 005.7 14.061 14.359 14.359 0 003.4 4.318 16.1 16.1 0 00-.364-1.585 6.75 6.75 0 00-.09-.306 49.41 49.41 0 01-2.974-6.462c-1.177-3.127-1.855-5.979-1.595-6.845.835 2.383 1.936 5.623 3.066 8.207.334.773.67 1.486.986 2.107l-.243-2.516c-.209-2.435-.406-4.729-.608-7.052-.383-4.646-.749-9.375-1.493-15.521.081-.672.257-2.066.578-1.75-1.084-5.971-4-14.254-4.372-11.92-1.069-7-.607-7.453-1.814-13.372.444 9.672-.113-1.889-1.347-2.744-.641-3.677-.437-3.716-.214-3.8.146-.056.3-.13.225-1.255-.269-1-1-3.374-1.311-3.493.121-1.911.909-.248 1.709 1.383.823 1.676 1.66 3.316 1.8 1.012.127-3.139-.767-16.411-.848-17.368-1.364-2.769-4.955-1.322-5.494 3.208-.695-.364-.22-5.859-.584-8.535-.234-7.889-2.715-11.649-3.415-18.127l1.4 4.793a76.981 76.981 0 00-2.507-11.92c.124-.121.569.572 1.055 1.265.739 1.055 1.573 2.11 1.519.3-1.83-11.57-5.818-22.125-6.732-21.212l4.3 17.44c-.376.385-1.153-2.673-1.953-5.732-.809-3.09-1.642-6.179-2.111-5.718l-2.723-16.248c.426 1.988 1.849 8.233 1.869 5.672-1.366-6.962-.515-3.612-1.031-8.332 2.7 7.692 8.226 21.878 10.517 26.864l-2.108-8.3.13-2.2a80.637 80.637 0 00-5.229-14.407c-1.886-3.969-3.631-6.919-4.362-8.282-1.011-6.374 1.3-4.5 1.948-3.077a79.868 79.868 0 00-3.19-12.25 30.377 30.377 0 01-1.467-12.919l-.118.772c-.07.463-.131 1.084-.206 1.7-.161 1.245-.234 2.487-.234 2.487a47.855 47.855 0 01.293-7.11l.268-2.492 2.423-.356a4.516 4.516 0 012.273.257 5.249 5.249 0 011.357.783 7.958 7.958 0 011.382 1.424 18.121 18.121 0 011.372 2.126c.631 1.135.932 1.727.872 1.363.664 2.495.445 4.875-.655 3.284l.631 1.043 1.952 3.433c.343.6.7 1.258.995 1.686l.975 1.526c.393.617.7 1.1.848 1.336-.457-.649-.949-.462-1.383-.275-.328.141-.624.284-.842.061 1.651 3.955 4.359 6.162 3.865 4.027 2.3 8.131 2.035 6.052 3.515 13.06 1.076 2.377 1.417-.828.85-2.663a77.093 77.093 0 014.557 11.283c-2.715-5.727-3.658-4.533-4.466-3.339-.437.647-.835 1.293-1.453.841 0 0 2.961 4.454 5.924 8.907l5.841 8.975a6.185 6.185 0 00-2.575-1.426c1.632 1 8.48 18.136 12.5 30l-1.094-9.417-.544-.5.712-2.567a15.165 15.165 0 01-.913-3.09c.045-.331.268.075.548.722a32.515 32.515 0 00-.857-3.381c.5-.639 1.584 1.663 2.637 4.139v-1.216c-1.858-6.421-4-13.764-3.773-7.776l-.666-8.092c-2.6-9.2-2.07-7.609-4.624-18.9.123-.29.334.068.535.427.278.5.537.992.524-.225-2.5-8.12-1.576-20.558-2.957-22.19-1.281-6.681-1.385-2.641-2.337-6.867.155.183.461.543.293-.7l-1.563-4.943c-.007-.873.208-.231.426.4.307.895.619 1.776.319-1.606-2.055-9.677-3.413-15.42-4.286-23.684-1.05-6.118-1.226-4.381-1.353-2.772-.116 1.463-.191 2.82-.844-1.9a12.153 12.153 0 00.563-2.82 19.109 19.109 0 00-.006-2.48c-.019-.256-.038-.526-.057-.812 0-.05-.019-.187-.013-.172.018.072.007-.021.01-.033a1.087 1.087 0 00-.039-.264c-.155-.743-.3-1.574-.411-2.506-.372-1.552-.561-2.448-.713-3.406a12.534 12.534 0 01.005-3.876l1.2-8.751 6.866 6.752a16.549 16.549 0 012.129 2.615l-1.093.172a35.464 35.464 0 013.2 6.541c.595 1.619.819 2.577.473 2.745a50.045 50.045 0 013.744 8.464c3.515 7.02-.324-6.142-.665-7.993 2.272 7.423 4.732 12.162 5.3 16.7l-2.88-6.185c4.446 13.927 6.647 12.176 7.257 19.24-1.849-4.634-4.654-9.942-4.037-7.008l3.263 6.455c.033.363-.257-.2-.542-.766-.413-.823-.816-1.668-.232.21 1 1.812 3.106 5.5 4.137 7.085l-.1-.064.809 1.869 1.693 4.152c.771 1.9 1.543 3.8 2.011 4.946-.581-1.288-.825-1.212-.119.685l1.805 3.883c.225.484.452.969.662 1.426l.079.168.04.068.072.125.13.222.262.435c-.589-.8-.5.3.143 2.39a6.125 6.125 0 001.174 2.417c.287.233.459-.052.578-.409s.188-.779.285-.79c.1.006.21.369.559 1.974-.143-.426-.115 0-.268-.455l.764 3.2c-.492-4.219-.123-3.429.26-2.6.2.4.339.835.184.028-.154-.791-.673-2.957-1.816-7.475.938 3.69 1.326 5.058 1.564 6.111l1.042 4.9.844 3.166.966 3.479c-.175-.272-.709-2.228-.684-1.726 1.266 4.769 1.9 6.526 1.915 5.674a19.086 19.086 0 00-.306-2.6c-.113-.643-.183-1.222-.357-2.032l-.711-2.771c.355.935 1.271 3.986 2.113 6.751s1.6 5.142 1.464 4.142c-.042-.292-.174-.906-.418-1.869-1.215-4.712-2.087-7.048-2.944-9.6-.845-2.444-1.724-5.09-2.181-6.648l1.232 3.539 1.114 3.019c-1.319-4.445-1.49-5.31-1.542-6.079a15.571 15.571 0 00-.068-2.511 9.131 9.131 0 00-.653-1.734 6.5 6.5 0 00-.325-1.965 12.635 12.635 0 00-.347-1.039l-.183-.445q-.2-.782-.4-1.554a121.408 121.408 0 01-2.678-12.008c.536 1.553-.056-4.033.046-4.906l-3.138-12.149c1.4 5.366 1.972 5.006 2.79 5.877-.836-3.831-1.556-5.565-2.176-8.157.55 1.546 1.109 3.109.972 1.023l-1.883-6.311-1.961-6.278c.073.777.362 2.255.608 3.491-.7-3.2-2.732-10-3.366-14.676.34.343.957 1.853 1.3 2.186a18 18 0 002.274 7.919c-1.313-5.284-1.177-5.028-.983-4.923.129.068.284.071.056-1.667-1.545-6.215-3.039-8.544-3.146-6.784a96.753 96.753 0 00-4.531-16.285l1.211 1.123-2.055-6.48 2.479 5.033c-2.874-12.733-2.055-1.915-5.467-16l.73-.245c-2.15-6.567-4.925-11.625-5.432-16.9-1.434-4.342-.931-1.455-.614.539.148.961.22 1.623-.126.706-.324-.886-1.178-3.525-2.542-8.649-.164-1.419-.615-3.819-1.131-6.332l-.835-3.908-.184-2.239c-.6-2.371-.86-2.328-.947-1.385-.021.237-.03.528-.027.856l.009.512a2.441 2.441 0 00.1.725c.194.842.4 1.7.606 2.486l-.365-1.348a18.458 18.458 0 01-.522-2.17c-.123-.9-.216-1.681-.283-2.366a25.064 25.064 0 01-.152-3.072 4.425 4.425 0 01.511-2.3c.453-.855.556-1.855-1.526-11.128.194 1.994-.455-.125-.817-1.108s-.516-.877.4 5.415a62.939 62.939 0 01-1-8.186l-.083-.86a1.321 1.321 0 01-.074-.284 8.868 8.868 0 01-.079-1.1c-.022-.98.035-2.442.17-4.458 0 0-.022 1.51.08 2.893a25 25 0 00.329 2.681 41.6 41.6 0 01.337-6.8l.361 1.972.081-.908c.035-.288.058-.7.128-.6l.362-.109a1.316 1.316 0 01.664.01 2.8 2.8 0 011.278 1.09c.852 1.7 1.568 3.324 2.059 4.257s.728 1.125.543-.28a9.732 9.732 0 001.538 4.147 33.928 33.928 0 013.41 5.9 10.094 10.094 0 01-2.185-2.832c-.769-1.291-1.464-2.715-2.091-4.02-1.212-2.58-2.341-4.866-2.4-4.358a3.277 3.277 0 00.16.848l.27.542c.717 1.632 1.153 2.475 1.561 3.3a36.11 36.11 0 011.535 3.575c-.477-.792-1.142-1.895-1.161-1.595 2.409 5.941 3.49 8.778 4.648 10.368 1.264 1.843 2.117 2 3.859 5.089l-.955-1.8c-.554-1.021-1.254-2.207-1.889-3.307l-1.755-3.068-.722-1.323c-.332-1.363-.377-1.846-.259-1.842a4.308 4.308 0 01.861 1.262c.764 1.34 1.646 3.015 1.978 2.154 1.917 4.285 3.6 8.059 5.213 11.658 1.616 3.836 3.055 6.5 4.593 10.381-.732-1.622-.819-1.558-1.443-2.9 1.9 4.159 3.479 7.9 4.707 11.023a137.05 137.05 0 012.875 7.973c.681 2.106 1.2 3.858 1.583 5.177a23.9 23.9 0 001.208 3.461c1.9 4.554 6.415 12.766 5.493 9.468.922 1.625-.559-1.45-1.984-4.665-1.67-3.766-3.267-7.724-.845-4.547.636 3.669 2.348 6.964 4.55 11.2a127.088 127.088 0 017.453 16.921c-1.75-3.087-1.528-1.922-1.3-.783.221 1.082.45 2.139-.994-.5 3.187 6.787 3.558 6.926 5.4 9.759l.377 2.3c5.192 8.415 2.007 1.628 8.683 14.9-1.269-2.268-.777-.616-.281 1.031.457 1.519.917 3.032-.006 1.449 1.319 3.047 2.744 5.979 4.059 8.367-.522-4.19-1.026-8.437-1.528-12.68-.963-8.277-1.912-16.48-2.96-23.98l.418 5.925c-.288-2.929-1.96-12.181-2.062-17.537.167 1.145.553 3.1.631 4.178.378-.209.708-2.5.3-6.932l-.8-1.636.262-1.84c-.383-3.369-.543-2.851-.7-2.331s-.319 1.038-.7-2.333c1.28-4.125-3.119-29.033-2.266-35.024-.886-2.207-.57.95-.24 4.073.333 3.149.679 6.263-.185 3.806a68.32 68.32 0 00-.327-7.414l-.574 1.6c-.943-10.239-1.519-17.248-2.332-23.98-.795-6.732-1.7-13.176-3.4-22.122l.291.693c-.868-6.441-1.683-9.835-2.873-12.58.042-.634.281-.046.516.555.285.731.563 1.481.467.078-2.037-5.475-2.694-11.164-3.292-16.277s-1.141-9.7-2.694-12.861c.878.243.636-3.317.56-6.267-.083-2.92-.237-5.316 1.34-2.411 0 0-.394-1.148-.85-2.3s-1.005-2.291-1.005-2.291c.856.544 2.239 4.31 3.175 8.016 1.083 3.626 2.076 7.615 2.9 8.8 0 0 .609 3.723 1.086 7.435l.91 7.407c.107-.2.318 0 .521.2.335.333.651.667.455-.809.7 3.6 1.336 6.734.988 1.919.974 8.8 2.427 17.617 3.775 26.491 1.37 8.862 2.75 17.747 3.93 26.652 2.22 17.768 4.514 35.421 5.846 52.822.359 2.333.555.948.687.02-.23 6.491 1.208 6.048 1.748 9.526l-.313 9.491c.593 2.6.814 1.946 1 1.384.081-.246.155-.474.249-.4 2.033 15.576 2.8 30.894 4.652 43.909l1.272 5c.178 2.409-.186 2.187-.427 2.12-.293-.025-.328-.012-.2 3.3.187-1.765.3-2.11.5-1.617a6.055 6.055 0 01.281 1.394 10.918 10.918 0 01.064 1.208c-.01.262-.038.555-.068.848a6.033 6.033 0 01-.332 1.223l-2.651 7.254-2.322-7.657c-1.32-4.355-4.038-11.308-4.036-9.956-.921-6.2-8.131-19.4-5.147-17.868-2.83-6.673-3.269-5.116-2.6-3.133a204.771 204.771 0 00-9.49-19.91c-.706-2.2-4.727-10.913-8.768-20.01-2-4.556-4.092-9.182-5.754-13.146-.832-1.981-1.559-3.8-2.131-5.351a41.655 41.655 0 01-.717-2.089c-.1-.368-.177-.717-.24-1.041a5.663 5.663 0 01.119 1.4c-.023.078-.083.041-.176-.092a3.138 3.138 0 01-.261-.416 32.951 32.951 0 00-1.786-3.239s.174.931.269 1.693c.1.778.13 1.39.13 1.39l-1.984-4.578a3.149 3.149 0 01-.542-1.265 6.054 6.054 0 01-.293-1.389 15.213 15.213 0 00-.91-3.077c-1.87-4.227-1.545-2.3-1.669-1.432l.375 1.147-.723-1.37a1.974 1.974 0 01-.105-1.495c.042-.592.078-1.328-1.84-6.092a19.261 19.261 0 01.32 2.379c.026.553-.041.6-1.053-2.557 1.164 3.057-.078-1.264-1.158-4.492 0 0-.539-1.406-1.08-2.811s-1.155-2.833-1.155-2.833l3.455 10.737-.592-1.418a34.451 34.451 0 00-2.188-4.278 5.01 5.01 0 00-.3 3.208c.637 2.1.995 4.457 1.622 7.138.59 2.681 1.247 5.746 2.146 9.079l1.384 5.18 1.909 6.837c-.5-.043.587 4.035 1.654 8.159 1.2 4.63 2.376 9.319 1.26 8.291l-.128-1.037c-1.879-6.339-.626 2.156.9 7.313-.406-2.337.239-1.057.88.229.886 1.778 1.769 3.568-.131-4.143l3.361 10.068c2.116 2.5 3.813 9.381 5.362 17.609s2.916 17.764 4.892 25.549a3.493 3.493 0 00-.645-1.472c.908 3.456 1.684 7.156 2.348 10.811.336 1.828.638 3.643.922 5.413.356 2.237.7 4.415 1.032 6.483 1.512 9.586 2.407 15.987 3.189 18.88a3.72 3.72 0 01-.854-.3c1.383 5.341 2.462 9.5 3.4 13.139.573 2.124.808 3.44 1.132 4.949.3 1.437.579 2.858.8 4.118.181 1.124.338 2.2.476 3.292l.383 3.217.35 3.363c.123 1.117.263 2.2.432 3.35-.227-.751-.878-3.262-.773-2.155.573 2.158 1.12 4.225 1.618 6.343.5 2.136.953 4.253 1.322 6.953a1.8 1.8 0 01-.332.755 1.743 1.743 0 01-.3.282c-.058.041-.129.075-.2.113l-.1.054c-.009 0-.014 0-.019.009s-.017.024-.05-.024l-.16-.211.043-.148a.374.374 0 000-.176c-.012-.077-.028-.145-.022-.129 0-.005 0 0 0 0s-.009.034-.046 0l-.335-.43c-.31-.384-.672-.88-1.078-1.456a38.773 38.773 0 01-2.28-3.756c-.674-1.256-1.228-2.431-1.619-3.29s-.631-1.417-.631-1.417a49.316 49.316 0 00-1.9-6.055 19.276 19.276 0 00-1.394-2.9 63.684 63.684 0 00-1.775-2.947 37.332 37.332 0 01-2.233-3.973 62.963 62.963 0 01-2.693-6.664l-2.332-7.028a45.224 45.224 0 01-1.415-5.557c-.7-.809-2.534-4.864-4.634-9.717l-3.194-7.465c-.47-1.086-.919-2.122-1.33-3.075l-.9-1.963c.082-.072.068-.409-.131-1.231-1.692-2.525-3.16-6.565-4.526-10.735-1.448-4.143-2.812-8.407-4.149-11.425-1.948-3.852-1.613-1.971-1.273-.077-1.784-6.332-6.772-15.425-9.364-20.694.853 7.444.66 15.331 2.125 16.224l.631-.926c1.254 14.92 1.244 6.212 2.625 21.333l-.153-.167c1.126 6.51.715 10.2 2.406 13.2l-.171-2.273c1.31 8.09 1.328 8.831 2.506 17.1a33.846 33.846 0 01.958 6.1c.543.1 1.331 4.9 2.177 10.066.787 5.2 1.641 10.8 1.919 12.64-1.256-6.486-1.159-3.33-1.254-1.411 1.475 3.7 2.016 6.33 2.334 11.749 1.374.553 2.916 1.37 4.731 11.892-.456-1.6-.987-4.143-1.072-3.05a18.2 18.2 0 00.834 4.329c-.043.556-.26-.045-.495-.6-.225-.534-.466-1.025-.586-.412a49.164 49.164 0 012.147 10.036c.231 1.717.427 3.689.724 5.553.315 1.965.787 4.22 1.34 6.847-.961-3.278-.692-.362-.936.914.666.251 1 3.04.936 5.909a31.553 31.553 0 01-.308 3.792 1.076 1.076 0 00.161-.388c.075.386.146.766.218 1.134l-.489.014c-.127.825-.236 1.391-.091 1.459l-5.271.157c-.023-.022-.04-.017-.049.014l5.371-.161c.106 0 .307-.23.615-.761l-.184.854-6.226.185c-1.148-5.081-2.286-10.749-3.627-16.416a147.192 147.192 0 00-2.234-8.418 377.234 377.234 0 00-2.589-8.187c-3.495-10.6-6.854-19.634-7.66-23.522-.257-2.189-3.047-7.2-4.326-10.523l.762.231c-4.587-8.886-3.1-7.094-8.426-17.528 2.462 4.213 2.056 2.217.815-2.529l-4.211-6.934.312-1.808a76.1 76.1 0 01-4.135-9.661 15.068 15.068 0 01-1.517-2.284 55.108 55.108 0 01-.97-1.761c-.008 1.555-.145 3.977-.084 6.291a91.112 91.112 0 00-.826-6.646l.347-.771a42.304 42.304 0 01-.476-1.062c.022.3.033.664.034 1.108l.095.725-.6 1.435 1.619 8.519a34.563 34.563 0 01-.189-3.307c.107 1.39.209 2.676.306 3.922.078.437.156.861.21 1.148a6.732 6.732 0 01-.168-.686 33.3 33.3 0 001.339 6.791c1.166 11.613 6.4 24.976 7.031 37.837a20.714 20.714 0 00-.965-5.26c1.943 10.5 2.61 21.128 4.253 27.7l.627-.589c1.567 7.67 2.688 13.654 3.576 19.856l.851.22c1.093 9.046 5.337 28.321 4.4 34.157.963 2.131 1.476 12.629 2.242 17.851l-.47 1.362c.273 3.343.581 6.037.9 8.391.171 1.174.328 2.265.479 3.311.078.5.157.995.234 1.478a.919.919 0 00.088.331l.061.125.16.442c-.031-.16-.117-.455-.117-.494l-.015-.157a5.268 5.268 0 00.02-.555 2 2 0 00.17.5l.088.116a.561.561 0 01.077.167l.105.27a15.315 15.315 0 01.654 2.245 16.294 16.294 0 01.285 4.605l-.322 4.062.105-4.071a18.659 18.659 0 00-1.051-6.693 22.068 22.068 0 01.495 6.673l-.981 12.4zm.661-9.5c.331.785.643 1.446.94 2.015a4.416 4.416 0 01-.265-1.33l-.063-.653a9.255 9.255 0 00-.912-1.871c-.076.004-.005.508.301 1.843zm-17.926-46.07l-.525-2.61-.091-.189c.366 1.625.614 2.809.616 2.803zm32.627-48.533a49.634 49.634 0 00-.868-6.086 24.375 24.375 0 00.868 6.09zm-.984-9.59c1.022 2.581 1.931 4.42 1.663.619l-.569-1.875c.712 1.641 1.238 2.634 1.184 1.345l-2.326-10.359c.05 1.216.034 3.044.026 5.182.4 1.372.779 2.679 1.116 3.832l-1.12-2.616.026 3.875zm-30.245-54.716a.5.5 0 01.031-.231 1.97 1.97 0 01-.472-.417c.471 1.077.446.894.441.652zm-5.7-10.7l.733 4.171a3.681 3.681 0 01.551-1.368l-.133-.308c-.374-.878-.75-1.747-1.122-2.565a.375.375 0 01-.025.071zm34.493-29.588c-.125-1.481-2.066-4.836-2.957-6.553 1.039 3.139 1.307 4.872 2.961 6.555zm-18.113-21.564l.053.052.452-.112a.79.79 0 01-.031-.058zm6.538-1.62a1.099 1.099 0 00-.03.072l.593-.148c0-.022.006-.044.009-.067zm19.366-43.17c.072-.033.149-.052.177-.124.049-.129-.053-.423-.591-1.263zm-48.79 281.3l-.19-3.817c.321-.282.606 5.426 1.02 7.028zm22.767-17.6c.93.922 1.475 4.51 3.265 8.836a44.393 44.393 0 01-3.261-8.834zm-21.314-.515v.835c-.7-4.1-.918-5.056-.917-5.058a4.459 4.459 0 00.131.46c.087.24.2.416.273.06.253 1.839.4 2.919.509 3.7 0-1.126.118-.517.192.19a4.778 4.778 0 01.05 1.064 5.661 5.661 0 01-.233-1.251zm-2.943-9.516c1.146 5 .753 1.326.577-1.539.859 5.191 1.082 8.026.857 8.026-.186.001-.704-2.063-1.43-6.487zm25.629 3.406l-1.017-3.356-.963-3.369a.8.8 0 01.024-.238c.13-.338.76 1.8 1.3 3.2.651 2.172 1.017 3.875.8 3.875-.034.003-.08-.034-.139-.112zm.188-8.032a14.356 14.356 0 01-.443-2.649c.1-.267 1.144 3.281 1.452 3.72a19.587 19.587 0 01.829 3.64c-.155.001-1.552-4.28-1.833-4.711zm-25.764-3.485a12.449 12.449 0 01.088-2.47c.126-.328.406.57.987 3.5-.444-1.635.188 2.856.091 3.946zm-2.956-5.333l-.29-1.754 2.576 10.741zm2.487 5.79c-.943-1.625-.592-1.758-.525-2.515l1.209 5.472c-.594-2.314-1.082-3.356-.68-2.958zm-1.1-5.092a6 6 0 01.573 2.578zm29.919-1.256l.026.226c-.026.208-.041.348-.046.348s.008-.163.026-.575zm.032.225zm-7.974-10.54l1.224 3.082-1.01.052a12.508 12.508 0 00-.214-3.134zm-26.308-6.281c-.158.1-.314.2-.656-.73a10.764 10.764 0 01-.018-2.762c.269-.695 1.255 3.642 1.919 6.021-.786-2.82-1.019-2.675-1.245-2.529zm.932-6.633a4.359 4.359 0 00.255-1.1 6.271 6.271 0 01.205-.986c.048-.124.1-.178.166-.117-.315.305.089 3.929.223 5.855zm-3.888-.313c.07-.055.174.188.273.43.188.458.359.916.257-.627a18.615 18.615 0 00-.934-4.153 21.982 21.982 0 01.716-5.426 79.413 79.413 0 00.378 9.45l.217.788c.166 1.87.147 2.525.036 2.525a13.563 13.563 0 01-.943-2.987zm0 0c-.046.033-.1.025-.1.387-.198-1.38-.098-1.11.1-.387zm2.634-5.154l1.254 5.467c-.027.045-.055.07-.087.07-.218-.001-.562-1.213-1.167-5.538zm1.254 5.467zm-3.888-.313zm1.709-5.319l-.714-5.9 1.4 6.242c-.427-1.584-.527-.486-.686-.346zm-1.346-4.875c.016-.041.035-.029.055.047l-.106.372a1.93 1.93 0 01.051-.42zm28.524-4.3c.024-.064.057-.085.1-.071a24.623 24.623 0 00.144 3.566 12.538 12.538 0 01-.245-3.498zm-28.515.426l.368.661.256 2.187zm1.007-.523l.075.55a.691.691 0 01-.075-.553zm-.294-2.179l.378-2.265a13.324 13.324 0 01-.084 4.444l-.295-2.182zm13.428-.991a13.921 13.921 0 01-1.117-3.132c.02-.051.085-.012.205.142.062 1.1.8.133 1.2 1.984.919 2.634 1.153 3.572 1.033 3.572a11.127 11.127 0 01-1.322-2.569zm-14.02-3.715c.088.7.3 2.343.592 4.706l-.01.079-.583-4.788zm.592 4.706zm.451-6.213l-.591-2.41 1.561 5.467zm28.653.893l1.843 1.263-1.566.492zm-18.471-4.741c.063.124.036-.094-.078-.6.362 1.3.76 2.642 1.219 4.072zm-.425-1.193c0-.012.114.283.425 1.193a9.591 9.591 0 01-.425-1.192zm-.491-2.662c.476 1.732.721 2.724.838 3.257a79.937 79.937 0 01-.838-3.261zm-11.443.213l.1.56a.058.058 0 01-.032.012c-.076-.003-.084-.261-.069-.575zm-.7-4.178c.251 1.012.545 2.015.788 3.3a6.9 6.9 0 00-.089.874 80.46 80.46 0 01-.698-4.177zm.788 3.3a1.616 1.616 0 01.057-.243c.034-.09.051.041.017.618zm-3.206-4.539l-.331.282.107-4.9.642 4.729.688 4.721c-.339-.633-.675.584-1.105-4.831zm3.206 4.539zm11.946-8.322c.373.925.706 1.671.8 1.538l1.8 6.143a.02.02 0 01-.015.008c-.227.001-1.38-4.039-2.585-7.688zm-13.535-.442a2.322 2.322 0 01-.043-.679c.02-.051.064.006.118.1.2 2.153.47 4.153.727 6.037a24.733 24.733 0 01-.802-5.457zm1.953 3.152a77.752 77.752 0 00-.775-10.776c.628 2.983 1.292 6.149 1.763 9.94-.265-1.193-.338-.454-.428.328-.061.523-.129 1.066-.267 1.066-.074.001-.169-.156-.293-.558zm10.558-2.775a2.153 2.153 0 00.6.793c-.157-.011-.367-.338-.6-.792zm-.758-4.768a49.223 49.223 0 011.782 4.833c-.619-1.532-1.413-3.785-1.782-4.832zm.707 4.671l.05.1-.05-.099zm-12.386-.857c-.309-3.285-.539-6.843-.723-10.25.345 3.15.608 6.016 1.138 8.509.185 1.876.134 2.392.006 2.392s-.302-.436-.42-.65zm4.973-11.217c.254.578.292.329.332.079a.779.779 0 01.065-.253 38.746 38.746 0 001.461 4.921zm-4.842-.751c.409 1.625.715 3.254.972 4.921-.371-1.76-.719-3.367-.971-4.92zm9.807.589l-.473-1.84 1.91 6.125zm-11.386-5c.149 3.769-.153 2.765-.413 1.651-.308-1.324-.556-2.8.079 3.368-.663-4.192-1.044-2.038-1.625-9.081.5-3.57 1.174 2.157 2.03 3.968a104.766 104.766 0 01-.665-10.679s.188 2.8.47 5.612l.619 5.642.02-.264a85.477 85.477 0 01.036-4.393 21.048 21.048 0 01-.036 4.393c.03 1.864.1 3.848.211 5.911a204.157 204.157 0 00-.725-6.127zm.409.631c0 .555.036.389.081-.106-.038-.009-.078-.094-.114-.129.008.062.023.199.034.236zm.092-.1l-.006-.054v.044zm-.426-.629a1.363 1.363 0 00.3.49c-.11-.664-.256-2.056-.311-2.056a8.63 8.63 0 00.012 1.571zm6.128 4.7l.218.556a7.545 7.545 0 01-.217-.551zm-1.6-12.816l-.247-.666c1.5 3.718 2.922 7.006 2.468 7.654-1.71-3.881-3.473-7.777-2.215-6.983zm2.859 4.838l.261-1.622 1.107 3.514zm45.844-2.751c.051-.133.155.046.286.419a1.319 1.319 0 00-.273.884 4.623 4.623 0 01-.007-1.299zm-.846-4.433l.467 5.409c-.267-2.44-.412-4.179-.46-5.401zm-56.825-.886a9.443 9.443 0 01.122-1.784c.126-.327.307 1.641.427 4.131l-.347.243c-.128-.817-.077-1.756-.196-2.587zm6.911-1.741c.015-.039.058-.039.134.007.4 1.135.872 2.293 1.334 3.437a24.43 24.43 0 01-1.462-3.44zm-3.284.053l.11.806s-.032-1.062-.018-2.491l-1.156-2.2.751.193.412 1.445c.014-.823.045-1.73.105-2.606a26.4 26.4 0 01.462-3.564c.03-.14.059-.274.088-.4l-.262-.47a24.493 24.493 0 01-2.435 3.766c-.742.762-1.464.264-1.309-2.618.22-.8.462-1.615.728-2.41l-.425.147c.167-.068.212-.2.351-.244a.529.529 0 01-.284.009l.438-.151q.125-.364.256-.723a2.825 2.825 0 00-.275-.072l.346-.12c.018-.048.035-.095.054-.142a2.392 2.392 0 00-.212-.159l.315-.109-.1.268.1.09 1.09-.376a1.8 1.8 0 00-.162-.3l-.922.318c.113-.289.23-.574.352-.853a2.696 2.696 0 00-.189-.114l.281-.1q.18-.4.372-.793a3.927 3.927 0 00-.217-.091l.318-.11c-.034.067-.068.133-.1.2a3.99 3.99 0 01.715.418l.334-.114c-.047.08-.1.167-.147.259a4.4 4.4 0 01.531.52l.659-.227a6.96 6.96 0 00-.307.461l-.13.044a5.627 5.627 0 00-.222-.278l-.952.328q-.085.194-.17.414l1.345-.464c.019.026.038.051.055.077l.075-.122.712-.246c-.133.343-.237.644-.317.91l1.232-.426-.094.244.337-.116a13.764 13.764 0 00-.341 2.355s-.112-.285-.194-.566l-.175-.58c.109-.372.236-.735.373-1.094l-1.157.4a5.926 5.926 0 01.407 1.1c.485.9.9 1.458 1.112 1.508.334 1.154 0 .711-.323.268-.192-.262-.38-.525-.424-.454l2.835 6.24c-.181.779-1.059-.589-2.033-2.336-.474-.879-1-1.842-1.456-2.692l-.031-.056c-.021.618-.045 1.47-.055 2.661a35.381 35.381 0 00-.707 4.135l.114.4-.13-.247c-.12 1.183-.166 2.318-.188 3.6zm-1.215-11a18.27 18.27 0 00-.465 2.166c-.036 1.546.1 1.475.4.685.091-.235.2-.534.319-.874s.265-.732.421-1.136l-.069-.795-.033-.245zm.817.218c-.038 0-.073.039-.1.1a3.418 3.418 0 00-.039.517c.074-.191.152-.386.233-.581a.139.139 0 00-.086-.039zm-.748-.454l.477-.165a3.488 3.488 0 00-.157-.612 1.625 1.625 0 00-.029-.074c-.093.263-.19.545-.285.857zm41.257-3.037l.718-3.65a31.188 31.188 0 003.921 8.585zM.671 260.29a.3.3 0 01-.045.015zm43.658-7.894l.142.27-.022.1zm-24.084-15.022c-.437-3.79-.671-4.066-.984-4.419-.275-.369-.666-.808-.995-5.108q.07-.211.132-.372c.7-1.811.721.935 1.849 5.636-.34-.973-.166.565.006 2.11a9.38 9.38 0 01.148 2.44c-.031.005-.082-.087-.156-.287zm0-4.262c.14.411.322 1.088.67 2.52a63.11 63.11 0 01-.667-2.516zm58.564 1.123c-.134-.339-.844-2.624-1.032-3.147a31.974 31.974 0 00-.136-.512l-.253-.881a.075.075 0 000-.009.23.23 0 01.01.028c1.105 3.5 1.441 4.57 1.432 4.57a.326.326 0 01-.018-.045zm-2.586-1.616v.039s.003-.013.003-.035zm.024-1.183a14.43 14.43 0 01.088-1.057l.092.291c-.016-.039-.192 1.666-.2 1.948a23.15 23.15 0 01.024-1.178zm2.9-.241c.064.1.13.2.2.332 0 .019.007.051 0 .069zm-1.386-.067a.78.78 0 01-.031-.149c0-.006.019.032.046.108a.379.379 0 01.021.12.26.26 0 01-.033-.074zm.351-1.66s.241.335.5.77.534.956.534.956c-.466-.645-.887-.969-1.031-1.72zm-3.016.574a6.119 6.119 0 01.5.8zm-39.791.3c.045.137.079.26.105.373zm30.641-3.568c.023-.406.51.475 1.264 2.078a.046.046 0 01-.031.011c-.153.011-.542-.639-1.23-2.081zm1.264 2.078zM33.772 226.9a1.9 1.9 0 01.108.171zm38.393-3.873c.134.3.285.663.446 1.1.004.005-.166-.412-.443-1.092zm33.722-10.242c.029.194.052.383.068.563a3.479 3.479 0 01-.065-.555zm-38.138-.661l.478.342c.124.309.156.445.116.445a3.046 3.046 0 01-.591-.779zm-15.71-42.406l.413.316s.337 1.128.608 2.193l.51 2.074a29.253 29.253 0 01-1.528-4.575zm50.1-1.776c.023.238.037.433.04.582zm-2.131-18.44c.01-.025.025-.031.049-.014.005.268.014.622.021.917a3.516 3.516 0 01-.066-.895zm-51.953-46.791q.189.69.383 1.41a70.356 70.356 0 01-.379-1.402zm4.48-20.924l-.277-.731a3.968 3.968 0 01.534 1.02c-.02.008-.099-.077-.253-.281zm37.728-48.694c.584 2.455.857 3.889.974 4.754-.336-1.745-.701-3.61-.97-4.746zm-4.475-21.212l-.267-1.825c-.152-.92-.347-1.862-.347-1.862s.418 1.415.743 2.8.594 2.716.594 2.716zm-4.891-8.954a5.676 5.676 0 00-.851-1.007A5.759 5.759 0 0076.684.267L74.713.04l-.828 1.732-.382.8.18-.907.332-1.672 2.693.046A7.505 7.505 0 0181.091 1.7s.115.536.189 1.044a4.264 4.264 0 01.064.977 3.286 3.286 0 00-.442-.786z" fill="#232323"/></svg>