<svg width="315" height="228" fill="none" xmlns="http://www.w3.org/2000/svg"><path d="M226.13 23.75l-88.36 141.37h176.71L226.13 23.75z" fill="#676767"/><path d="M88.35 23.75L0 165.12h176.71L88.35 23.75z" fill="#676767"/><path d="M162.94 23.75L74.58 165.12H251.3L162.94 23.75z" fill="#323232"/><path d="M109.84 142.69a2.1 2.1 0 01-2.1-2.1V67.14c-4.94 6.47-12.5 8.38-12.61 8.41a2.1 2.1 0 01-.99-4.08c.59-.15 13.6-3.54 13.6-17.35a2.1 2.1 0 114.2 0v86.47a2.1 2.1 0 01-2.1 2.1z" fill="#fff"/><path d="M94.49 129.07c-.27 0-.44-.01-.48-.01a2.098 2.098 0 01.2-4.19c.07.01 6.2.23 10.13-3.53 2.25-2.16 3.4-5.29 3.4-9.32a2.1 2.1 0 114.2 0c0 5.23-1.59 9.39-4.72 12.37-4.57 4.36-10.93 4.68-12.73 4.68zm0-42.97c-.27 0-.44-.01-.48-.01a2.094 2.094 0 01-1.99-2.2 2.104 2.104 0 012.19-1.99c.07.01 6.2.23 10.13-3.53 2.25-2.16 3.4-5.29 3.4-9.32a2.1 2.1 0 114.2 0c0 5.23-1.59 9.39-4.72 12.37-4.57 4.35-10.93 4.68-12.73 4.68z" fill="#fff"/><path d="M94.49 97.1c-.27 0-.44-.01-.48-.01a2.094 2.094 0 01-1.99-2.2c.06-1.15 1.04-2.01 2.19-1.99.07.01 6.2.23 10.13-3.53 2.25-2.16 3.4-5.29 3.4-9.32a2.1 2.1 0 114.2 0c0 5.23-1.59 9.39-4.72 12.37-4.57 4.36-10.93 4.68-12.73 4.68z" fill="#fff"/><path d="M94.49 108.11c-.27 0-.44-.01-.48-.01a2.098 2.098 0 01.2-4.19c.07.01 6.2.23 10.13-3.53 2.25-2.16 3.4-5.29 3.4-9.32a2.1 2.1 0 114.2 0c0 5.23-1.59 9.39-4.72 12.37-4.57 4.36-10.93 4.68-12.73 4.68z" fill="#fff"/><path d="M94.49 119.11c-.27 0-.44-.01-.48-.01a2.094 2.094 0 01-1.99-2.2c.06-1.15 1.04-2.02 2.19-1.99.07.01 6.2.23 10.13-3.53 2.25-2.16 3.4-5.29 3.4-9.32a2.1 2.1 0 114.2 0c0 5.23-1.59 9.39-4.72 12.37-4.57 4.36-10.93 4.68-12.73 4.68z" fill="#fff"/><path d="M110.19 142.69a2.1 2.1 0 01-2.1-2.1V54.12a2.1 2.1 0 114.2 0c0 13.83 13.04 17.22 13.6 17.35 1.12.28 1.81 1.41 1.54 2.53a2.1 2.1 0 01-2.53 1.54c-.11-.03-7.67-1.94-12.61-8.41v73.45c0 1.17-.94 2.11-2.1 2.11z" fill="#fff"/><path d="M125.54 129.07c-1.79 0-8.16-.32-12.72-4.67-3.13-2.98-4.72-7.14-4.72-12.37a2.1 2.1 0 114.2 0c0 4.02 1.14 7.16 3.4 9.32 3.93 3.76 10.06 3.54 10.13 3.53 1.1-.05 2.14.84 2.19 2 .05 1.15-.83 2.13-1.99 2.19-.06-.01-.22 0-.49 0zm0-42.97c-1.79 0-8.16-.32-12.72-4.67-3.13-2.98-4.72-7.14-4.72-12.37a2.1 2.1 0 114.2 0c0 4.02 1.14 7.16 3.4 9.32 3.93 3.76 10.06 3.54 10.13 3.53 1.1-.05 2.14.84 2.19 2 .05 1.15-.83 2.13-1.99 2.19-.06-.01-.22 0-.49 0z" fill="#fff"/><path d="M125.54 97.1c-1.79 0-8.16-.32-12.72-4.67-3.13-2.98-4.72-7.14-4.72-12.37a2.1 2.1 0 114.2 0c0 4.02 1.14 7.16 3.4 9.32 3.93 3.76 10.06 3.53 10.13 3.53 1.1-.05 2.14.84 2.19 2 .05 1.15-.83 2.13-1.99 2.19h-.49z" fill="#fff"/><path d="M125.54 108.11c-1.79 0-8.16-.32-12.72-4.67-3.13-2.98-4.72-7.14-4.72-12.37a2.1 2.1 0 114.2 0c0 4.02 1.14 7.16 3.4 9.32 3.93 3.76 10.06 3.54 10.13 3.53 1.1-.06 2.14.84 2.19 2 .05 1.15-.83 2.13-1.99 2.19-.06-.01-.22 0-.49 0z" fill="#fff"/><path d="M125.54 119.11c-1.79 0-8.16-.32-12.72-4.67-3.13-2.98-4.72-7.14-4.72-12.37a2.1 2.1 0 114.2 0c0 4.02 1.14 7.16 3.4 9.32 3.93 3.76 10.06 3.53 10.13 3.53 1.1-.02 2.14.84 2.19 2 .05 1.15-.83 2.13-1.99 2.19h-.49z" fill="#fff"/><path d="M105.65 142.69a2.1 2.1 0 01-2.1-2.1V67.14c-4.94 6.47-12.5 8.38-12.61 8.41a2.1 2.1 0 01-.99-4.08c.59-.15 13.6-3.54 13.6-17.35a2.1 2.1 0 114.2 0v86.47c-.01 1.16-.94 2.1-2.1 2.1z" fill="#BBD9D0"/><path d="M90.3 129.07c-.27 0-.44-.01-.48-.01a2.098 2.098 0 01.2-4.19c.06.01 6.2.23 10.13-3.53 2.25-2.16 3.4-5.29 3.4-9.32a2.1 2.1 0 114.2 0c0 5.23-1.59 9.39-4.72 12.37-4.57 4.36-10.94 4.68-12.73 4.68zm0-42.97c-.27 0-.44-.01-.48-.01a2.094 2.094 0 01-1.99-2.2 2.104 2.104 0 012.19-1.99c.06.01 6.2.23 10.13-3.53 2.25-2.16 3.4-5.29 3.4-9.32a2.1 2.1 0 114.2 0c0 5.23-1.59 9.39-4.72 12.37-4.57 4.35-10.94 4.68-12.73 4.68z" fill="#BBD9D0"/><path d="M90.3 97.1c-.27 0-.44-.01-.48-.01a2.094 2.094 0 01-1.99-2.2c.06-1.15 1.04-2.01 2.19-1.99.06.01 6.2.23 10.13-3.53 2.25-2.16 3.4-5.29 3.4-9.32a2.1 2.1 0 114.2 0c0 5.23-1.59 9.39-4.72 12.37-4.57 4.36-10.94 4.68-12.73 4.68z" fill="#BBD9D0"/><path d="M90.3 108.11c-.27 0-.44-.01-.48-.01a2.098 2.098 0 01.2-4.19c.06.01 6.2.23 10.13-3.53 2.25-2.16 3.4-5.29 3.4-9.32a2.1 2.1 0 114.2 0c0 5.23-1.59 9.39-4.72 12.37-4.57 4.36-10.94 4.68-12.73 4.68z" fill="#BBD9D0"/><path d="M90.3 119.11c-.27 0-.44-.01-.48-.01a2.094 2.094 0 01-1.99-2.2c.06-1.15 1.04-2.02 2.19-1.99.06.01 6.2.23 10.13-3.53 2.25-2.16 3.4-5.29 3.4-9.32a2.1 2.1 0 114.2 0c0 5.23-1.59 9.39-4.72 12.37-4.57 4.36-10.94 4.68-12.73 4.68z" fill="#BBD9D0"/><path d="M106 142.69a2.1 2.1 0 01-2.1-2.1V54.12a2.1 2.1 0 114.2 0c0 13.83 13.04 17.22 13.6 17.35 1.12.28 1.81 1.41 1.54 2.53a2.1 2.1 0 01-2.53 1.54c-.11-.03-7.67-1.94-12.61-8.41v73.45c-.01 1.17-.95 2.11-2.1 2.11z" fill="#BBD9D0"/><path d="M121.34 129.07c-1.79 0-8.16-.32-12.72-4.67-3.13-2.98-4.72-7.14-4.72-12.37a2.1 2.1 0 114.2 0c0 4.02 1.14 7.16 3.4 9.32 3.93 3.76 10.07 3.54 10.13 3.53 1.09-.05 2.13.84 2.19 2 .05 1.15-.83 2.13-1.99 2.19-.05-.01-.22 0-.49 0zm0-42.97c-1.79 0-8.16-.32-12.72-4.67-3.13-2.98-4.72-7.14-4.72-12.37a2.1 2.1 0 114.2 0c0 4.02 1.14 7.16 3.4 9.32 3.93 3.76 10.07 3.54 10.13 3.53 1.09-.05 2.13.84 2.19 2 .05 1.15-.83 2.13-1.99 2.19-.05-.01-.22 0-.49 0z" fill="#BBD9D0"/><path d="M121.34 97.1c-1.79 0-8.16-.32-12.72-4.67-3.13-2.98-4.72-7.14-4.72-12.37a2.1 2.1 0 114.2 0c0 4.02 1.14 7.16 3.4 9.32 3.93 3.76 10.07 3.53 10.13 3.53 1.09-.05 2.13.84 2.19 2 .05 1.15-.83 2.13-1.99 2.19h-.49z" fill="#BBD9D0"/><path d="M121.34 108.11c-1.79 0-8.16-.32-12.72-4.67-3.13-2.98-4.72-7.14-4.72-12.37a2.1 2.1 0 114.2 0c0 4.02 1.14 7.16 3.4 9.32 3.93 3.76 10.07 3.54 10.13 3.53 1.09-.06 2.13.84 2.19 2 .05 1.15-.83 2.13-1.99 2.19-.05-.01-.22 0-.49 0z" fill="#BBD9D0"/><path d="M121.34 119.11c-1.79 0-8.16-.32-12.72-4.67-3.13-2.98-4.72-7.14-4.72-12.37a2.1 2.1 0 114.2 0c0 4.02 1.14 7.16 3.4 9.32 3.93 3.76 10.07 3.53 10.13 3.53 1.09-.02 2.13.84 2.19 2 .05 1.15-.83 2.13-1.99 2.19h-.49z" fill="#BBD9D0"/><path d="M153.2 143.72c-1.18 0-2.14-.96-2.14-2.14V103.4c-4 4.95-9.37 5.76-9.46 5.77-1.16.16-2.25-.66-2.4-1.83-.16-1.17.66-2.24 1.82-2.4.45-.07 10.04-1.69 10.04-15.5 0-1.18.96-2.14 2.14-2.14 1.18 0 2.14.96 2.14 2.14v52.14c0 1.18-.96 2.14-2.14 2.14z" fill="#fff"/><path d="M137.57 122.02c-.28 0-.44-.01-.49-.01a2.136 2.136 0 01-2.03-2.24c.06-1.18 1.05-2.06 2.23-2.03.07 0 6.32.24 10.32-3.59 2.3-2.2 3.46-5.39 3.46-9.49 0-1.18.96-2.14 2.14-2.14 1.18 0 2.14.96 2.14 2.14 0 5.33-1.62 9.57-4.81 12.6-4.65 4.43-11.13 4.76-12.96 4.76z" fill="#fff"/><path d="M137.57 133.23c-.28 0-.44-.01-.49-.01a2.136 2.136 0 01-2.03-2.24c.06-1.18 1.05-2.05 2.23-2.03.07.01 6.32.23 10.32-3.59 2.3-2.2 3.46-5.39 3.46-9.49 0-1.18.96-2.14 2.14-2.14 1.18 0 2.14.96 2.14 2.14 0 5.33-1.62 9.57-4.81 12.6-4.65 4.43-11.13 4.76-12.96 4.76z" fill="#fff"/><path d="M153.56 143.72c-1.18 0-2.14-.96-2.14-2.14V89.44c0-1.18.96-2.14 2.14-2.14 1.18 0 2.14.96 2.14 2.14 0 14 10.22 16.5 10.65 16.6 1.14.26 1.87 1.4 1.61 2.55a2.12 2.12 0 01-2.53 1.62c-.09-.02-5.65-1.31-9.74-6.66v38.03c0 1.18-.95 2.14-2.13 2.14z" fill="#fff"/><path d="M169.19 122.02c-1.83 0-8.31-.33-12.96-4.75-3.19-3.04-4.81-7.28-4.81-12.6 0-1.18.96-2.14 2.14-2.14 1.18 0 2.14.96 2.14 2.14 0 4.1 1.16 7.29 3.46 9.49 4 3.83 10.26 3.6 10.32 3.59 1.12-.05 2.18.86 2.23 2.03.06 1.18-.85 2.17-2.02 2.23-.05 0-.22.01-.5.01z" fill="#fff"/><path d="M169.19 133.23c-1.83 0-8.31-.33-12.96-4.75-3.19-3.04-4.81-7.28-4.81-12.6 0-1.18.96-2.14 2.14-2.14 1.18 0 2.14.96 2.14 2.14 0 4.1 1.16 7.29 3.46 9.49 4 3.83 10.26 3.6 10.32 3.59 1.12-.06 2.18.86 2.23 2.03.06 1.18-.85 2.17-2.02 2.23-.05 0-.22.01-.5.01z" fill="#fff"/><path d="M148.93 143.72c-1.18 0-2.14-.96-2.14-2.14V103.4c-4 4.95-9.37 5.76-9.46 5.77-1.16.16-2.24-.66-2.4-1.83-.16-1.17.66-2.24 1.82-2.4.45-.07 10.04-1.69 10.04-15.5 0-1.18.96-2.14 2.14-2.14 1.18 0 2.14.96 2.14 2.14v52.14c0 1.18-.96 2.14-2.14 2.14z" fill="#BBD9D0"/><path d="M133.3 122.02c-.28 0-.44-.01-.49-.01a2.136 2.136 0 01-2.03-2.24c.06-1.18 1.06-2.06 2.23-2.03.06 0 6.32.24 10.32-3.59 2.3-2.2 3.46-5.39 3.46-9.49 0-1.18.96-2.14 2.14-2.14 1.18 0 2.14.96 2.14 2.14 0 5.33-1.62 9.57-4.81 12.6-4.65 4.43-11.14 4.76-12.96 4.76z" fill="#BBD9D0"/><path d="M133.3 133.23c-.28 0-.44-.01-.49-.01a2.136 2.136 0 01-2.03-2.24c.06-1.18 1.06-2.05 2.23-2.03.06.01 6.32.23 10.32-3.59 2.3-2.2 3.46-5.39 3.46-9.49 0-1.18.96-2.14 2.14-2.14 1.18 0 2.14.96 2.14 2.14 0 5.33-1.62 9.57-4.81 12.6-4.65 4.43-11.14 4.76-12.96 4.76z" fill="#BBD9D0"/><path d="M149.29 143.72c-1.18 0-2.14-.96-2.14-2.14V89.44c0-1.18.96-2.14 2.14-2.14 1.18 0 2.14.96 2.14 2.14 0 14 10.22 16.5 10.65 16.6 1.14.26 1.87 1.4 1.61 2.55a2.12 2.12 0 01-2.53 1.62c-.09-.02-5.65-1.31-9.74-6.66v38.03c0 1.18-.95 2.14-2.13 2.14z" fill="#BBD9D0"/><path d="M164.92 122.02c-1.83 0-8.31-.33-12.96-4.75-3.19-3.04-4.81-7.28-4.81-12.6 0-1.18.96-2.14 2.14-2.14 1.18 0 2.14.96 2.14 2.14 0 4.1 1.16 7.29 3.46 9.49 4 3.83 10.25 3.6 10.32 3.59 1.11-.05 2.17.86 2.23 2.03.06 1.18-.85 2.17-2.02 2.23-.05 0-.22.01-.5.01z" fill="#BBD9D0"/><path d="M164.92 133.23c-1.83 0-8.31-.33-12.96-4.75-3.19-3.04-4.81-7.28-4.81-12.6 0-1.18.96-2.14 2.14-2.14 1.18 0 2.14.96 2.14 2.14 0 4.1 1.16 7.29 3.46 9.49 4 3.83 10.25 3.6 10.32 3.59 1.11-.06 2.17.86 2.23 2.03.06 1.18-.85 2.17-2.02 2.23-.05 0-.22.01-.5.01zm-13.29-52.61c-.55 0-1.1-.21-1.52-.63a2.16 2.16 0 010-3.05l11.65-11.65-3.28-2.3c-.5-.35-.83-.9-.9-1.5-.08-.61.11-1.22.51-1.68l14.54-16.7a2.154 2.154 0 113.25 2.83l-12.97 14.89 3.43 2.4c.52.37.85.94.91 1.58.05.63-.17 1.26-.62 1.71l-13.47 13.47c-.43.42-.98.63-1.53.63z" fill="#BBD9D0"/><path d="M251.225 146.38H74.505c-.91 0-1.75-.49-2.19-1.29-.44-.79-.42-1.77.07-2.54l8.86-14.17a2.496 2.496 0 013.45-.79c1.17.73 1.53 2.27.79 3.45l-6.47 10.34h167.69L162.855 7.23l-34.98 55.96a2.496 2.496 0 01-3.45.79 2.496 2.496 0 01-.79-3.45l37.1-59.36a2.504 2.504 0 014.24 0l88.36 141.37c.48.77.51 1.74.07 2.54-.44.81-1.27 1.3-2.18 1.3zM77.95 161.66h-8.86v-5.17H93.1v5.17h-8.83v24h-6.31v-24h-.01zm30.29 12.32v11.68h-6.16v-29.17h12.82c6.36 0 9.78 3.5 9.78 8.01 0 3.92-2.13 6.03-4.24 6.9 1.44.53 3.62 2.04 3.62 7.26v1.44c0 1.96.02 4.2.42 5.56h-5.98c-.51-1.27-.61-3.45-.61-6.55v-.43c0-3.19-.81-4.7-5.51-4.7h-4.14zm0-5.02h5.29c3.45 0 4.79-1.31 4.79-3.75 0-2.37-1.55-3.7-4.64-3.7h-5.44v7.45zm33.11 9.96l-2.28 6.74h-6.2l9.91-29.17h7.92l10.33 29.17h-6.63l-2.4-6.74h-10.65zm9.3-5.17c-2.07-6.16-3.39-10.09-4.1-12.71h-.04c-.72 2.88-2.18 7.45-3.84 12.71h7.98zm23.65 11.91l-10.29-29.17h6.78l4.34 13.47c1.32 4.08 2.32 7.54 2.99 10.52h.08c.6-2.72 1.73-6.29 3.12-10.42l4.55-13.57h6.44l-10.57 29.17h-7.44zm46.69-12.58h-13.95v7.41h15.39l-.75 5.17h-20.76v-29.17h20.68v5.17h-14.56v6.25h13.95v5.17zm11.03-16.59h6.31v24h14.53l-.72 5.17h-20.12v-29.17zm-90.26 56.01c-.86.31-2.56.82-4.57.82-2.25 0-4.1-.57-5.56-1.96-1.28-1.24-2.07-3.22-2.07-5.54.02-4.43 3.07-7.68 8.05-7.68 1.72 0 3.07.38 3.71.68l-.46 1.57c-.79-.35-1.79-.64-3.29-.64-3.62 0-5.98 2.25-5.98 5.98 0 3.77 2.27 6 5.74 6 1.26 0 2.12-.18 2.56-.4v-4.44h-3.02v-1.54h4.9v7.15h-.01zm7.5-14.21v8.8c0 3.33 1.48 4.74 3.46 4.74 2.21 0 3.62-1.46 3.62-4.74v-8.8h1.94v8.67c0 4.57-2.4 6.44-5.63 6.44-3.04 0-5.34-1.74-5.34-6.35v-8.76h1.95zm16.93 0v14.87h-1.92v-14.87h1.92zm6 .2c1.17-.18 2.56-.31 4.08-.31 2.76 0 4.72.64 6.02 1.85 1.32 1.21 2.1 2.93 2.1 5.34 0 2.43-.75 4.41-2.14 5.78-1.39 1.39-3.69 2.14-6.58 2.14-1.37 0-2.52-.07-3.49-.18v-14.62h.01zm1.92 13.15c.49.09 1.19.11 1.94.11 4.1 0 6.33-2.29 6.33-6.31.02-3.51-1.96-5.74-6.02-5.74-.99 0-1.74.09-2.25.2v11.74zm23.13-5.45h-5.78v5.36h6.44v1.61h-8.36v-14.87h8.03v1.61h-6.11v4.7h5.78v1.59zm-.48 21.21h-66.04c-.97 0-1.75-.78-1.75-1.75s.78-1.75 1.75-1.75h66.04c.97 0 1.75.78 1.75 1.75s-.78 1.75-1.75 1.75z" fill="#BBD9D0"/></svg>