<svg xmlns="http://www.w3.org/2000/svg" width="699.451" height="161.396" viewBox="0 0 699.451 161.396">
  <path id="Color_Overlay" data-name="Color Overlay" d="M-97.868,4658.287a9.581,9.581,0,0,0,3.277-1.764,9.634,9.634,0,0,1-3.249,2.093Zm-.657-6.942c.021,0,.043,0,.065.007l-.028-.329a25.8,25.8,0,0,0,4.567-.8s.7.272,1.443.506,1.509.459,1.509.459a68.744,68.744,0,0,1-7.207.194c-.1-.008-.191-.016-.284-.027l.592,6.936-.06.018Zm589.209,4.117c-1.569-.118-3.14-.248-4.7-.37a2.508,2.508,0,0,0,1.778-.345c-2.628-.65-4.622-1.15-5.639-1.3-.885-.465-1.848-.914-2.869-1.346-4.588-.1-6.6.544-3.316,1.383-20.018-4.585-15.295-2.985-32.031-7.563-6.309-1.011.206,2.129,4.792,3.138a286.436,286.436,0,0,1-29.315-5.529c23.595,3.879,7.213-2.955,11.935-3.5,0,0-12.83-1.034-25.664-2.384-12.836-1.32-25.656-2.87-25.656-2.87,1.77.06,6.136-.809,5.905-1.092-4.582.761-61.781-12.565-89.672-19.334l4.2.968c5.792.747-18.15-5.33-28.131-6.99,1.741.049,3.989.672,8.206,1.627-18.411-5.54-24.822-3.039-43.564-8.693,17.253,3.939,20.786,4.085,20.059,3.213-14.28-2.647-47.026-10.265-40.556-6.823-9.019-2.341-17.28-3.711-16.289-4.56l-17.593-2.866-17.613-2.688c2.646.272,5.009.1-5.223-1.908,19.606,3.786,38.939,5.752,48.985,9.17.761-1.108-6.471-3.269,3.123-2.371-18.964-3.634-33.77-5.764-46.841-7.351s-24.414-2.635-36.513-3.9l-16.686-3.148-16.71-3.054-1.5.345-5.626-2.289a73.226,73.226,0,0,1-7.823-.693c-.748-.237.339-.272,2.031-.23-3.548-.456-6.785-.8-8.475-.9-1.215-.932,4.853-.929,11.315-.745l-2.866-.7c3.472.314,6.782.617,9.7.883l-6.83-.186,9.139,2.173c6.684.3,11.562.31,2.448-1.576l-4.757-.412c4.292.1,6.947.078,3.876-.614L69.9,4566.888c2.9.621,7.208,1.663,12.247,2.875-16.249-1.465-34.808-2.935-20.547.072l-9.145-1.7.47.158-13.94-2.317L37.9,4565.9c33.233,7.685,32.334,4.191,47.809,9.819-11.98-2.349-26.512-4.379-19.572-2.359l17.5,2.61c.837.3-.841.055-2.44-.188-2.162-.328-4.18-.643.358.437l19.827,2.412-.248.03,28.43,5.829c-3.374-.622-3.483-.318,1.343.748l20.632,3.689c-6.338-1.014,0,.734,9.15,2.886a166.854,166.854,0,0,0,23.291,3.908c4.688.481,8.635.911,18.659,4.208-2.961-.8-3.477-.786-6.479-1.571l10.322,3.305c1.458-1.04,16.872,3.112,32.105,7.642,7.624,2.244,15.222,4.531,21.1,6.121,5.839,1.575,9.981,2.4,10.726,1.909,14.308,5.212.846,1.091-18.307-3.483l15.341,5.453c-6.326-1.749-11.565-3.6-18.44-5.409,20.093,7.5,39.81,11.3,51.23,13.86,7.774,2.7-6.758.057,15.819,6.358,15.939,4.789,14.368,3.879,11.614,2.438-2.952-1.471-7.377-3.394,2.032-.463l6.655,2.9c3.416,1.5,6.864,3.348,6.864,3.348a46.406,46.406,0,0,1,8,3.948l12.1,7.563-14.254,2.335a18.214,18.214,0,0,1-5.71-.032c-1.576-.237-2.972-.555-4.216-.841l-1.734-.387-.745-.143-.913-.144q-1.845-.291-3.657-.58c-4.826-.779-9.471-1.584-14.042-2.4l-27.3-4.915a82.625,82.625,0,0,0-8.3-.906c-22.294-4.08-47.119-5.817-63.937-8.7,4,.282-9.52-2.26-11.508-2.881l-5.763-.617,3.246,3.449-6.331.5c-1.855.146-2.4.068-.074-.4l-.009,0,0,0h0v0h0l.016-.053-.027,0c-5.619.858-10.525.094-14.949.022-2.1-.062-4.355.036-6.436.057l-5.873.119,1.345-.061c-18.477-.521-25.869-1.168-32.955-1.424-7.083-.312-13.748-.409-30.529-.02l3.336.458c-10.971.311-22.821.272-34.947-.384-12.137-.609-24.61-1.682-37.051-2.755-8.112-.692-16.242-1.363-24.3-1.984q1.636.333,3.251.669l10.847,2.354c3.5.786,7.073,1.467,10.77,2.2,7.363,1.528,15.351,3.015,23.8,7.017l7.85,3.718-8.388,2.267a29.113,29.113,0,0,1-7.951.681c-.633-.006-1.28-.008-1.938-.012l-1.961.027c-1.4.015-2.828.033-4.287.048l1.809-.216c-16.082-.207-24.608-.137-31.68.844-3.311-.4,8.131-.8,1.949-1.1a392.388,392.388,0,0,1-40.653,1.611c-12.632-.04-23.926.109-32.378,1.637,1.041-1.051-7.612-1.3-14.653-1.521s-12.459-.5-4.9-2.006l-5.724.688c-1.4.158-2.958.375-4.042.565l-1.812.333a11.55,11.55,0,0,1,2.647-.788c1.332-.282,2.947-.488,4.753-.717,3.648-.45,8.243-.9,12.929-1.33,9.371-.871,19.113-1.587,22.391-2.46,0,0,9.125-.282,18.253-.327l18.185-.082c-1.167-.434,4.781-1.37-1.067-1.308,8.98-.376,16.842-.691,5.032-.969,10.667,0,21.4,0,32.162.27,3.975.083,7.9.119,11.846.153l-.346-.07-10.263-1.966-10.275-2.093c-13.617-2.709-27.344-4.911-41.09-6.82-12.78-1.743-25.631-3.334-38.379-4.767-1.228-.063-2.4-.127-3.489-.2.459-.008.972-.017,1.519-.023l-.9-.1q-4.719-.507-9.428-.938l-1.769.346-4.426-.536c-8.364.073-7.162.287-5.917.58,1.223.249,2.5.614-5.987.478-2.223-.552-7.187-.94-13.8-1.845l.053-.448h-.007l.762-6.473h.008l.053-.448a65.147,65.147,0,0,0,10.395.443c2.579-.016,5.345-.031,8.264.1,4.393.263,8.9.617,13.381,1.035,2.78-.206.089-.537-1.8-.762,9.6.635,13.175.289,16.435-.056a54.675,54.675,0,0,1,7.462-.406l11.5,1.407,11.473,1.5c9.387.028,2.116-.941,2.814-1.254,21.838,1.113,43.31,3.152,63.711,5.174,20.375,2.071,39.666,3.782,57.174,3.485,4.721.316,4.977.62,4.809.888-.231.368-1.264.668,7.285.84-10.038-.945.717-1.1,12.448-1.263,5.031-.08,10.249-.069,14.059-.093-9.178-1.469-28.71-4.215-48.823-7.119-24.154-3.516-49.184-6.942-58.177-9.019,8.3,1.926,4.87,1.477-1.942.745-3.234-.348-7.23-.76-11.092-1.01l10.618,2.4-26.915-3.184c-2.757-.252-4.519-.439-5.59-.57s-1.442-.213-1.424-.263c-4.568-.579,1.162-.534-10.423-2.163-18.353-2.221-19.323-1.729-29.491-2.39l2.784.524-12.467-1.478c-3.527-.456.484-.12,5.052.215,7.3.537,16.021,1.073-2.317-1.621-.475.278-18.251-.525-26.155-2.515,15.245,2.194,13.432,1.108,7.871,0l-10.678-1.543-10.666-1.615,6.837,2.5q-4.684-.707-9.387-1.417c-3.039-.471-6.146-.852-9.317-1.263s-6.4-.849-9.675-1.451c-.81-.157-1.619-.295-2.584-.529l-.464-.116q-3.025-.13-6.133-.272l.408-10.13c.566-.028,1.141-.034,1.7-.007-.553-.007-1.124.019-1.7.068l-.4,10.008q2.278-.019,4.528-.107l-.388-.109a19.688,19.688,0,0,0-2.359-.555l-1.7-.071.334-8.317a19.139,19.139,0,0,1,4.693.413l.241.053c4.585.344,9.26.5,14,.663,6.29.2,12.687.518,19.039,1,12.725.941,25.465,2.422,38.22,4.168,25.465,3.66,51.083,7.5,77.1,10.913-1.07,1.213,46.246,6.1,40.117,7.176l-2.49-.493c-16.077-1.863,4.469,2.094,17.577,3.463-5.745-.957-2.223-.906,1.262-.857,4.764.068,9.456.136-9.72-2.368l25.8,2.208c7.352-.91,24.435.983,44.714,3.705,20.242,2.761,43.458,6.543,62.983,8.741a15.376,15.376,0,0,0-3.863-.1c34.751,3.729,77.25,12.5,85.326,13.246l2.908,1.481c8.046.895,14.175,1.579,19.539,2.229-5.765-1.6-13.2-3.735-23.734-6.792l1.041-.026-18.345-5.1c-9.188-2.551-18.356-5.312-18.356-5.312.578-1.4-15.143-5.8-32.285-10.353-17.139-4.613-35.76-8.913-40.932-11.782-1.858-.215-4.941-.738-8.72-1.412l-12.932-2.326c-9.276-1.732-19.153-3.576-25.235-4.714.082.216-1.716.015-5.87-.705-.837-.394,1.595-.049,5.87.705-.056-.143-.786-.439-2.77-1.007-7.315-.707-17.6-3.019-28.04-5.555-10.413-2.648-21.12-4.951-29.082-6.406-10.458-1.561-6.068-.206-1.646,1.155-20.273-5.125-56.943-9.2-64.329-11.143-15.017-2.945-5.383-2.2-9.377-3.643-9.662-1.685-10.39-1.279-10.479-.82-.118.6.875,1.3-16.051-2.576,3.511.521,9.973,1.623,7.51.978-11.41-2.374-31.22-9.746-42.749-11.112l7.435,1.917c-5.424-.809-11.313-1.929-17.138-3.084a25.467,25.467,0,0,1-5.635-.02c.519-.11,1.537-.324-1.52-.651l-12.6-.159c-5.03-.83,11.584.35-2.49-1.382l-17.843-.993.158-1.778-.03,0,.458-5.195.033,0,.158-1.781a315.9,315.9,0,0,1,40.91,5.234c14.243,2.371,11.379,1.347,7.866.268-3.552-1.092-7.766-2.238,4.369.014a53.544,53.544,0,0,0,8.949,3.2c6.564.91,11.5,1.574,16.262,1.258l-5.508-.905c19.989,2.421,21.715,2.886,41.98,5.685,2.4.179,12.225,1.284,15.011,2,1.1-1.18,47.143,5.945,56.149,7.414-16.07-2.158-8.55-.507-4.071.672,9.6.35,16.145,1.2,29.1,3.962,2.116-1.269,5-2.648,30.8,1.482-4.035-.418-10.324-1.314-7.806-.566a85.516,85.516,0,0,0,10.67,1.6c1.17.347-.007.291-1.319.235-1.508-.064-3.2-.128-1.7.421,17.668,1.419,30.1,4.965,55.327,9.256-8.068-1.051-1.259.547,1.494,1.666,1.053-.664,8.151,1.022,14.743,2.665,7.928,1.977,15.124,3.892,10.183,1.583,48.794,11.435,123.864,28.248,142.489,34.122,4.962,1.847,18.757,3.99,27.244,5.932l-1.338.5c12.021,2.061,16.664,2.945,21.836,3.95,5.171.98,10.864,2.132,25,4.219-11.773-1.421-7.043.02,4.521,3.048l3.659.374c-3.691-1.493-8.924-3.773-13.853-5.866,4.272,1.645,9.354,3.458,16.088,5.516l-2.975-2c-7.759-2.336-15.611-4.891-20.765-6.628,2.3.872,4.921,1.955,7.653,3.11-3.237-1.28-6.225-2.464-9.125-3.609-1.039-.361-2.053-.712-2.737-.948.486.137,1.049.311,1.671.52-4.605-1.812-9.4-3.575-16.168-5.544-26.27-10.519-60.17-18.1-89.34-28.881,4.419,1.525,10.7,3.532,12.5,3.73-24.886-7.606-49.464-15.652-65.648-18.819l.924,1.151c-18.614-4.172-33.063-7.1-48.084-10.42l-1.041.816c-21.741-5.146-69.172-12.933-82.247-17.565-5.517-.258-30.353-6.083-42.916-8.11l-3.037-1.352c-16.261-3.25-26.393-4.782-36.192-6.275l4.471,1a223.416,223.416,0,0,1-24.632-4.292c7.608,1.37,13.9,2.335,20.161,3.3C8.914,4532-22.1,4528.565-51.188,4523.985l-.239-.265-29.587-4.008c7.831.485-5.882-.416-14.717-1.91-9.444-1.022-24.637-3.361-35.655-5.254l-9.411-1.18-9.413-1.109c20.989,1.887-1.352-1.307-2.458-2.3l-12.13-.519c-4.822-.9,7.843.056-1.05-1-2.407-.107-6.2-.319-10.609-.623l.2-2.406h0l.015-.182.043-.512-.043.512h0l-.015.184a10,10,0,0,0,2.364-.109c-.806-.028-1.6-.054-2.349-.075l.043-.512h0l.081-.954-.043.512.043-.512.015-.182-.015.182,1.135.037c16.946,1.84,40.9,4.622,62.064,7.636,21.17,2.977,39.578,5.924,45.528,7.322-6.83-1.377-19.506-3.032-25.579-3.567l15.711,2.885c-12.826-1.9-22.793-4.541-41.811-6.725,3.085,1.2-10.795.411,3.447,3.417a294.672,294.672,0,0,0,33.925,4.407c8.471.659,17.86,1.4,39.7,4.917,4.066.4-9.308-.177,13.955,3.049,29.3,3.861,50.94,5.838,51.174,4.146-12.352-1.639-37.074-4.693-40.655-6.5,12.351,1.477,33.582,4.734,34.8,4.152,6.186,1.756.505.91-4.769.1-5.349-.824-10.279-1.613-1.991.384,8.612,1.43,12.378,1.59,16.428,2.053-5.829-.409,7.556,2.307,10.066,3.082,27.862,4.921,43.774,8.451,73.549,14.246-.989-.326-1.311-.421.547.107l-.547-.107c1.546.5,4.729,1.575,3.8,1.752,14.63,2.4,35.774,4.445,30.519,2.5,17.064,3.335,17.84,4.183,32.425,6.753-13.8-3.589-9.339-2.448-3.012-1.149,4.174.857,9.162,1.781,10.254,1.46,14.862,2.918,5.046,1.723,11.8,3.457,2.493.37,8.492,1.189,8.96.912-1.6-.526-4.022-1.229-8.405-2.3,6.733,1.487,8.694,2.114,8.405,2.3,4.286,1.423.192,1.215-4.015,1.006-4.5-.222-9.14-.445-3.742,1.338,3.622,1.156,13.3,3.757,22.33,6.23,9.02,2.489,17.4,4.8,18.523,5.114,7.262.528,6.336-4.6-3.886-8.549,1.3-.533,13.79,4.083,20.214,5.769,18.374,5.863,28.751,6.322,44.048,11.208l-11.957-2.624c2.484.947,25.254,7.112,28.948,7.808.156.207-1.349.107-3.053.008-3.1-.182-6.862-.363-2.433,1.315,27.453,8.441,54.062,14.751,52.8,12.891,0,0-10.593-3.065-21.186-6.133l-21.255-5.914c-.559-.8,6.868,1.231,14.336,3.261,7.593,2.065,15.228,4.133,14.558,3.242,0,0,9.619,3.247,19.235,6.5,9.6,3.305,19.189,6.613,19.189,6.613-4.877-1.621-19.83-6.246-14.187-3.722,16.548,5.46,8.514,3.043,19.365,7.265-19.375-5.134-55.264-13-68.206-15.108l20.14,5.58,4.768,2.234c26.165,7.54,50.874,11.384,58.042,12.627,14.728,5.341,8.77,5.833,5.088,5.07a215.037,215.037,0,0,0,29.54,8.254c3.753.8,7.51,1.6,12.166,2.79,4.632,1.161,10.318,2.806,17.629,5.348l-10.953-4.148c3.569,1,11.624,3.8,18.42,6.041s12.416,3.806,11.128,3.215c1.886.752,3.718,1.556,5.062,2.245l.637.071a50.639,50.639,0,0,1,8.3,1.6l-1.83,7.135C498.6,4657.3,494.279,4656.326,490.684,4655.461Zm-45.253-14.017,2.958.27c-1.539-.412-3.173-.863-4.864-1.343C444.276,4640.766,444.927,4641.131,445.431,4641.444Zm-5.093-.5,1.507.154c-.235-.086-.479-.179-.734-.273l-1.789-.562Zm-457.017-11.473c-.189-.021-.412-.041-.665-.063-.371-.03-.809-.062-1.308-.093Zm160.2-.787c-.271-.047-.628-.1-1.079-.154C142.788,4628.585,143.147,4628.636,143.521,4628.687Zm-15.42-6c.222-.115.154-.308-3.9-.979l-1.189-.127c.448.235-.5.267-4.707-.165C122.337,4621.958,125.513,4622.369,128.1,4622.685ZM-2.41,4611.024c2.68.02,5.386.075-4.205-.732Zm-23.338-5.95-1.838-.246C-26.909,4604.926-26.289,4605.008-25.747,4605.075Zm143.068-28.009c-5.474-1.12-10.441-1.954-14.848-2.544A119.658,119.658,0,0,0,117.32,4577.065Zm-70.465-8.975c-2.817-1.026-10.117-2-15.093-2.676l-1.374-.11C37.669,4566.994,41.561,4568.182,46.855,4568.091Zm-12.606-2.481c-.545-.041-1.07-.084-1.577-.124C33.361,4565.562,33.88,4565.6,34.249,4565.61Zm-150.529-51.687-.5-.024C-109.593,4515.078-105.921,4515.736-116.28,4513.922ZM485.67,4655.07l-.2-.019.509.04Q485.835,4655.084,485.67,4655.07Zm-9.733-1.589.926.213Q476.343,4653.585,475.936,4653.481Zm-542.02-6.93-4.6.693-8.482.149Zm346.971-.016c-1.117-.094-3.27-.378-7.271-1l8.085.352c-.623.164,1.008.68-.116.68C281.419,4646.572,281.192,4646.561,280.888,4646.536Zm.814-.643a2.853,2.853,0,0,1,.763-.058l.73.124Zm-287.984-1.943c-4.361.2-8.986.418-11.82.552C-11.979,4644.126-8.411,4643.974-6.282,4643.949Zm424.931-.53-.2-.114.933.222Zm-22.918-4.284,15.695.133,7.023,4.036A161.454,161.454,0,0,0,395.731,4639.136Zm46.921-7.9c-1.385-.117-6.584-1.838-14.192-4.056,2.4.592-1.166-.732-4.687-2.051-3.46-1.3-6.882-2.591-4.57-2.06,8.464,3.186,9.317,3.2,10.3,3.219,1.012.022,2.163.056,11.8,3.536,1.614.994,2.048,1.418,1.484,1.418Q442.726,4631.247,442.652,4631.241Zm-131.088-1.33c-1.418-.119-6.318-2.224-13.966-4.5,4.749,1.3,9.827,2.62,14.266,4,.218.352.151.508-.184.508C311.644,4629.917,311.6,4629.915,311.563,4629.911Zm-374.632-2.441c-.21-.017-.295-.045-.216-.087l2.2.11c-.31,0-.6,0-.857,0C-62.44,4627.5-62.834,4627.49-63.069,4627.47Zm485.515-2,6.013,1.71C427.454,4626.933,425.843,4626.5,422.446,4625.474Zm-129.26-1.3q2.336.617,4.411,1.239C296.084,4625,294.6,4624.584,293.186,4624.173Zm228.956-30.884a9.756,9.756,0,0,1-.98-.142,17.733,17.733,0,0,1-2.258-.625l-1.209-.415c-.163-.053-.333-.1-.516-.164l-.171-.042h-.037l0-.015h0a.629.629,0,0,1,.016-.078l-.012.063c0-.007.005-.015,0,0l.02-.046.039-.125a1.094,1.094,0,0,1,.119-.308c.105-.079.232-.158.739-.041.535.106,1.311.454,3.187,1.086-.062-.078.316.06.769.239a4.966,4.966,0,0,1,1.131.51c.053.066-.1.124-.456.124C522.42,4593.306,522.291,4593.3,522.143,4593.289ZM516.978,4591.875Zm-352.04-1.441,2.978.659,2.346,1.672Zm352.057,1.357,0,.017A.085.085,0,0,1,516.995,4591.791Zm.016-.082-.016.082Zm.02-.106-.02.106Zm.018-.091-.018.091Zm.037-.188-.037.188C517.061,4591.451,517.073,4591.388,517.086,4591.323Zm-365.543-2.4c1.52.239,3.592.6,6.8,1.211Zm-21.976-4.437c.787.146,1.751.341,2.871.588ZM103,4578.8c-.4-.034-.953-.092-1.615-.169l1.276-.127c1.058.232,1.283.33.916.33C103.45,4578.828,103.255,4578.817,103,4578.8Zm-41.4-8.96,13.012,2.457C68.7,4571.239,64.517,4570.453,61.6,4569.835Zm12.1,1.369a4.667,4.667,0,0,0,1.921.814C71.772,4571.275,71.838,4571.1,73.7,4571.2Zm144.127-3,4.256.931-4.086,1.2Zm204.71-.335,14.125,1.251-1.733.089Zm-28.451-4.419c-15.742-2.774-39.754-4.542-47.937-7.162,13.476,2.338,38.547,5.163,57.789,7.746l-7.292.113Zm-43.513-4.61L341.4,4557.1c-.507-.525,13.208,2.075,17.232,2.412Zm-52.714-12.194.1.009c.513.048,2.664.234,1.342-.219l9.027,1.328c-3.253-.721-.291-.288,1.675.063,1.686.3,2.639.538-1.675-.063.616.135.921.2,1.977.428C300.6,4546.936,298.035,4546.661,297.855,4546.643Zm.224,1.273c-2.487-.209-7.049-.737-13.839-1.7,12.423,1.343,3.533-.117-3.306-1.536,11.765,1.762,18.505,2.806,19.327,3.219.187.08.076.123-.343.123C299.548,4548.021,298.937,4547.988,298.079,4547.916Zm-.234-1.274h0Zm0,0ZM250.892,4542l-4.308-.657,26.8,3.088Zm17.216.776c-2.086-.175-2.867-.24-2.138-.391-4.368.174-4.484-.31-6.229-.821l13.581,1.7C271.131,4543.024,269.378,4542.878,268.108,4542.771Zm-2.951-1.2c-7.09-1.665-9.634-2.4,3.026-.675-4.1-.407,6.83,1.4,9.344,2.128Zm-11.826-.8a28.054,28.054,0,0,1,6.409.792ZM206.5,4536.4c-13.945-2.489-3.191-1.561,5.192-.832,1.29.113,2.525.22,3.6.311-7.09-.561-6.925-.221-6.705.119.135.21.291.419-1.2.419C207.144,4536.419,206.851,4536.413,206.5,4536.4Zm-16.029-.413c.058.07.012.125.871.309-3.388-.435-2.693-.422-.871-.309-.1-.12.622-.118,1.288-.117,1.146,0,2.13.007-1.477-.609a77.94,77.94,0,0,0-10.4-.851,112.027,112.027,0,0,1-12.747-3.3c3.219.682,14.063,2.551,22.917,3.9l1.993.126c6.169,1,6.821,1.282,5.421,1.282C196.05,4536.419,192.5,4536.124,190.476,4535.988ZM.419,4532.041c2.838-.266,11.015,1.859,21.21,4.106C15.668,4535.092,8.9,4533.79.419,4532.041Zm192.855-.516c.4.238-.087.324-2.563.116-2.092-.175-5.606-.559-11.215-1.233l13.777,1.118c-.872-.516-5.765-1.608-4.953-1.819.572.516,9.481,1.813,14.151,2.654Zm-21.916-.979-7.287-.84,7.866.5,7.864.562c-4.018-.215-1.428.41-1.167.666Zm-4.971.306c.255.088.505.174.758.26C166.281,4530.929,165.967,4530.832,166.386,4530.853Zm-5.9-1.356-3.582-.168,1.764-.2,5.405.581Zm-3.666-1.452a4.84,4.84,0,0,1-.718-.133l1.361.113a3.491,3.491,0,0,1-.428.029C156.958,4528.054,156.887,4528.051,156.817,4528.045Zm-6.119-.588.188.042c-6.785-.6-10.348-.914-11.844-1.045,1.74.148,5.8.5,11.655,1l-5.318-1.3c7.676.833,9.676,1.48,10.72,1.75Zm-48.3-.815.568.5-11.855-1.722,23.435,1.5c-.971.121-.442.433-2.367.433C110.767,4527.346,108.03,4527.177,102.4,4526.642Zm-132.272-3.388c-2.543-.739,3.751.121,7.835.536,6.318.866,10.888,1.834,9.112,1.892Zm147.6,1.539c-.26-.022-.62-.075-1.016-.14l1.4.065c.054.06-.017.085-.173.085C117.888,4524.8,117.816,4524.8,117.733,4524.792Zm-11.458-.711c2.56.022,5.114.019,8.349.162-.85-.2-1.1-.313.941.039-.341-.014-.625-.027-.941-.039.552.128,1.323.284,2.093.409C113.641,4524.527,110.094,4524.327,106.275,4524.081Zm23.443.414,13.955.075-7.844.064Zm-33.086-.835c-1.207-.1-2.518-.227-3.962-.383-2.019-.124-1.915-.2-1.388-.272q-1.2-.1-2.414-.2c-7.452-.624-15.2-1.349-22.709-2.116,7.784.579,14.674,1.11,21,1.255,8.938.7,5.3.888,4.126,1.063,5.333.428,10.3.78,14.993,1.077C103.513,4524.06,100.651,4524,96.632,4523.66Zm-74.733-1.5c-8.988-.8-2.877-.749,5.829-.186l.528.486C26.231,4522.447,23.95,4522.186,21.9,4522.164Zm52.59-2.723c7.3.145,15.4.306,24.857.978-6.117-.142,7.5,1.38,1.7,1.489C90.446,4520.56,82.225,4519.823,74.489,4519.441ZM55.8,4521.558c-2.483.081-4.694.162-15.311-.672-8.652-1.592,5.6-.878,10.289-1.329-13.214-1.042-20.667-1.4-26.607-1.956l14.071.713,14.074.9-.642-.106c4.582.5,9.443,1.033,14.488,1.583-4.685-.348-9.649-.708-15.173-1.015,10.2,1.083,6.077,1.045,3.068,1.008-2.966-.036-4.856-.072,9.077.962C59.075,4521.457,57.38,4521.508,55.8,4521.558Zm-5.023-2.006a4.984,4.984,0,0,0,1.291-.221c-1.451-.061-4.292-.254-4.983-.254C46.557,4519.077,47.272,4519.188,50.774,4519.552Zm1.641-.32c-.03.042-.254.065-.351.1l.587.029c1.36.174.966.077-.236-.129l.028-.012-.131-.009Zm-72.183,1.858c-1.094-.092-3.043-.305-5.032-.521-2.88-.314-5.843-.634-6.426-.6-10.4-1.82-6.19-1.355-1.749-.871,2.182.237,4.418.48,5,.458,7.685,1.2,9.671,1.585,8.975,1.585C-19.143,4521.136-19.409,4521.119-19.767,4521.089Zm17.623-.646c-14.153-1.876-30.661-2.541-31.836-1.866-4.623-.614,1.468-.441,1.173-.693l-16.746-1.03c-2-.926,5.027-.709,11.581-.539s12.642.312,8.751-.512c9.218,1.184,5.721,1.627,24.81,2.67,12.188.187-14.651-2.383-19.636-3.271,14.405.694,14.43.344,14.888.04l-1.212-.248,1.512.123a2.987,2.987,0,0,0-.3.125c11.366,2.232,19.981,5.238,9.269,5.238C-.565,4520.48-1.314,4520.469-2.144,4520.444Zm64.391-1.347c4.086.006,8.134.143,12.242.344C70.121,4519.351,66.112,4519.274,62.247,4519.1Zm-21.4-1.351c1.169-.128,7.65.827,10.821,1.357C47.793,4518.647,44.1,4518.192,40.85,4517.747Zm-22.612-.452,2.033.02-29.133-2.2c.7-.218,2.759-.342,12.628-.018,8.846,1.256,13.657,1.9,20.4,2.5Zm-97.663-4.45.994.415L-87.365,4512l5.558-.153,1.975.824,7.267.673-.7,1.149A56.271,56.271,0,0,0-79.424,4512.845Zm56,1.062,13.582-.216-3.165.668Zm-40.793-1.36c1.606.14,3.166.25,4.529.344,3.192.219,5.314.347,4.483.584Zm-21.785-2.884,2.248.188c9.575.8,18.334,1.538,15.553,2.281l1.722.2C-76.234,4511.39-85,4510.593-86.006,4509.662Zm35.846,1.255,8.029.287-1.193.688Zm-57.752-4.027,14.06,2.544a46.388,46.388,0,0,1-6-.189c-5.061-.424-11.347-1.39-17.32-2.33-6.755-1.065-13.112-2.094-16.85-2.268A148.354,148.354,0,0,1-115.4,4507.1l-3.467-1.581c-20.166-2.868-36.423-3.624-50.89-4.3,9.128,1.112-1.535.363-6.345.359l.2-2.406c10.314.637,23.78,1.811,29.116,1.728a73.371,73.371,0,0,0-7.63-1.409c-1.03-.046-.969-.053-.307-.047l-.83-.132c.394.05.557.073,1.016.132,1.034.016,2.659.03,3.353-.018-1.666-.2-3.412-.4-5.637-.654,5.753.426,6.467.594,5.637.654,15.08,1.781,9.573.856,9.088.38,16.106,3.1,25.619,3.462,37.535,6.214-5.109-1.328,4.477-.164,14.4,1.029,10.373,1.246,21.116,2.523,15.841,1.021,12.524,2.863,8.661,1.052,16.661,3.131C-75.454,4508.939-93.426,4507.974-107.911,4506.89Zm-7.421,1.98,10.99,1.384,4.581.761Zm-43.477.41c-3-.016-8.606-.253-11.444-.491-1.591-.133-2.311-.268-1.21-.364a2.5,2.5,0,0,0,2.065-.147c.5-.2,1.264-.371,3.5-.049,10.135.79,10.407,1.052,7.433,1.052Zm33.9-2.441c-2.814-.236-6.664-.668-10.671-1.129,4.031.324,9.86.962,12.567,1.267C-123.567,4506.946-124.2,4506.9-124.9,4506.84Zm-14.889-1.252-15.577-1.918c-.339-.334,10.192.922,19.8,2.042C-138.018,4505.509-140.011,4505.4-139.794,4505.587Zm27.333-2.075,12.371,1.257c-1.993-.152-.1.339.133.558C-103.338,4504.769-105.716,4504.268-112.461,4503.512Zm12.371,1.257c.378.029.893.08,1.584.16Zm-34.142-.131a9.867,9.867,0,0,0-2.615.131A6.894,6.894,0,0,1-134.232,4504.638Zm.16.006.049,0Zm-29.718-6.4c3.036.349,5.824.712,8.238,1.058C-159.956,4498.742-162.459,4498.419-163.79,4498.249Zm-8.955-.9,7.506.629c-.346,0,.184.1,1.449.272C-166.65,4497.926-169.607,4497.619-172.744,4497.347Zm7.761.651-.255-.022c.678,0,3.257.235,3.115.242h-.008C-162.243,4498.218-163.015,4498.163-164.983,4498Zm-9.276-.779,1.515.127Z" transform="translate(176.455 -4497.22)" fill="#e9e7e7"/>
</svg>
