<svg xmlns="http://www.w3.org/2000/svg" width="507.464" height="168.764" viewBox="0 0 507.464 168.764">
  <path id="Color_Overlay" data-name="Color Overlay" d="M321.7,1031.326c.22.175.272.116.355.07.188-.1.537-.14,3.316,2.7l-.283.44C324.4,1033.933,323.313,1032.912,321.7,1031.326Zm3.672,2.771,3.7-5.746-.108-.04c.031.032-.049.009-.185-.047-.626-.256-2.416-1.193.574-.352l-.282.438.1.038-3.724,5.785Zm29.922-6.148c-1.483-.266-3.773-.735-6.993-1.408,2.093.384.344-.073-2.224-.7-2.552-.6-5.931-1.4-7.222-1.707,0,0,.783.123,1.959.306,1.161.185,2.715.455,4.279.746l6.3,1.211a53.021,53.021,0,0,1,6.094,1.844c-.006.013-.041.02-.106.02A17.285,17.285,0,0,1,355.3,1027.949Zm1.679-.927,3.34.621,3.367.573A36.093,36.093,0,0,1,356.978,1027.022Zm9.352.6c-2.651-.349-6.16-.928-9.619-1.587-3.436-.666-6.871-1.33-9.449-1.828l-4.253-.774,3.568.624c2.158.409,5.035.95,7.913,1.493,2.894.546,5.814,1.062,8.02,1.4s3.688.533,3.688.533l2.28.342,2.3.294S368.982,1027.979,366.33,1027.624Zm-16.342-2c-3.434-.7-6.823-1.32-6.893-1.333,5.846,1,8.673,1.389,7.468,1.416a18.335,18.335,0,0,1,6.415,1.312Zm-6.894-1.333h0Zm-27.725-4.989a.2.2,0,0,1-.036-.013l-.012,0c-.6-.247,4.677.2,16.56,2.084-12.793-1.693-3.6-.125,3.446,1.321C323.224,1020.684,316.238,1019.633,315.368,1019.306Zm-8.27-.211c2.808.528,1.178.334-.626.068-1.186-.175-2.447-.38-2.57-.43a28.93,28.93,0,0,1,3.2.362l-2.058-.375c15.614,1.988,13.344,1.608,11.743,1.5-.66-.043-1.206-.041-.338.193C311.814,1019.721,309.081,1019.36,307.1,1019.1Zm92.141-2.48c1.585.26,3.062.491,4.491.816-2.128-.236-4.276-.47-6.423-.706-2.211-.28-4.417-.588-6.594-.914-4.355-.653-8.6-1.379-12.548-2.088,7.961,1.187,14.533,2.083,21.074,2.891-17.264-3.014-33.966-5.657-50.1-7.494-16.162-1.967-31.693-3.73-46.959-5.7l-.264-.2-30.783-3.905c8.1.638-6.091-.534-15.279-1.882-6.42-.68-15.469-1.755-24.187-2.862q2.074.4,4.081.77c-2.061-.3-4.175-.633-6.755-1.112-3.612-.466-7.112-.93-10.283-1.366L199.072,990.8c14.515,1.23,9.122.4,3.5-.52a44.825,44.825,0,0,1-6.149-1.213l-12.611-.751c-2.219-.364-.9-.346.477-.305,1.747.053,3.586.142-1.595-.459-8.443-.478-33.31-3.094-41.147-3.363,1.205.3,4.207.806,7.919,1.338,1.066.075,1,.078.32.048l.859.129c-.408-.054-.576-.076-1.053-.138-1.067-.054-2.745-.13-3.462-.123,1.724.209,3.534.426,5.837.7-5.951-.541-6.691-.694-5.837-.7-12.289-1.518-11.382-1.29-10.184-.94a3.817,3.817,0,0,1,.784.277c-16.7-2.894-26.637-3.836-38.92-6.729,5.064,1.3-4.165-.174-14.062-1.664-10.931-1.678-22.705-2.927-17.106-1.662-4.721-.913-7.2-1.227-8.8-1.409l.076-.361-.044,0,1.3-6.21.041.013.076-.362a26.125,26.125,0,0,0,2.85.779l4.816,1.153a44.156,44.156,0,0,1-7.742-1.57l-1.3,6.2c15.5,1.326,30.649,3.128,43.3,4.7l-14.527-2.875c4.851.139,13.035,1.559,21.118,3,8.078,1.455,16.1,2.8,20.5,3.13A176.673,176.673,0,0,1,109,978.061l3.558,1.368c20.946,3.32,37.759,4.333,52.73,5.487-7.438-.927-2.2-.526,2.87-.192,4.51.3,8.889.54,4.106-.251l-11.136-1.048c-3.79-.637,1.3-.306,6.729.056-7.607-2.05,6.486.263,11.233.563l-27.3-4.957,14.468,2.387,14.438,2.533c-.212-.054-.393-.1-.652-.167l7.753,1.665c4.234.464,8.671.94,13.217,1.427-3.54-.568-6.865-1.1-10.094-1.616,3.555.49,7.072,1.059,10.617,1.672,11.818,1.261,24.366,2.587,36.1,3.961,22.046,2.534,41.171,5.512,47.39,6.7-7.124-1.242-20.281-2.92-26.581-3.484l16.367,2.636c-13.331-1.859-23.756-4.106-43.537-6.03,1.256.358-.112.455-1.413.578a8.141,8.141,0,0,0-1.543.232l.561.109c-.226-.036-.425-.067-.6-.093-.189.081-.2.184.105.323.345.1.737.212,1.133.326l.493.141c1.077.242,2.692.546,5.027.932,37.593,5.3,31.09,2.739,76.523,8.921,2.114.17-.294.108-.2.333.049.113.724.3,2.906.624s5.849.823,11.9,1.53c15.234,1.7,28.47,2.953,37.919,3.636,9.437.816,15.07,1.009,15.125.4-12.8-1.641-38.557-4.121-42.367-5.542l22.466,2.424c7.308.736,13.1,1.482,13.711,1.25,6.53,1.466.5.668-5.013-.078s-10.539-1.334-1.911.241c7.6,1.082,11.543,1.41,15.126,1.75l-27.179-6.888c1.019.351,1.346.455-.563-.141l.563.141c-1.589-.544-4.87-1.687-3.929-1.714-15.019-3.353-36.7-7.04-31.272-5.078-17.528-4.245-18.34-4.981-33.345-8.2,14.981,4.118,9.1,2.5,2.081.875-4.048-.936-8.474-1.871-9.49-1.7-9.178-1.922-9.239-2.137-9.32-2.361-.054-.148-.117-.3-2.934-.974-2.58-.4-8.787-1.3-9.247-1.118-4.6-1.283-.088-.882,4.338-.511,4.542.379,9,.724,3.462-.819-5.662-1.535-25.391-6.1-36.034-8.546-4.089-.446-7.715-.868-10.785-1.265-2.167.967.7,3.688,8.733,6.117-1.283.334-14.445-3.481-21.181-4.875-13.775-3.383-23.117-4.6-33.187-6.268-12.768-1-13.7-1.364-37.663-3.32,12.32.765,7.242-.13-5.015-2.144l-20.42-1.325-3.829-1.376c-8.284-.724-17.438-2.047-26.594-3.458-3.8-.077-12.511-1.06-21.308-2.2-10.324-1.328-20.724-3.052-23.566-3.185a126.776,126.776,0,0,0-16.2-3.108c-2.879-.437-5.656-.835-8.167-1.262a32.6,32.6,0,0,1-6.374-1.634,43.874,43.874,0,0,1-7.233-1.858l1.518-5.135c.941.142,2.325.365,3.774.521C-1.2,935.435-2.51,934.861-2.4,934.7c.12-.186,1.594.143,5.474.709l1.849.165-1.492-.46-1.467-.487c-.535-.4,1.832.007,5.72.441,3.883.455,9.349.837,14.653,1.308-4.819-.363-10.429-.345-17.414-.8l1.691.482,1.714.457c4.1.147,8.312.129,12.253.217,3.965.086,7.547.317,10.384.514l-8.629-.869c3.689.261,7,.629,10.252.992l3.021.26-1.828-.12c5.144.591,10.444,1.2,17.771,1.859,7.292,1.157,14.98,2.281,22.914,3.355L98.9,945.956c16.582,2.271,33.5,4.937,49.3,8.617-4.761-1.043-11.526-2.324-13.386-2.4,17.4,3.052,34.571,6.829,49.1,9.854l.855.029c-.167,0-.354.016-.556.033,3.168.659,6.21,1.282,9.1,1.852,6.52.545,14.724,1.314,23.579,2.174,19.432,1.831,42.023,3.89,56.848,5.425l-4.46-.415c-6.048-.155,19.441,2.629,29.925,3.2a81.651,81.651,0,0,1-8.663-.643c17.207,2.457,24.107,1.089,38.913,2.7l-6.877-1.508c-23.9-3.364-19.738-2.834-48.8-7.146-.66-.272.41-.233,1.426-.194,1.338.05,2.582.1-.346-.556-21.283-2.53-51.322-10-56.1-9.741-9.618-1.428-10.719-1.34-11.772-1.253-.821.068-1.613.137-6.393-.514.536-.029,1.592-.087-1.562-.617l-13.014-1.358c-2.148-.46-.455-.294,1.226-.134,2.369.226,4.713.441-3.769-1.118-24.956-3.471-39.621-5.446-60.35-9.214-15.5-2.473-11.37-1.386-7.492-.4,3.53.9,6.851,1.707-5.051-.334-3.576-1.213-6.687-2.438-22.281-5.184-8.3-1.02-7.287-.363-21.3-2.562l1.042-.755c-12.926-2.249-23.268-3.821-23.252-4.526-4-.521-7.53-1.016-10.666-1.481-2.311-.2-4.736-.42-7.2-.659-2.708-.258-5.465-.535-8.169-.817.855.2,1.831.412,2.884.639,6.564,1.414,16.126,3.406,18.379,3.974-15.451-3.124-27.128-4.621-36.785-6.306L.35,924.284c.116.15-1.775.056-6.155-.488-.91-.3,1.645-.006,6.155.488a12.767,12.767,0,0,0-2.982-.708c-4.792-.287-10.8-1.208-17.258-2.1-2.051-.121-3.848-.231-5.658-.4-1.225-.111-2.456-.247-3.777-.427l-2.059-.307-1.1-.181c-.344-.062-.843-.14-1.028-.193l-.073-.025h.005l-.211-.023c-1.112-.084-2.408-.231-3.757-.418l.695.02c-1.581-.229-3.142-.491-4.677-.761-.463-.012-.931-.028-1.4-.051-.589-.03-1.177-.068-1.811-.145a10.261,10.261,0,0,1-1.031-.171,6.09,6.09,0,0,1-.674-.192c-.06-.028-.121-.052-.185-.076a3.23,3.23,0,0,1-1.119-.72l-6.454-5.756,8.854,1.052c3.469.413,6.189.688,8,.8l-.246.024s2.011.29,4.99.536c1.438.119,3.317.194,5.3.367,1.24.1,2.531.227,3.836.365,2.72.017-.735-.588-4.218-1.2,10.8,1.536,25.8,2.472,39.033,4.005,13.235,1.417,24.708,2.931,28.595,3.754,8.2,1.418,9.392,1.85,9.263,2.111l.128,0a129.353,129.353,0,0,1,19.607,1.5c-3.143-.292-3.661-.232-6.837-.536l11.064,1.394c1.255-.861,17.614.471,34.009,1.651s32.808,2.336,34.1,1.479c15.865,2.087,1.026.482-19.4-.056l16.852,1.825c-6.874-.459-12.6-1.013-19.955-1.374,11.039,1.237,21.813,1.949,31.334,2.55,9.518.528,17.768.988,23.792,1.323,3.173.424,3,.636,2.826.853-.28.357-.537.724,14.506,2.084,18.875,1.841,14.884.981,11.068.192-3.067-.634-6.022-1.222,3.087-.326l14.671,2.67c7.978.671,15.324,1.418,22.3,2.2-5.057-.934-10.534-1.915-18.179-3.226l3.669-.055-17.032-3.337,13.957,1.973c-16.223-3.679-17.767-3.735-19.791-3.8-2.015-.086-4.5-.228-22.46-4.489l.054-.7c-13.91-2.863-18.922-2.8-29.488-6.044-5.791-1.12-2.458-.157.775.764,4.323,1.232,8.466,2.391-9.615-1.595-5.492-1.607-17.405-4.5-26.475-6.6-9.551-1.762,5.431,1.949,12.663,3.512-18.294-3.872-26.522-6.021-32.426-7.718q-2.67-.285-5.342-.552c-11.442-2-95.552-12.411-115.161-16.475,5.895,1.244,5.56,1.317,2.23.923l-16.216-2.051,5.54,1.273,5.53,1.179s-1.745-.243-4.361-.6c-2.634-.382-6.142-.934-9.637-1.529-6.991-1.189-13.928-2.581-13.928-2.581-2.838-.511-4.646-.868-5.745-1.1a6.171,6.171,0,0,1-1.46-.373A6.974,6.974,0,0,1-63,887a11.631,11.631,0,0,0-1.993-.463c-1.2-.235-3.086-.4-6.284-1.066-.578-.114-1.143-.252-1.656-.391-.248.022-.5.046-.742.071l.035-.273c-.454-.137-.834-.264-1.1-.358l.6-4.554q.591-.053,1.157-.089l.032-.248c.214.073.431.142.65.206a68.936,68.936,0,0,1,8.261.076c2.6.162,4.568.216,6.385.272,3.608.075,6.432.134,11.32.239l-2.907-.331,12.97.85c4.021.3-1.376.059-6.617-.114-7.176-.236-14.058-.354,3.9,1.177.234-.1,4.968-.1,10.686.172a141.84,141.84,0,0,1,16.568,1.592c-15.924-1.727-13.975-.852-8.141-.071,0,0,5.579.562,11.144,1.231l11.12,1.4-7.219-1.975c31.977,3.814,64.167,10.423,96.62,17.623q12.031,2.681,24.158,5.385c3.573.193,5.6.363,28.277,3.031-6.554-.664-2.256.119,2.021.894,3.944.715,7.871,1.422,3.261.983,10.349,1.435,20.488,2.64,28.108,3.344l-1.387-.11c37.814,5.4,30.785,5.574,65.233,10.062l-3.369-.817c9.947,1.266,20.461,2.589,31.326,3.8s22.108,2.354,33.454,3.456l22.6,2.109c-2.224-.722-4.869-1.561-7.965-2.494l-4.316-.672-2.115-.8-2.119-.772a44.86,44.86,0,0,0-6.468-1.279c-.6-.038,0,.175.591.388,1.17.458,2.4.773-5.99-.641-2.389-.8-8.158-1.814-15.781-3.038-1.893-.318-3.939-.633-6.06-1.058-2.1-.41-4.286-.865-6.517-1.373s-4.547-1.069-6.794-1.661c-.541-.158-1.063-.243-1.617-.36l-1.73-.343-3.49-.651c-2.336-.417-4.688-.8-7.03-1.148l-3.558-.506-3.473-.734-13.082-2.82c-8.139-1.784-14.752-3.377-18.317-4.491-5.855-.661,2.116,1.078,9.967,2.773,7.888,1.677,15.644,3.311,9.207,2.5-5.134-1.253-7.455-1.933-18.4-4.364l3.639,1.473c-12.749-2.821-23.508-5.194-33.216-7.185-9.689-2.017-18.386-3.547-26.923-5.107L97.654,889.618l1.867.187c-16.229-3.167-25.058-4.459-32.442-5.029-1.509-.388.065-.251,1.666-.1,1.947.18,3.934.377.475-.331-14.519-1.442-28.853-3.79-41.829-5.763S2.8,875.014-6.089,874.9c1.038-.495-5.441-1.714-11.838-2.9-8.392-1.558-16.644-3.058-7.616-2.79l-11.877-.994c2.039-.26,11.607.675,21.449,1.61,9.532.905,19.321,1.812,22.776,1.632,0,0,9.391,1.153,18.742,2.515s18.675,2.894,18.675,2.894c-1.135-.5,5.086-.152-.912-1.109,9.253,1.254,17.32,2.436,5.288.175,22.277,3.742,44.6,7.892,66.941,12.182,5.581,1.112,11.18,2.056,16.78,3.037l16.806,2.905c11.2,1.942,22.439,3.734,33.641,5.927,11.192,2.151,22.321,4.492,33.414,6.821q8.292,1.72,16.564,3.437L241,911.958l4.124.859,4.169.6q4.226.629,8.419,1.406l4.212.823c1.51.326,2.8.716,4.156,1.031,5.408,1.318,10.786,2.437,16.281,3.232,5.5.85,11.049,1.607,16.59,2.567,2.773.484,5.524.988,8.311,1.638,2.767.649,5.477,1.417,8.152,2.219,5.806,1.6,2.58.326.408-.525,7.752,2.716,11.5,3.705,14.408,4.234,2.9.51,4.936.695,9.157,1.406,0,0,1.393.354,3.49.72l3.775.6c1.415.237,2.925.516,4.429.833a77.118,77.118,0,0,1,8.207,2.175c1.1.368,2.019.7,2.653.953l.959.377c4.68,1.3,5.445,1.607,4.873,1.133-.541-.434-2.21-1.2-1.814-1.188.931.323,1.881.678,2.863,1.127a12.078,12.078,0,0,1,3.138,1.976l5.686,5.045-7.64.18a16.469,16.469,0,0,1-4.9-.77c-.665-.183-1.285-.361-1.822-.48s-1.221-.247-1.835-.352c-2.515-.437-5.107-.7-7.742-.934s-5.345-.427-8.015-.7l-7.923-.783c-10.527-1.072-20.885-2.128-30.99-3.155-20.208-2.117-39.4-4.3-56.89-6.358-5.292-.957-5.112-1.16-4.847-1.329.312-.2.743-.35-7.49-1.621,10.263,2.14-.879.734-12.926-1.015-11.149-1.611-23.073-3.443-19.631-2.522-7.483-1.773-20.327-3.928-30.785-5.521-3.272-.484-6.308-.943-8.868-1.362l25.229,5.727c-.555.348,11.254,3.018,22.432,5.487,11.174,2.492,21.726,4.717,18.571,4.775l-2.549-.651c-16.467-3.291,4.535,2.133,18.017,4.47-5.866-1.294-2.312-.9,1.252-.5,4.917.548,9.851,1.1-9.913-2.754l13.243,2.186c6.63,1.019,13.262,2.034,13.262,2.034,3.712-.012,9.837.714,17.582,1.8,7.761,1.119,17.054,2.506,27.282,3.862,10.222,1.4,21.245,2.822,32.315,4.778,1.978.365,3.947.759,5.9,1.166l.385.031c5.28.405,10.312,1.031,14.582,1.513-1.813-.075-.205.175,2.6.657a41.064,41.064,0,0,1,4.8,1.117,22.1,22.1,0,0,1,4.4,1.841l-.431.816.118.06-2.729,5.18c-.04-.019-.08-.036-.121-.055l-.425.807a2.706,2.706,0,0,0-.515-.311,8.028,8.028,0,0,0-.947-.2c-.709-.136-1.795-.2-3.664-.528l-10.819-2.3c-1.126-.233-2.25-.462-3.351-.68l-6.4-.661L319,955.678c-16.424-1.52-29.359-3.257-33.481-3.47l-3.127-1.054c-30.9-2.255-34.554-2.7-71.168-7.293.116-.014.444-.011.8-.006,1.147.013,2.584.026-1.832-.585-8.882-.435-17.8-.989-42.892-3.593l1.048-.123s-9.824-.934-19.653-1.719l-19.678-1.476c.214-1.042-15.035-1.892-32.361-2.943A174.391,174.391,0,0,0,114.33,936.9l-7.79-1.7c21.844,3.085,51.214,10.22,54.952,9.315l-1.93-1.014c37.38,6.975,15.957,2.288,53.865,9.256l-.492.036c16.61,2.575,25.443,4.915,33.746,5.177l-5.675-1.1c20.579,3.353,22.409,3.745,43.323,7.426,2.473.333,12.612,1.944,15.49,2.705.553-.365,12.712,1.7,25.879,4.178,6.576,1.234,13.444,2.577,19.221,3.949,5.776,1.34,10.464,2.759,12.706,3.415-8.138-2.275-10.423-2.545-9.96-2.3.438.274,3.512,1.227,5.779,2.06,1.837.367,3.554.739,5.218,1.111.654-.079.544-.268-.552-.6,9.6,1.223,18.284,1.868,17.382,2.518l5.772.417,8.379.535h.058a120.535,120.535,0,0,1,12.147.787c1.767.123,3.418.247,4.87.365l5.822.524a8.4,8.4,0,0,0-2.366.013q2.259.258,4.788.559c-1.324-.1-2.893-.237-4.327-.366.785.187,2.646.486,6.221,1.03.439.031.817.056,1.112.074,1.332.269-.208.2-1.675.168-1.435-.034-2.8-.041-1.345.321,2.49.141,4.886.279,7.233.414q.9.055,1.8.111a20.158,20.158,0,0,1,2.055.27l1.785.355.773.148.61.1a1.274,1.274,0,0,0,.241.009l.413-.03a5.819,5.819,0,0,1,2.872.521l-.511,1.045.036.016-1.888,3.86c-.006.026-.013.064-.02.114-.021.132-.018.14-.02.128l-.025.005-.109.014-.465.952a19.367,19.367,0,0,0-4.432-1.417c-.327-.053-.643-.1-.952-.134-1.061-.121-2.559-.129-3.922-.217-2.767-.144-5.539-.333-8.339-.553L394.6,988.961c-2.159-.293-4.381-.608-6.341-.817-1.994-.209-3.89-.341-5.536-.453l-5.548-.4-1.552.3s-1.56-.385-3.108-.836-3.072-.995-3.072-.995c-2.21-.309-4-.611-5.362-.877-3.559-.4-5.066-.443-1.807.433-25.795-2.974-58.588-6.13-87.438-8.919-5.662-.553-11.171-1.085-16.447-1.6,5.089,1.029,11.137,2.15,17.655,3.563,8.038,1.7,16.719,3.663,25.09,5.645,16.74,3.989,32.254,7.93,39.005,10.282,5.648.735,31.262,7.856,44.169,10.82l3.125,1.346c5.36,1.478,9.826,3.042,13.828,4.127q1.5.414,2.911.751l.72.17.893.242c.465.134.923.266,1.378.4a22.3,22.3,0,0,0,2.364.549,4.361,4.361,0,0,0,.736.068c0,.013.006,0,.009,0,.009-.022.017-.045.071.5a3.971,3.971,0,0,0,.181,1.159c.041.158.067.278.1.387.389.158.773.327,1.149.506l.673.32-.45.534a1.76,1.76,0,0,1-1.194.6l-.139.014-.607,2.21C406.66,1017.466,403.052,1017.055,399.239,1016.615Zm-13.5-6.67q-.57-.148-1.145-.29l-2.813-.714C381.11,1009.007,383.139,1009.442,385.736,1009.945ZM241.125,995.09c-.009,0-1.928-.272-6.7-.944l-.523-.026C238.09,994.676,241.136,995.095,241.125,995.09Zm189.169-2.378c.007-.014.014-.028.02-.041Zm-12.13-7.318c-.347-.055-.694-.106-1.041-.158Zm-235.012-.406,2.24.25c-1.961-.358-3.988-.719-6.1-1.083C180.915,984.5,182.181,984.772,183.152,984.989Zm223.777-.926a94.058,94.058,0,0,0,9.909,1.132c-3.421-.5-6.823-.883-10.165-1.191C406.746,984.022,406.832,984.041,406.929,984.063Zm-226.132-.03a2.166,2.166,0,0,1-.367.023c.155.028.5.087.6.1,1.388.315.987.189-.234-.127l.028,0-.133-.023Zm-1.709.007a7.344,7.344,0,0,0,1.342.016c-1.64-.265-5-.87-5.257-.87C175.019,983.186,175.978,983.4,179.087,984.04ZM367.9,981.5c1.915.411,3.877.792,6.1,1.073,2.623.353,5.571.59,9,.89a8.409,8.409,0,0,1,2.832-.907,193.027,193.027,0,0,1-19.372-2.064C366.229,980.807,367.165,981.175,367.9,981.5Zm1.13,1.31c-.746-.135-1.517-.284-2.3-.448-.766.021-1.791.021-3.141-.006Q366.371,982.591,369.035,982.812Zm-26.48-3.384-.008,0Zm11.152-.125c.328.021.643.038.946.055l-3.567-.913C351.87,978.684,352.748,978.974,353.707,979.3Zm-15.953-1.282c2.572.228,5.09.448,7.441.644a59.518,59.518,0,0,0-7.341-1C337.269,977.665,337.192,977.778,337.754,978.02Zm-22.271-1.867c5.341.352,13.162,1.059,20.707,1.729-1.142-.267-2.358-.546-3.578-.816l-1.314-.288c-7.763-.741-12.052-1.008-14.174-1.008C315.484,975.769,315.138,975.929,315.482,976.153Zm-61.529-1.524.418-.225-3.037-.3Q252.643,974.366,253.954,974.629Zm117.659-12.675.126.041,2.645-5.022-.119-.053-.068.129.114.058-2.5,4.752c-.038-.019-.077-.037-.116-.054ZM131.455,960.13l18.119.7c-4.05-.677-7.4-1.191-8.643-1.293-.193-.154,1.3-.121,3.01-.087,3.185.061,7.12.123,2.322-1.021-2.815-.544-5.62-1.058-8.391-1.542-5.722-.389-7.694-.166-8.023.31,3.514.54,5.777.9,5.777.9.411.31-2.051.033-5.734-.473C130.516,958.551,133.891,959.876,131.455,960.13Zm210.478-3.115c-1.4-.223-2.229-.343-2.229-.343Zm-224.047-1.051c.4.043.759.075,1.065.1-.684-.1-1.364-.193-2.036-.285Zm-26.259-4.657c7.009,1.224,9.653,1.623,13.156,2.226,2.646.365,5.467.761,8.286,1.17,2.494.356,4.989.721,7.359,1.072-.787-.54-4.715-1.615-7.747-2.1,7.059.7,12.725,1.345,17.482,1.928-17.858-2.835-33.07-4.3-38.042-4.3C91.942,951.3,91.778,951.3,91.626,951.307Zm-11.193,2.679a2.383,2.383,0,0,1-.512-.183,10.793,10.793,0,0,1-1.462.047C81.376,954.241,80.978,954.144,80.433,953.987ZM96.461,949.4c13.748,1.217,26.6,2.357,33.367,2.955l-10.753-1.582c-5.382-.756-10.762-1.515-10.762-1.515l-5.29-1.333a453.766,453.766,0,0,0-59.215-3.87,43.01,43.01,0,0,1,4.506,1.425c1.442.588,1.495.94-1.115.7,2.311.249,7.666.812,13.035,1.254l7.558.644c-3.243-.537-2.34-.566-10.019-1.861Zm-14.572,1.578L71.8,949.463c-.041.279-.119.517-.785.515A97.231,97.231,0,0,0,81.889,950.978Zm-10.068-1.686c4.7.581,9.2,1.078,8.39.746a10.644,10.644,0,0,0-1.324-.339c-2.822-.4-4.982-.7-6.668-.949A.646.646,0,0,0,71.821,949.292ZM84.245,950c-.25-.049-.528-.1-.834-.15Zm-9.78-1.356c-.159-.016-.309-.029-.449-.039Zm292.584-3.983c.232.152.284.212.3.216a2.916,2.916,0,0,0-.725-.476C366.807,944.5,366.948,944.591,367.049,944.661Zm-335.969-2.8c.381-.417,2.483-.674,4.212-.675-4.882-.442-9.022-.665-12.629-.74C25.509,940.922,28.422,941.414,31.08,941.861Zm-9.842-1.234-1.048-.2h-.184Zm-54.795-21.091a.1.1,0,0,0-.027,0Zm28.9-2.15Zm0,0c-1.129-.178-2.106-.32-2.909-.428Zm162.211-.679c-.072-.139.174-.255.788-.345-2.183-.309-4.064-.561-5.671-.764ZM-27.409,888.5c7.714,1.511,13.032,2.706,19.361,3.577,12.419,1.824,36.065,4.382,27.595,2.751,4.679.484-3.767-.594-12.56-1.814-10.445-1.45-21.379-3.1-11.385-2.564,9.3,2.149,19.023,3.253,31.727,4.724l1.106-.322c-21.566-2.393-39.9-6.3-52.889-5.924,1.611-.068,2.137-.161,1.864-.273a64.577,64.577,0,0,0-7.592-.734l-.113-.007Zm-11.545-2.351,5.255.331a7.49,7.49,0,0,1-2.267.277l3.117.635c5.434.391,11.046.889,16.227,1.439,10.8,1.1,19.655,2.258,20.909,1.841-8.21-1.445-15.656-1.768-23.611-2.908,5.6.382,13.76,1.041,15.914,1.08a336.806,336.806,0,0,0-39.234-3.448Zm-22.606.945,1.4.33c1.077.264,2.154.529,2.154.529a18.491,18.491,0,0,0,2.577.269l-.007,0c-.112-.045-.6-.15-1.66-.354l-2.09-.4-1.425-.265c-.472-.084-1-.167-1.575-.245Zm408.506,131.063.04.006Zm-.019,0,.019,0Zm-.031-.005.031.005Zm-6.771-.571c.162.193.342.385-2.142.075-4.156-.957-6.17-1.48-6.726-1.706-1.643-.67,9.431,1.242,15.638,2.2C339.709,1017.035,339.9,1017.305,340.126,1017.575Zm-18.584-1.984c.059.058.011.093.89.325-3.471-.713-2.759-.623-.89-.325-.1-.094.588-.019,1.249.056,1.205.137,2.339.273-1.433-.606-6.765-1.422-8.547-1.525-10.652-1.859-6.926-1.9-9.941-2.89-12.9-3.981,3.353.932,14.312,3.651,23.322,5.628l2.044.324c5.312,1.193,6.63,1.582,6.061,1.582C328.438,1016.736,323.944,1015.974,321.542,1015.592Zm2.919-2.928c.744.4-1.574.113-14.066-2.435l14.066,2.435a26.328,26.328,0,0,0-2.542-.9c-.892-.289-1.778-.574-2.246-.765-.319-.13-.444-.216-.247-.229.572.443,9.659,2.413,14.434,3.514Zm31.518-2.425a50.691,50.691,0,0,1,8.167.923l14.019,2.561C371.947,1012.747,364.873,1011.635,355.979,1010.239Zm-116.23-.787c-5.391-.336-10.98-.606-16.456-.821-5.648-.266-11.2-.527-16.363-.773l-.035-.013.035.01c.454.005.926-.013,1.3-.023l.941-.05,1.882-.1,3.759-.2,2.723.391c4.163.338,8.809.562,13.592.8s9.718.513,14.4.829c9.365.629,17.748,1.455,22.055,2.448C260.563,1011.038,250.535,1010.113,239.749,1009.453Zm15.5.192,7.585.427,9.584,1.35c.046.029-.007.043-.145.043C270.805,1011.464,259.757,1009.954,255.246,1009.644Zm-24.9,1.19-12.815-1.824,14.6,1.877Zm64.3-3.081,16.046,2.776c-4.1-.647-1.471.122-1.209.342Zm-40.182,1.848c.23.009.49.023.778.043Zm42.368-.692c-.1-.04-.059-.048.138-.017.279.105.556.208.833.311C297.294,1009.059,296.959,1008.958,296.836,1008.909Zm-9.5-2.423,1.815.111,5.5,1.156Zm-.757-1.142,1.389.281A4.8,4.8,0,0,1,286.578,1005.344Zm37.564-2.025a4.238,4.238,0,0,1-.565-.149c-.677-.276,4.913.356,8.681.691,6.575.755,11.356,1.53,9.527,1.543Zm-43.071.912.19.059-12.074-2.477,11.884,2.417-5.382-1.708a90.375,90.375,0,0,1,10.889,2.821Zm47.876-2.788c-2.918-.277-5.855-.554-6.438-.547-4.682-.669-6.531-.969-6.749-1.058a47.274,47.274,0,0,1,5.008.4c2.226.216,4.475.433,5.064.429,7.857,1,10.007,1.325,9.411,1.325C334.7,1001.99,331.831,1001.716,328.946,1001.443Zm-62.956-1.409-6.249-.987,14.281,2.079Zm-34.366-3.408.553.44-12.05-2.991,23.935,4.512a2.4,2.4,0,0,0-.7.041,2.207,2.207,0,0,1-.477.048C242.064,998.675,239.911,998.365,231.625,996.625Zm14.792.645,1.433.252c.034.034.015.049-.047.049A9.255,9.255,0,0,1,246.417,997.27Zm-10.667-1.928c2.624.387,5.241.756,8.546,1.329-.277-.088-.49-.158-.583-.2-.194-.079.144-.013,1.544.361l-.961-.165c.556.172,1.338.4,2.12.6C243.272,996.733,239.649,996.074,235.751,995.342Zm35.4-1.189,8.348.833-.661.812C276.183,995.181,275.887,994.973,271.147,994.154Zm-86.3-4.571c-3.935-.236-8.063-.552-8.462-.715-.1-.041.045-.074.516-.092a3.565,3.565,0,0,0,2.054,0,9.357,9.357,0,0,1,3.738.069c8.991.772,10.542,1.033,8.9,1.033C190.434,989.883,187.692,989.753,184.848,989.582Zm-24.169-2.512c.355.016-.19-.078-1.5-.259,3.43.415,6.992.807,10.815,1.2Zm-3.225-.309c-.024-.01.775.062,3.225.309C160,987.041,157.5,986.779,157.454,986.762Zm-6.8-1.059,8.529,1.109C156.038,986.432,153.153,986.059,150.65,985.7Zm18.329-4.285c1.218.052,7.832,1.607,11.06,2.422C176.077,982.973,172.305,982.148,168.979,981.418Zm87.741.349c-.153-.062-.191-.1-.133-.127,1.674.466,4.207,1.1,8.77,2.1C259.765,982.6,257.329,982.016,256.72,981.767Zm-107.507.323c-2.879-.516-4.243-.8-4.488-.9-.538-.22,4.358.452,10.5,1.509l.517.418C153.658,982.847,151.322,982.364,149.213,982.09ZM129.836,980.2a21.344,21.344,0,0,0,4.363.278l16.159,2.053c.03.022-.02.032-.142.032C148.882,982.566,138.957,981.348,129.836,980.2Zm-1.221.724a13.57,13.57,0,0,0,2.561.019,1.7,1.7,0,0,1-.674.075C130.04,981.02,129.38,980.983,128.615,980.926Zm-.139-.01.139.01ZM93.115,978.6c1.523.193.987,0,.451-.192a3.324,3.324,0,0,1-.526-.214c3.489.652,5.94,1.2,12.92,2.24Zm23.7.03c2.9.306,7.838.915,13.024,1.57C125.663,979.779,119.614,979.042,116.812,978.632Zm28.863-.5,2.1.261s-7.5-1.285-15.035-2.44c-7.528-1.177-15.084-2.192-15.084-2.192.727-.09,2.881-.058,13.119,1.167,9.136,1.82,14.076,2.883,21.01,4.157Zm-21.175.077a232.045,232.045,0,0,0-26.914-3.353l11.269,1.892L97.5,974.94l-.674-.128a27.722,27.722,0,0,0-5.228-.037c-3.064-.409-1.594-.4-.215-.392a4.72,4.72,0,0,0,1.417-.06l-8.675-.709c-4.335-.4-8.671-.789-8.671-.789l-.085-.033c-1.787-.728,5.366-.2,12.056.177,6.789.391,13.1.778,9.058,0,4.789.645,6.279,1.013,9.044,1.445s6.811.949,16.675,2.159c6.3.634,2.534-.15-3.473-1.187s-14.285-2.191-16.881-2.6c7.491.634,11.259,1,13.189,1.12s2.066.019,2.308-.075l-1.259-.28,1.571.211c-.132.019-.206.046-.311.068,10.14,2.229,18.038,4.851,12.982,4.851A54.614,54.614,0,0,1,124.5,978.211Zm-32.953.167,1.568.224C92.733,978.555,92.221,978.482,91.547,978.378ZM238.906,976l4.1-.7.338,1.567ZM60.188,971.62l-1.785-.167c10.1.787,19.148,1.934,20.205,2.655C67.9,972.823,57.143,972.161,60.188,971.62Zm47.725.73-5.432-.472,7.087.336,7.086.436-3.3.227Zm-33.686-.059L70.7,971.109l4.633.671,4.628.71Zm-13.77-3.6a51.412,51.412,0,0,0,6.948,1c1.779.168,2.738.286,2.122.386A77.269,77.269,0,0,1,60.458,968.693Zm14.288-.2,8.282.6-1.218.443Zm95.943-36.679c5.091.461,10.506.9,15.266,1.427.358.28.235.4-.328.4C184,933.634,178.687,932.656,170.689,931.811ZM47.3,931.235c6.239,1.1,9.355,1.667,11.376,2.266l-1.055.044Zm118.688.128q2.483.209,4.7.448C169.079,931.665,167.5,931.516,165.986,931.363Zm39.01-6q.591.14,1.138.277C205.649,925.526,205.273,925.433,205,925.359ZM130.437,917.3l1.332.281C131.367,917.5,130.919,917.407,130.437,917.3Zm-167.79-3.8,1.263-.122c1.2.145,1.358.212.793.212C-35.683,913.6-36.4,913.568-37.353,913.508Zm12.69-26.145c-.046-.019,1.073.035,3.917.2.478.068.985.14,1.422.2C-22.34,887.551-24.6,887.389-24.663,887.363ZM32.793,874.4c5.322.609,8.536,1.048,10.518,1.359C39.6,875.264,35.693,874.743,32.793,874.4Zm-1.692-.192c.511.055,1.079.119,1.692.192Zm-54.138-6.143-8.615-1.337,13.4,1.616Zm-32.31-1.112a6.79,6.79,0,0,0,1.428-.116c.231-.045.46-.1.683-.166l.931-.293,2.438-.36c.749-.1,1.5-.179,2.258-.244l1.688.518c.835.27,1.652.575,1.652.575a25.2,25.2,0,0,0-3.4-.282c-.692-.016-1.427-.014-2.172.011l-1.12.049c-.433.031-.865.063-1.29.092a9.208,9.208,0,0,1-1.027.212,7.535,7.535,0,0,1-.753.071q-.142.005-.279.005A7.487,7.487,0,0,1-55.346,866.953Z" transform="translate(74.738 -865.773)" fill="#e9e7e7"/>
</svg>
