<svg xmlns="http://www.w3.org/2000/svg" width="422.679" height="106.587" viewBox="0 0 422.679 106.587">
  <path id="Color_Overlay" data-name="Color Overlay" d="M550.928,2780.741c-1.071-1.24-1.943-2.629-7.474-4.142a14.145,14.145,0,0,0-2.453.137,16.58,16.58,0,0,1-5.493-.19l.641-1.326c-.843-.185-1.657-.353-2.423-.511-3.448-.712-5.932-1.222-5.776-2.1a30.707,30.707,0,0,1-8.551-1.533c-3.657-.411-2.5.589-.228,1.806s5.715,2.625,6.431,3.065c-6.793-2.509-11.848-3.012-15.443-5.6l6.295,1.018a39.614,39.614,0,0,0-11.31-2.7c-2.75-.223-4.135-.161-7.1-2.551,4.475,1.158,10.071,1.663,7.587.276l-6.7-.793c-.292-.235.361-.158.976-.081.82.1,1.573.205-.081-.436-1.931-.126-5.9-.286-7.689-.2l.108-.067-5.9-1.217-4.872-.971c1.337.193,1.461-.157-.373-.606l-7.883-.9c2.45.147.11-.8-3.326-1.761-4.4-1.122-6.605-.955-8.348-.69-2.179.33-3.639.811-7.781-.888a8.036,8.036,0,0,0,1.238.2,8.161,8.161,0,0,1,1.244.2l-3.856-1.466c-.738,1.4-6.631.242-12.526-.918s-11.8-2.32-12.542-.916c-5.425-2.4-.243-.8,7.363-.678l-5.87-2.128c.984.159,1.895.36,2.8.56a35.72,35.72,0,0,0,4.38.766,45.075,45.075,0,0,0-11.179-2.569,83.26,83.26,0,0,0-8.673-.4c-2.928-1,2.817-1.816-5.886-2.931-6.509-.844-5.585-.067-4.373.712,1.077.69,2.381,1.382-1.085.937l-5.038-2.469a98.318,98.318,0,0,1-17.826-2.633c-2.162-.464-4.324-.931-6.573-1.339a12.508,12.508,0,0,0-3.2-.034c-8.268-1.99-17.813-.907-24.141-2.162,1.538-.15-3.542-1.408-4.276-1.876l-11.429-.318c4.9.12,4.8-.79,5.815-1.546a43.542,43.542,0,0,0-4.873-.132c-1.011.017-1.948.034-3.019-.035,1.546-.149,3.107-.3,1.23-.922l-12.4.071a24.81,24.81,0,0,0,3.278.649c-1.022-.12-2.45-.223-4.06-.362.517.151,1.006.309,1.458.473-1.063-.173-2.925-.323-3.9-.591.037.585,1.918,1.814,5.939,2.8l1.737-.515,1.5.993c3.084.654,2.694.257,2.3-.139s-.779-.792,2.308-.139c1.543,1.576,8.176,3.066,15,4.527s13.918,2.894,16.366,4.5c4.552-.89-11.636-2.625-6.707-3.271a42.106,42.106,0,0,0,6.592,2.1l-1.172-1.323c18.581,4.415,25.558,6.719,42.219,10.359l-.72.063c5.815,1.791,9.031,2.416,11.9,2.193,1.1.8-3.208-.04-1.024.969a29.152,29.152,0,0,1,7.932,1.176,44.122,44.122,0,0,1,7.221,2.856c4.407,2.142,8.161,4.271,11.5,4.329-.739.908,2.021,2.865,4.3,4.55,2.2,1.75,3.687,3.338.762,3.162l4.154,1.242a5.5,5.5,0,0,1-2.845-.375c-1.33-.389-2.83-.915-4.441-1.35-3.572-.983-7.113-2.208-8.555-1.916l-6.238-2.967c-3.083-1.467-6.178-2.749-6.178-2.749.247.627-2.044.805-.066,1.554a27.073,27.073,0,0,0-3.712-.845c-.616-.042-.313.257,1.717,1.192-15.248-5.992-31.526-9.563-47.792-12.715-8.138-1.581-16.293-3.066-24.372-4.727s-16.057-3.506-23.879-5.624c-2.168-.321-1.04.425-.284.922-3.581-1.65-4.925-1.362-6.293-1.074a6.843,6.843,0,0,1-2.662.152l-8.14-3.667c-3.586-.113-.994,1.018-1.326,1.354-5.894-1.03-11.687-2.307-17.314-3.548-9.855-2.176-19.2-4.245-27.692-4.691-4.092-1.3,1.228-1.453-4.28-2.451,3.627,1.507-.446,1.211-4.835.8-4.012-.337-8.3-.748-7.253-.061-2.289-1.071-6.059-1.63-9.48-2.113-4.758-.674-8.842-1.207-7.33-2.781-6.7-.73-5.663.819-3.749,1.246-7.781-.755-14.063-1.287-20.521-.87-2.009-.5-10.238-1.021-19.016-1.735-4.387-.335-8.9-.8-12.914-1.435-1.247-.193-2.438-.41-3.551-.644a33.06,33.06,0,0,1-5.939-1.724l.07-.3-.016-.008-.071.3.017.007-.026.114c1.021.6.8.695-.138.584l.138-.584a.078.078,0,0,0-.017-.01l.026-.111h0l.071-.3-.127-.067.985-4.212c.043.021.086.043.128.064l.086-.37h0l-.085.37.016.008.086-.369-.017-.009.027-.113.015.015-.025.106c.277.147.5.274.707.394a4.04,4.04,0,0,1-.682-.5l.14-.6a11.453,11.453,0,0,0,1.909.182,15.139,15.139,0,0,0,1.872-.132c-.029-.139.115-.28.479-.414-.365-.107-.795-.234-1.18-.37a6.944,6.944,0,0,1-1.5-.7,9.177,9.177,0,0,0,1.124.074c.723.015,2.083-.014,3.361-.018l5.153-.039c2.1-.168,2.687-.126,2.679-.009.782.011.786.164.95.35.2.229.646.51,3.1.642,7.046-.066,7.416-.769,11.316-1.429l-1.086-.2,4.823-.076c1.613.028-.861.276-2.926.61-2.457.4-4.335.915,1.929,1.329.163-.363,6.995-1.948,10.054-.875-5.876-.277-5.161.682-3.011,1.114l4.1.2,4.1.227-2.638-1.762c11.8.543,23.7,1.757,35.756,2.759s24.391,1.717,36.958,2.71c-.2.632,3.464,1.029,7.272,1.456,4.527.508,9.257,1.057,7.934,2.1l-.937-.291c-6.135-.348,1.623,1.811,6.612,2.067-5.144-1.184,9.551-1.189-3.085-2.743l9.9-.007c1.469-.862,3.847-1.094,6.819-.922,1.482.084,3.132.277,4.855.529s3.532.565,5.425.9c7.576,1.34,16.337,3.055,23.818,3.251-1.064.036-1.361.22-1.5.331a117.859,117.859,0,0,1,20.11,2.445c2,.39,3.863.784,5.513,1.134a41.26,41.26,0,0,0,6.9,1.185l.988,1.281c11.429.072,12.792.082,26.023,3.017-.206.147-1.8.2.27.791,3.345-.245,6.731-.535,15.821,1.485l-.442.268,7.138,1.38,7.078,1.393c-.4,1.641,5.553,2.4,12.12,3.289,6.781.918,14.215,1.971,15.977,4.275,2.978-.4,13.356,1.456,18.064,1.966,0-.22.715-.276,2.327-.108.284.307-.669.288-2.327.108,0,.149.26.361.995.68,3.654-.405,8.795,1.278,13.606,2.891a71.3,71.3,0,0,0,7.962,2.374c.613.073,1.1.113,1.468.122-3.11-1.124-4.916-1.848-10.012-3.658a21.6,21.6,0,0,1-5.424-1.728c-.691,1.2-17.373-4.557-20.651-5.638,5.936,1.557,3.334.138,1.834-.923-3.8.089-6.227-.511-10.777-2.758-1.2,1.509-2.71,3.051-12.188.324,1.54.18,3.881.722,3.043.086-.857-.643-3.17-.913-3.949-1.006-.838-.634,2.282,0,1.4-.913-6.875-.27-11.074-3.187-20.5-5.372,3.087.361.658-.731-.226-1.641-.6.809-3.3-.333-5.715-1.418-2.761-1.239-5.161-2.4-3.672-.5-17.8-6.785-46.162-13.558-52.8-17.14-1.081-.787-3.624-1.187-6.154-1.585-1.484-.233-2.963-.465-4.139-.773l.671-.738c-9.32-.851-7.076-1.355-17.94-2.45,4.593.068,2.913-.86-1.262-2.777l-7.653.042-.662-1.019-2.239-.841a58.044,58.044,0,0,1-7.721-1.9c-1.711.415-5.637-.1-9.267-.624-3.263-.466-6.288-.932-7.256-.721-1.456-1.276-3.708-1.607-5.837-1.913a16.257,16.257,0,0,1-3.751-.818c.836,1.235.349,2.174-2.5,2.114a26.793,26.793,0,0,0-3.671-.918l.014.017c.113.544-.82.266-2.228-.334-3.214-.346-5.855-.129-6.187.391-1.726-.456.617-.561.53-.83l-3.189-.131-3.19-.161c-.663-.921,2.046-1.06,4.558-1.2,1.013-.056,2-.11,2.717-.2l-.14-.059.179.054c.789-.1,1.248-.256,1.053-.515-1.589-.215-3.038-.43-4.162-.616a24.682,24.682,0,0,1,2.93,1.077l-3.5-1.172c-.4-.067-.8-.136-1.065-.194a4.073,4.073,0,0,1,.652.058,20.681,20.681,0,0,0-6.309-1.045,31.9,31.9,0,0,0-3.4-.875c.125.155.08.337-.176.557.216.045.427.069.647.1-3.6-.4-6.874-.624-7.278-1.533-1.486-.109-3-.185-4.524-.249l1.446.5c-1.85.6-4.747-.006-7.62-.745a60.793,60.793,0,0,1-14.206-2c1.739.4,4.21.752,4.917.435-3.84-.347-7.656-.924-11.258-1.481l-.553,0c5.069,1.118-6.333.013-2.737,1.463l4.073.358c1.794.723-2.189.629-4.515.734-5.932-1.259-14.247-2.352-21.88-3.438-2.462-.131-4.827-.3-7.227-.544l-.422,1.108c-2.1-.291-4.854-.5-7.788-.683-2.9-.179-6.072-.283-9.171-.423-6.189-.265-12.109-.726-14.665-2.092-2.257.736-11.662-1.089-16.475-1.118l-1.163-.955-2.547-.266c-.4-.036-.794-.067-1.176-.1-.446-.039-.565-.041-.882-.044-.356-.006-.756.007-1.2.021a21.055,21.055,0,0,1-3.682-.137l1.824-10.622c1.712.206,3.248.291,4.786.367-.557-.147-1.089-.266-1.624-.435a28.239,28.239,0,0,1,9.344,1.069c-2.993-.415-5.394-.516-7.72-.635a86.939,86.939,0,0,0,9.3,1.845l4.708.752c1.438.229,2.882.41,4.333.565,2.9.307,5.818.514,8.742.8,1.444.141,2.888.3,4.332.5,4.012.362,5.01.88,9.724.851-4.782-1.1-3.916-.918-1.925-.735,1.71.156,4.249.313,4.757-.342,5.792.314,1.945.912,4.556,1.494.964-.077,3.286-.382,3.474-.778a15.312,15.312,0,0,0-3.228-.85c2.591.3,3.344.592,3.228.85,1.97.85-.71,1.524-2.542,2.272a20.333,20.333,0,0,1,3.122.45,54.73,54.73,0,0,1,6.393.868c1.166.216,2.344.45,3.482.7s2.242.5,3.3.784l.809.11a6.084,6.084,0,0,0-3.271-5.651c.309-.513,2.169.11,4.146.756a23.065,23.065,0,0,0,3.665.994,26.309,26.309,0,0,0,9.987.79,27.18,27.18,0,0,1,7.179.2l-4.683.379c.962.45,9.9.813,11.371.447.173.519-4.856,2.131-2.153,2.994,10.8,1.293,21.414-.191,20.941-1.761,0,0-4.227-.13-8.442-.2l-8.419-.1c-.464-1.333,11.972-.012,11.467-1.557l7.681,1.154,7.677,1.263c-1.956-.245-7.944-.678-5.7.322,6.612.837,3.4.667,7.713,1.9A171.7,171.7,0,0,0,244.8,2690.2l.083.016a23.9,23.9,0,0,1,6.052,1.927c-1.663-.995,1.257-.591,4.638-.049a93.317,93.317,0,0,0,17.187-3.814c5.869,1.313,3.322,3.615,1.845,3.891a35.043,35.043,0,0,0,11.8.367,29.756,29.756,0,0,1,11.79.774l-4.217-1.473c1.223.136,3.806.719,6.233,1.271,3.084.7,5.917,1.348,5.38.955,1.987,1.1,3.628,2.99,1.74,3.174l10.057-.219c-1.323.126-.886,2.256-1.577,2.48.114.028.227.053.34.076.919.008,1.832.057,2.749.13-.672,0-1.324.005-1.957,0a9.3,9.3,0,0,0,2.219.02l-.262-.022.449,0c1.975-.277,3.026-1.208,1.8-1.847,2.47,1.078,3.91,1.653,4.969,2.068.732.068,1.481.154,2.251.265-1.39,0-.19.47.544.911.873.418,1.984,1,3.811,2.007,2.39.43.329-2.28-1.349-2.92a48.6,48.6,0,0,1,11.015,2.657c-9.031-1.33-3.576,4.083-5.645,5.251,0,0,5.087-.393,10.2-.69l10.241-.556a8.351,8.351,0,0,0-2.7,1.948l.134.008c2.525-.986,19.042,3.281,29.857,6.537l8.667.685-7.931-.462c1.162.354,2.249.693,3.235,1.01l-1.576-.442c-2.3.017,6.546,3.142,10.409,3.569-.729.187-1.544-.172-3.125-.611a15.48,15.48,0,0,0,8.082,1.668,15.185,15.185,0,0,1,8.424,1.87c-6.394-2.038-7.876-1.669-7.759-.847,1.75.282,4.171.906,6.592,1.53,4.678,1.207,9.356,2.411,9.181,1.149l-.469-.165c-.02-.1.123-.12.382-.092a1.715,1.715,0,0,0-.119-.2c.232.105.464.205.693.3.577.121,1.353.33,2.154.543a21.471,21.471,0,0,0,3.368.736l-2.443-.084c1.456.569,2.36,1.029,2.006,1.613l13.348,2.595c-1.031-.068-2.051.32,1.7,1.605a67.929,67.929,0,0,0-9.022-2.223c-3.875-.762-7.242-1.417-9.212-2.893-.573,1.281,1.951,2.813-1.854,2.9,14.2,3.558,22.558,3.58,31.863,4.681l12.073,4.658.7-.453,1.686,2.175c1.65.112,2.727.1,3,.343.24.221-.211.308-.889.354a20.452,20.452,0,0,0,3.208.553,1.211,1.211,0,0,0-.563-.783c1.366.614,1.291.811.563.783.24.95-2.223,1.222-4.8,1.362l.98.6-3.713-.446,2.733-.156c-1.023-.619-2.077-1.252-3.145-1.866-2.65.045-4.638.317-1.418,1.834.506.039,1.152.108,1.829.188-1.719.112-2.812.3-1.74.867l9.657,2.085c-1.013-.53-2.48-1.446-4.2-2.506,6.215.765,13.347,1.566,8.373-1.049l6.922,3.056c4.45.492,6.305.736,8.376,1.124s4.352.892,9.67,2.109c.375.719-2.5.221-.8,1.243,3.871.425,8.009,2.395,11.5,4.23,3.79,1.991,6.823,3.823,7.937,3.35,3.354,1,3.9.774,4.377.534.387-.192.734-.393,2.482.033-.239.1-.714.3.369.726l4.848.523c.682.422.073.379-.552.336-.9-.062-1.831-.125,1.043,1.21,8.859,2.208,14.383,3.315,21.574,7.095,1.618.687,2.658,1.113,3.246,1.278l-3.791,10.117c-1.284-.11-.893.321-.212.817l4.381-11.69c-.995-1.043-2.789-2.455.445-.894l-5.078,13.551Zm-38.313-10.886c1.143.914,4.8,1.011,6.613,1.169a39.945,39.945,0,0,0-3.9-1.329,5.246,5.246,0,0,0-1.089-.12A5.023,5.023,0,0,0,512.615,2769.854Zm-52.6-30.514a19.6,19.6,0,0,0-4.42-1.731,5.58,5.58,0,0,0-.99-.126A31.205,31.205,0,0,0,460.013,2739.341Zm-151.044-4.6-3.523-.956c-3.636-.579-5.909-.97-8.368-1.159C301.169,2733.376,305.161,2734.1,308.969,2734.737Zm6.2-.048a15.819,15.819,0,0,0,3.284-.491c-8.434-.895-2.069-.495-6.02-1.63-5.442-.619-8.034.156-7.248,1,.929.152,2.074.324,3.332.519.283.043.572.088.864.135a5.259,5.259,0,0,0,1.4-.438A10.931,10.931,0,0,0,315.165,2734.69Zm-11.638-1.428-.437-.119C303.2,2733.181,303.35,2733.22,303.527,2733.261Zm-12.374-1.735.078-.061-.493-.014Zm-8.09-1.462q2.1.37,4.2.752l2.877-.571a35.275,35.275,0,0,0-5.146-.554A3.654,3.654,0,0,0,283.063,2730.064Zm-27.471.632-.757-.021C255.115,2730.691,255.371,2730.7,255.592,2730.7Zm-51.8-7.37c.348-.041.673-.083.978-.122q-.818-.108-1.6-.185Zm-9.266-.36a26.132,26.132,0,0,0,4.505-.178l-.45,0C197.144,2722.786,195.8,2722.855,194.531,2722.966Zm-19.572-5.814-1.624-.249C172.332,2717.239,171.319,2717.542,174.958,2717.152Zm142.7-12.759c1.462.311.649,0,.6-.254A1.721,1.721,0,0,1,317.658,2704.394Zm-30.579-4.195c.409.038.85.074,1.33.111,1.794-.051,1.44-.391.212-.829-.755-.03-1.579-.084-2.44-.158A4.973,4.973,0,0,1,287.078,2700.2Zm-3.073-.37-.633-.791c-1.013-.117-2.033-.243-3.016-.372A14.952,14.952,0,0,0,284.006,2699.829Zm-81.161-12.511a7.015,7.015,0,0,0-2-1.011c-.962-.247-1.844-.456-2.66-.636l-.222.3,0-.348-.391-.084a39.065,39.065,0,0,0-5.365-.795C195.123,2685.561,199.783,2686.633,202.845,2687.318Zm-3.719-2.913,2.1.553a1.576,1.576,0,0,1,.192-.024c-1.046-.237-1.886-.439-2.287-.535Zm-42.1-3.107c.59.3,1.255.719.976,1a39.388,39.388,0,0,0,8.043-.931c-1.944-.087-3.778-.123-5.481-.123C159.31,2681.245,158.128,2681.264,157.024,2681.3Zm293.526,97.733c-.2-.442-.4-.885-.4-.885a7.367,7.367,0,0,0,2.372.9l2.678-5.917a1.185,1.185,0,0,1-.151.118,1.481,1.481,0,0,0,.161-.14h0v0l0,0h0s0,0,0,0,0,.011-.012.025l.007-.016-.008.017h0l-2.86,6.643-1.368.145ZM455.2,2773.128Zm-12.4,4.464c-1.032-.487-2.008-.9-2.008-.9l.77.081.789.1,2.584,1.736Zm85.635-2.446c2.219.541,3.327.823,3.98,1.358l-.44.261Zm-74.149-1.526c-.019,0-.033-.061-.047-.1.031.043.094.052.173.038-.043.014-.077,0-.1.037-.007.021-.016.03-.023.03Zm.138-.07a1.448,1.448,0,0,0,.178-.054.9.9,0,0,1-.19.058Zm.455-.2c.062-.036.119-.073.17-.107a1.769,1.769,0,0,1-.291.18c-.053.026-.107.049-.157.069A2.5,2.5,0,0,0,454.883,2773.353Zm.322-.226h0Zm-35.551-4.583c1.529.45,3.152.926,4.148,1.218C421.609,2769.178,420.375,2768.83,419.654,2768.544Zm72.491-3.666-.549.324C490.853,2765.013,491.241,2764.919,492.145,2764.878Zm-11.263-2.362c-.134-.029-.275-.06-.422-.1l1.021.2C481.3,2762.6,481.1,2762.563,480.882,2762.517Zm-14.05-1.286-.716-1.468,1.84,1.734Zm3.783-.405,2.611.291C472.637,2761.085,471.84,2761,470.615,2760.826Zm-53.127-8.383q-.27-.057-.527-.117c.584.1,1.153.2,1.7.328C418.25,2752.593,417.86,2752.521,417.488,2752.443Zm-2.557-.424c-1.139-.163-2.273-.326-3.31-.544l-.055-.012c-.19-1.088.744-.622,2.683.055a27.008,27.008,0,0,0,2.712.807C416.3,2752.215,415.612,2752.116,414.931,2752.019Zm-46.178-8.665,3.116-.53c-.318.3.6.8-.565.8A19.555,19.555,0,0,1,368.753,2743.354Zm3.422-.682.273.054-.579.1A.622.622,0,0,1,372.174,2742.672Zm98.61-2.384c2.124.844,3.612,1.509,4.628,2.041Zm-138.742-1.978.286.007Zm157.075-1.527c.005.028-.011.036-.04.03-.106-.022-.388-.249-.377-.457.022-.258.455-.517,2.436-.218-.3.081.031.789-1,.789A4.632,4.632,0,0,1,489.118,2736.783Zm-169.361-.271c.547.092.915.175.808.287C320.333,2736.7,320.015,2736.61,319.757,2736.512Zm-78.219-2.952c.158.074.307.149.45.228A3.006,3.006,0,0,1,241.538,2733.56Zm209.646-3.138-2.371-.323,2.725.215,2.634.161-.7.232Zm-12.973-3.164a55.045,55.045,0,0,0-8.565-1.771c-4.011-.618-7.773-1.184-9.391-2.458a121.826,121.826,0,0,0,12.482,2.487c3.189.537,6.448,1.088,9.343,1.7l-2.974.625Zm-40.986-10.3c4.757.427,1.451-.491-1.076-1.372,6.074,1.11,8.492,2.1,6.592,2.1A37.126,37.126,0,0,1,397.225,2716.962Zm5.375-.653.071,0c.238.013.969.024.541-.347,1.665.393,2.654.6,3.371.737-1.158-.524-.1-.3.625-.076.641.2,1.021.4-.625.076.222.1.329.16.716.311C403.517,2716.393,402.606,2716.312,402.6,2716.31Zm-13.614-1.55c-.374-.078-.517-.34-.865-.558l5.2.553c-.818-.043-1.484-.038-1.974-.032-.848.01-1.171.02-.846-.221a4.141,4.141,0,0,1-1.267.282A1.177,1.177,0,0,1,388.985,2714.76Zm-3.316-.813a3.73,3.73,0,0,1,2.451.256Zm4.632-.255c-2.585-1.144-3.493-1.7,1.331-1.031-1.588-.053,2.525.876,3.418,1.438Zm-32.447-5.073,5.267.342c-.27-.492-2.034-1.387-1.682-1.671.146.542,3.473,1.355,5.2,1.915l-3.52-.244c.1.194-.027.322-.629.322A30.266,30.266,0,0,1,357.855,2708.618Zm-8.537-1.532a.713.713,0,0,1-.247-.124l.513.088a.534.534,0,0,1-.2.043A.338.338,0,0,1,349.318,2707.087Zm-2.275-.472-.857-.591-.912.276,1.768.314.064.042-1.867-.346-.379.115-.129-.208-2.021-.375,2.012.358-1.493-2.426-1.476.143-2.329.015,3.769-.218-.458-.743c.673.24,1.306.462,1.937.659l.1-.006-.092.009a18.026,18.026,0,0,0,6.748.8l-4.573,1.386a6.544,6.544,0,0,1,2.213,1.143Zm-47.791-2.652a7.862,7.862,0,0,0-1.2-.117c-3.342-.753-1-.789,2.28-.3l.127.531h-.041A7.951,7.951,0,0,1,299.252,2703.963Zm43.138-1.114c.1.014.17.005.284.025l.061.1Zm-85.45-5.323,2.2-.565,1.139,1.322Zm63.878.19a2.97,2.97,0,0,1,.33.145Zm-74.454-1.6,4.137.715,1.7.5Zm19.577.423c2.035.187,3.894.054,3.39.494C268.233,2696.828,267.078,2696.674,265.941,2696.541Zm51.638.478-.194,0A1.365,1.365,0,0,1,317.579,2697.019Zm-78.775-2.842c1.539.061,3.749.311,4.775.432-.1,0-.206.006-.318.006A36.683,36.683,0,0,1,238.8,2694.177Zm-7.49-.9c-.094-.35,3.861.391,7.49.9-.931-.036-1.7-.024-1.633.175Zm16.828-3.308,4.724.478c-.753-.018-.075.383-.01.608A22.689,22.689,0,0,0,248.142,2689.969Zm4.724.478a5.11,5.11,0,0,1,.616.062Zm28.125-1.01c1.932-.124-5.529-1.5-3.635-1.7,3.459.989,3.747.69,4.183.423s.986-.49,4.721.515c.893.941.774,1.217-.146,1.217C285.172,2689.89,283.388,2689.6,280.991,2689.438Zm-2.422-.09c.86.007,1.664.042,2.422.09-.116.007-.253.011-.42.011C280.153,2689.448,279.543,2689.423,278.569,2689.348ZM155.356,2677.49c-.353-.074-.748-.18-1.192-.312-1.464-.425-3.284-1.033-5.28-1.552,1.174.165,2.441.378,3.844.68.7.148,1.451.332,2.2.528l2.182.6a1.612,1.612,0,0,1-.786.17A4.836,4.836,0,0,1,155.356,2677.49Z" transform="translate(-134.554 -2674.49)" fill="#232323"/>
</svg>
