<svg width="315" height="229" viewBox="0 0 315 229" fill="none" xmlns="http://www.w3.org/2000/svg">
<path d="M226.6 24.75L138.24 166.12H314.95L226.6 24.75Z" fill="#D5E0DC"/>
<path d="M88.82 24.75L0.470001 166.12H177.18L88.82 24.75Z" fill="#D5E0DC"/>
<path d="M163.41 24.75L75.05 166.12H251.77L163.41 24.75Z" fill="#BBD9D0"/>
<path d="M163.41 24.75L75.05 166.12H251.77L163.41 24.75Z" fill="#9FCCBD"/>
<path d="M110.31 143.69C109.15 143.69 108.21 142.75 108.21 141.59V68.14C103.27 74.61 95.71 76.52 95.6 76.55C94.47 76.82 93.34 76.13 93.07 75C92.8 73.88 93.49 72.74 94.61 72.47C95.2 72.32 108.21 68.93 108.21 55.12C108.21 53.96 109.15 53.02 110.31 53.02C111.47 53.02 112.41 53.96 112.41 55.12V141.59C112.41 142.75 111.47 143.69 110.31 143.69Z" fill="white"/>
<path d="M94.96 130.07C94.69 130.07 94.52 130.06 94.48 130.06C93.32 130 92.43 129.02 92.49 127.86C92.55 126.7 93.53 125.82 94.68 125.87C94.75 125.88 100.88 126.1 104.81 122.34C107.06 120.18 108.21 117.05 108.21 113.02C108.21 111.86 109.15 110.92 110.31 110.92C111.47 110.92 112.41 111.86 112.41 113.02C112.41 118.25 110.82 122.41 107.69 125.39C103.12 129.75 96.76 130.07 94.96 130.07Z" fill="white"/>
<path d="M94.96 87.1C94.69 87.1 94.52 87.09 94.48 87.09C93.32 87.03 92.43 86.05 92.49 84.89C92.55 83.73 93.53 82.86 94.68 82.9C94.75 82.91 100.88 83.13 104.81 79.37C107.06 77.21 108.21 74.08 108.21 70.05C108.21 68.89 109.15 67.95 110.31 67.95C111.47 67.95 112.41 68.89 112.41 70.05C112.41 75.28 110.82 79.44 107.69 82.42C103.12 86.77 96.76 87.1 94.96 87.1Z" fill="white"/>
<path d="M94.96 98.1C94.69 98.1 94.52 98.09 94.48 98.09C93.32 98.03 92.43 97.05 92.49 95.89C92.55 94.74 93.53 93.88 94.68 93.9C94.75 93.91 100.88 94.13 104.81 90.37C107.06 88.21 108.21 85.08 108.21 81.05C108.21 79.89 109.15 78.95 110.31 78.95C111.47 78.95 112.41 79.89 112.41 81.05C112.41 86.28 110.82 90.44 107.69 93.42C103.12 97.78 96.76 98.1 94.96 98.1Z" fill="white"/>
<path d="M94.96 109.11C94.69 109.11 94.52 109.1 94.48 109.1C93.32 109.04 92.43 108.06 92.49 106.9C92.55 105.74 93.53 104.86 94.68 104.91C94.75 104.92 100.88 105.14 104.81 101.38C107.06 99.22 108.21 96.09 108.21 92.06C108.21 90.9 109.15 89.96 110.31 89.96C111.47 89.96 112.41 90.9 112.41 92.06C112.41 97.29 110.82 101.45 107.69 104.43C103.12 108.79 96.76 109.11 94.96 109.11Z" fill="white"/>
<path d="M94.96 120.11C94.69 120.11 94.52 120.1 94.48 120.1C93.32 120.04 92.43 119.06 92.49 117.9C92.55 116.75 93.53 115.88 94.68 115.91C94.75 115.92 100.88 116.14 104.81 112.38C107.06 110.22 108.21 107.09 108.21 103.06C108.21 101.9 109.15 100.96 110.31 100.96C111.47 100.96 112.41 101.9 112.41 103.06C112.41 108.29 110.82 112.45 107.69 115.43C103.12 119.79 96.76 120.11 94.96 120.11Z" fill="white"/>
<path d="M110.66 143.69C109.5 143.69 108.56 142.75 108.56 141.59V55.12C108.56 53.96 109.5 53.02 110.66 53.02C111.82 53.02 112.76 53.96 112.76 55.12C112.76 68.95 125.8 72.34 126.36 72.47C127.48 72.75 128.17 73.88 127.9 75C127.62 76.12 126.5 76.81 125.37 76.54C125.26 76.51 117.7 74.6 112.76 68.13V141.58C112.76 142.75 111.82 143.69 110.66 143.69Z" fill="white"/>
<path d="M126.01 130.07C124.22 130.07 117.85 129.75 113.29 125.4C110.16 122.42 108.57 118.26 108.57 113.03C108.57 111.87 109.51 110.93 110.67 110.93C111.83 110.93 112.77 111.87 112.77 113.03C112.77 117.05 113.91 120.19 116.17 122.35C120.1 126.11 126.23 125.89 126.3 125.88C127.4 125.83 128.44 126.72 128.49 127.88C128.54 129.03 127.66 130.01 126.5 130.07C126.44 130.06 126.28 130.07 126.01 130.07Z" fill="white"/>
<path d="M126.01 87.1C124.22 87.1 117.85 86.78 113.29 82.43C110.16 79.45 108.57 75.29 108.57 70.06C108.57 68.9 109.51 67.96 110.67 67.96C111.83 67.96 112.77 68.9 112.77 70.06C112.77 74.08 113.91 77.22 116.17 79.38C120.1 83.14 126.23 82.92 126.3 82.91C127.4 82.86 128.44 83.75 128.49 84.91C128.54 86.06 127.66 87.04 126.5 87.1C126.44 87.09 126.28 87.1 126.01 87.1Z" fill="white"/>
<path d="M126.01 98.1C124.22 98.1 117.85 97.78 113.29 93.43C110.16 90.45 108.57 86.29 108.57 81.06C108.57 79.9 109.51 78.96 110.67 78.96C111.83 78.96 112.77 79.9 112.77 81.06C112.77 85.08 113.91 88.22 116.17 90.38C120.1 94.14 126.23 93.91 126.3 93.91C127.4 93.86 128.44 94.75 128.49 95.91C128.54 97.06 127.66 98.04 126.5 98.1C126.44 98.1 126.28 98.1 126.01 98.1Z" fill="white"/>
<path d="M126.01 109.11C124.22 109.11 117.85 108.79 113.29 104.44C110.16 101.46 108.57 97.3 108.57 92.07C108.57 90.91 109.51 89.97 110.67 89.97C111.83 89.97 112.77 90.91 112.77 92.07C112.77 96.09 113.91 99.23 116.17 101.39C120.1 105.15 126.23 104.93 126.3 104.92C127.4 104.86 128.44 105.76 128.49 106.92C128.54 108.07 127.66 109.05 126.5 109.11C126.44 109.1 126.28 109.11 126.01 109.11Z" fill="white"/>
<path d="M126.01 120.11C124.22 120.11 117.85 119.79 113.29 115.44C110.16 112.46 108.57 108.3 108.57 103.07C108.57 101.91 109.51 100.97 110.67 100.97C111.83 100.97 112.77 101.91 112.77 103.07C112.77 107.09 113.91 110.23 116.17 112.39C120.1 116.15 126.23 115.92 126.3 115.92C127.4 115.9 128.44 116.76 128.49 117.92C128.54 119.07 127.66 120.05 126.5 120.11C126.44 120.11 126.28 120.11 126.01 120.11Z" fill="white"/>
<path d="M106.12 143.69C104.96 143.69 104.02 142.75 104.02 141.59V68.14C99.08 74.61 91.52 76.52 91.41 76.55C90.28 76.82 89.15 76.13 88.88 75C88.61 73.88 89.3 72.74 90.42 72.47C91.01 72.32 104.02 68.93 104.02 55.12C104.02 53.96 104.96 53.02 106.12 53.02C107.28 53.02 108.22 53.96 108.22 55.12V141.59C108.21 142.75 107.28 143.69 106.12 143.69Z" fill="black"/>
<path d="M90.77 130.07C90.5 130.07 90.33 130.06 90.29 130.06C89.13 130 88.24 129.02 88.3 127.86C88.36 126.7 89.34 125.82 90.49 125.87C90.55 125.88 96.69 126.1 100.62 122.34C102.87 120.18 104.02 117.05 104.02 113.02C104.02 111.86 104.96 110.92 106.12 110.92C107.28 110.92 108.22 111.86 108.22 113.02C108.22 118.25 106.63 122.41 103.5 125.39C98.93 129.75 92.56 130.07 90.77 130.07Z" fill="black"/>
<path d="M90.77 87.1C90.5 87.1 90.33 87.09 90.29 87.09C89.13 87.03 88.24 86.05 88.3 84.89C88.36 83.73 89.34 82.86 90.49 82.9C90.55 82.91 96.69 83.13 100.62 79.37C102.87 77.21 104.02 74.08 104.02 70.05C104.02 68.89 104.96 67.95 106.12 67.95C107.28 67.95 108.22 68.89 108.22 70.05C108.22 75.28 106.63 79.44 103.5 82.42C98.93 86.77 92.56 87.1 90.77 87.1Z" fill="black"/>
<path d="M90.77 98.1C90.5 98.1 90.33 98.09 90.29 98.09C89.13 98.03 88.24 97.05 88.3 95.89C88.36 94.74 89.34 93.88 90.49 93.9C90.55 93.91 96.69 94.13 100.62 90.37C102.87 88.21 104.02 85.08 104.02 81.05C104.02 79.89 104.96 78.95 106.12 78.95C107.28 78.95 108.22 79.89 108.22 81.05C108.22 86.28 106.63 90.44 103.5 93.42C98.93 97.78 92.56 98.1 90.77 98.1Z" fill="black"/>
<path d="M90.77 109.11C90.5 109.11 90.33 109.1 90.29 109.1C89.13 109.04 88.24 108.06 88.3 106.9C88.36 105.74 89.34 104.86 90.49 104.91C90.55 104.92 96.69 105.14 100.62 101.38C102.87 99.22 104.02 96.09 104.02 92.06C104.02 90.9 104.96 89.96 106.12 89.96C107.28 89.96 108.22 90.9 108.22 92.06C108.22 97.29 106.63 101.45 103.5 104.43C98.93 108.79 92.56 109.11 90.77 109.11Z" fill="black"/>
<path d="M90.77 120.11C90.5 120.11 90.33 120.1 90.29 120.1C89.13 120.04 88.24 119.06 88.3 117.9C88.36 116.75 89.34 115.88 90.49 115.91C90.55 115.92 96.69 116.14 100.62 112.38C102.87 110.22 104.02 107.09 104.02 103.06C104.02 101.9 104.96 100.96 106.12 100.96C107.28 100.96 108.22 101.9 108.22 103.06C108.22 108.29 106.63 112.45 103.5 115.43C98.93 119.79 92.56 120.11 90.77 120.11Z" fill="black"/>
<path d="M106.47 143.69C105.31 143.69 104.37 142.75 104.37 141.59V55.12C104.37 53.96 105.31 53.02 106.47 53.02C107.63 53.02 108.57 53.96 108.57 55.12C108.57 68.95 121.61 72.34 122.17 72.47C123.29 72.75 123.98 73.88 123.71 75C123.43 76.12 122.31 76.81 121.18 76.54C121.07 76.51 113.51 74.6 108.57 68.13V141.58C108.56 142.75 107.62 143.69 106.47 143.69Z" fill="black"/>
<path d="M121.81 130.07C120.02 130.07 113.65 129.75 109.09 125.4C105.96 122.42 104.37 118.26 104.37 113.03C104.37 111.87 105.31 110.93 106.47 110.93C107.63 110.93 108.57 111.87 108.57 113.03C108.57 117.05 109.71 120.19 111.97 122.35C115.9 126.11 122.04 125.89 122.1 125.88C123.19 125.83 124.23 126.72 124.29 127.88C124.34 129.03 123.46 130.01 122.3 130.07C122.25 130.06 122.08 130.07 121.81 130.07Z" fill="black"/>
<path d="M121.81 87.1C120.02 87.1 113.65 86.78 109.09 82.43C105.96 79.45 104.37 75.29 104.37 70.06C104.37 68.9 105.31 67.96 106.47 67.96C107.63 67.96 108.57 68.9 108.57 70.06C108.57 74.08 109.71 77.22 111.97 79.38C115.9 83.14 122.04 82.92 122.1 82.91C123.19 82.86 124.23 83.75 124.29 84.91C124.34 86.06 123.46 87.04 122.3 87.1C122.25 87.09 122.08 87.1 121.81 87.1Z" fill="black"/>
<path d="M121.81 98.1C120.02 98.1 113.65 97.78 109.09 93.43C105.96 90.45 104.37 86.29 104.37 81.06C104.37 79.9 105.31 78.96 106.47 78.96C107.63 78.96 108.57 79.9 108.57 81.06C108.57 85.08 109.71 88.22 111.97 90.38C115.9 94.14 122.04 93.91 122.1 93.91C123.19 93.86 124.23 94.75 124.29 95.91C124.34 97.06 123.46 98.04 122.3 98.1C122.25 98.1 122.08 98.1 121.81 98.1Z" fill="black"/>
<path d="M121.81 109.11C120.02 109.11 113.65 108.79 109.09 104.44C105.96 101.46 104.37 97.3 104.37 92.07C104.37 90.91 105.31 89.97 106.47 89.97C107.63 89.97 108.57 90.91 108.57 92.07C108.57 96.09 109.71 99.23 111.97 101.39C115.9 105.15 122.04 104.93 122.1 104.92C123.19 104.86 124.23 105.76 124.29 106.92C124.34 108.07 123.46 109.05 122.3 109.11C122.25 109.1 122.08 109.11 121.81 109.11Z" fill="black"/>
<path d="M121.81 120.11C120.02 120.11 113.65 119.79 109.09 115.44C105.96 112.46 104.37 108.3 104.37 103.07C104.37 101.91 105.31 100.97 106.47 100.97C107.63 100.97 108.57 101.91 108.57 103.07C108.57 107.09 109.71 110.23 111.97 112.39C115.9 116.15 122.04 115.92 122.1 115.92C123.19 115.9 124.23 116.76 124.29 117.92C124.34 119.07 123.46 120.05 122.3 120.11C122.25 120.11 122.08 120.11 121.81 120.11Z" fill="black"/>
<path d="M153.67 144.72C152.49 144.72 151.53 143.76 151.53 142.58V104.4C147.53 109.35 142.16 110.16 142.07 110.17C140.91 110.33 139.82 109.51 139.67 108.34C139.51 107.17 140.33 106.1 141.49 105.94C141.94 105.87 151.53 104.25 151.53 90.44C151.53 89.26 152.49 88.3 153.67 88.3C154.85 88.3 155.81 89.26 155.81 90.44V142.58C155.81 143.76 154.85 144.72 153.67 144.72Z" fill="white"/>
<path d="M138.04 123.02C137.76 123.02 137.6 123.01 137.55 123.01C136.37 122.95 135.46 121.95 135.52 120.77C135.58 119.59 136.57 118.71 137.75 118.74C137.82 118.74 144.07 118.98 148.07 115.15C150.37 112.95 151.53 109.76 151.53 105.66C151.53 104.48 152.49 103.52 153.67 103.52C154.85 103.52 155.81 104.48 155.81 105.66C155.81 110.99 154.19 115.23 151 118.26C146.35 122.69 139.87 123.02 138.04 123.02Z" fill="white"/>
<path d="M138.04 134.23C137.76 134.23 137.6 134.22 137.55 134.22C136.37 134.16 135.46 133.16 135.52 131.98C135.58 130.8 136.57 129.93 137.75 129.95C137.82 129.96 144.07 130.18 148.07 126.36C150.37 124.16 151.53 120.97 151.53 116.87C151.53 115.69 152.49 114.73 153.67 114.73C154.85 114.73 155.81 115.69 155.81 116.87C155.81 122.2 154.19 126.44 151 129.47C146.35 133.9 139.87 134.23 138.04 134.23Z" fill="white"/>
<path d="M154.03 144.72C152.85 144.72 151.89 143.76 151.89 142.58V90.44C151.89 89.26 152.85 88.3 154.03 88.3C155.21 88.3 156.17 89.26 156.17 90.44C156.17 104.44 166.39 106.94 166.82 107.04C167.96 107.3 168.69 108.44 168.43 109.59C168.18 110.74 167.05 111.46 165.9 111.21C165.81 111.19 160.25 109.9 156.16 104.55V142.58C156.16 143.76 155.21 144.72 154.03 144.72Z" fill="white"/>
<path d="M169.66 123.02C167.83 123.02 161.35 122.69 156.7 118.27C153.51 115.23 151.89 110.99 151.89 105.67C151.89 104.49 152.85 103.53 154.03 103.53C155.21 103.53 156.17 104.49 156.17 105.67C156.17 109.77 157.33 112.96 159.63 115.16C163.63 118.99 169.89 118.76 169.95 118.75C171.07 118.7 172.13 119.61 172.18 120.78C172.24 121.96 171.33 122.95 170.16 123.01C170.11 123.01 169.94 123.02 169.66 123.02Z" fill="white"/>
<path d="M169.66 134.23C167.83 134.23 161.35 133.9 156.7 129.48C153.51 126.44 151.89 122.2 151.89 116.88C151.89 115.7 152.85 114.74 154.03 114.74C155.21 114.74 156.17 115.7 156.17 116.88C156.17 120.98 157.33 124.17 159.63 126.37C163.63 130.2 169.89 129.97 169.95 129.96C171.07 129.9 172.13 130.82 172.18 131.99C172.24 133.17 171.33 134.16 170.16 134.22C170.11 134.22 169.94 134.23 169.66 134.23Z" fill="white"/>
<path d="M149.4 144.72C148.22 144.72 147.26 143.76 147.26 142.58V104.4C143.26 109.35 137.89 110.16 137.8 110.17C136.64 110.33 135.56 109.51 135.4 108.34C135.24 107.17 136.06 106.1 137.22 105.94C137.67 105.87 147.26 104.25 147.26 90.44C147.26 89.26 148.22 88.3 149.4 88.3C150.58 88.3 151.54 89.26 151.54 90.44V142.58C151.54 143.76 150.58 144.72 149.4 144.72Z" fill="black"/>
<path d="M133.77 123.02C133.49 123.02 133.33 123.01 133.28 123.01C132.1 122.95 131.19 121.95 131.25 120.77C131.31 119.59 132.31 118.71 133.48 118.74C133.54 118.74 139.8 118.98 143.8 115.15C146.1 112.95 147.26 109.76 147.26 105.66C147.26 104.48 148.22 103.52 149.4 103.52C150.58 103.52 151.54 104.48 151.54 105.66C151.54 110.99 149.92 115.23 146.73 118.26C142.08 122.69 135.59 123.02 133.77 123.02Z" fill="black"/>
<path d="M133.77 134.23C133.49 134.23 133.33 134.22 133.28 134.22C132.1 134.16 131.19 133.16 131.25 131.98C131.31 130.8 132.31 129.93 133.48 129.95C133.54 129.96 139.8 130.18 143.8 126.36C146.1 124.16 147.26 120.97 147.26 116.87C147.26 115.69 148.22 114.73 149.4 114.73C150.58 114.73 151.54 115.69 151.54 116.87C151.54 122.2 149.92 126.44 146.73 129.47C142.08 133.9 135.59 134.23 133.77 134.23Z" fill="black"/>
<path d="M149.76 144.72C148.58 144.72 147.62 143.76 147.62 142.58V90.44C147.62 89.26 148.58 88.3 149.76 88.3C150.94 88.3 151.9 89.26 151.9 90.44C151.9 104.44 162.12 106.94 162.55 107.04C163.69 107.3 164.42 108.44 164.16 109.59C163.91 110.74 162.78 111.46 161.63 111.21C161.54 111.19 155.98 109.9 151.89 104.55V142.58C151.89 143.76 150.94 144.72 149.76 144.72Z" fill="black"/>
<path d="M165.39 123.02C163.56 123.02 157.08 122.69 152.43 118.27C149.24 115.23 147.62 110.99 147.62 105.67C147.62 104.49 148.58 103.53 149.76 103.53C150.94 103.53 151.9 104.49 151.9 105.67C151.9 109.77 153.06 112.96 155.36 115.16C159.36 118.99 165.61 118.76 165.68 118.75C166.79 118.7 167.85 119.61 167.91 120.78C167.97 121.96 167.06 122.95 165.89 123.01C165.84 123.01 165.67 123.02 165.39 123.02Z" fill="black"/>
<path d="M165.39 134.23C163.56 134.23 157.08 133.9 152.43 129.48C149.24 126.44 147.62 122.2 147.62 116.88C147.62 115.7 148.58 114.74 149.76 114.74C150.94 114.74 151.9 115.7 151.9 116.88C151.9 120.98 153.06 124.17 155.36 126.37C159.36 130.2 165.61 129.97 165.68 129.96C166.79 129.9 167.85 130.82 167.91 131.99C167.97 133.17 167.06 134.16 165.89 134.22C165.84 134.22 165.67 134.23 165.39 134.23Z" fill="black"/>
<path d="M152.1 81.62C151.55 81.62 151 81.41 150.58 80.99C149.74 80.15 149.74 78.78 150.58 77.94L162.23 66.29L158.95 63.99C158.45 63.64 158.12 63.09 158.05 62.49C157.97 61.88 158.16 61.27 158.56 60.81L173.1 44.11C173.88 43.22 175.24 43.12 176.14 43.9C177.04 44.68 177.13 46.04 176.35 46.94L163.38 61.83L166.81 64.23C167.33 64.6 167.66 65.17 167.72 65.81C167.77 66.44 167.55 67.07 167.1 67.52L153.63 80.99C153.2 81.41 152.65 81.62 152.1 81.62Z" fill="black"/>
<path d="M251.77 146.74H75.05C74.14 146.74 73.3 146.25 72.86 145.45C72.42 144.66 72.44 143.68 72.93 142.91L81.79 128.74C82.52 127.57 84.06 127.21 85.24 127.95C86.41 128.68 86.77 130.22 86.03 131.4L79.56 141.74H247.25L163.4 7.59L128.42 63.55C127.69 64.72 126.15 65.08 124.97 64.34C123.8 63.61 123.44 62.07 124.18 60.89L161.28 1.53C161.74 0.799999 162.54 0.360001 163.4 0.360001C164.26 0.360001 165.06 0.799999 165.52 1.53L253.88 142.9C254.36 143.67 254.39 144.64 253.95 145.44C253.51 146.25 252.68 146.74 251.77 146.74Z" fill="black"/>
<path d="M78.42 162.66H69.56V157.49H93.57V162.66H84.74V186.66H78.43V162.66H78.42Z" fill="black"/>
<path d="M108.71 174.98V186.66H102.55V157.49H115.37C121.73 157.49 125.15 160.99 125.15 165.5C125.15 169.42 123.02 171.53 120.91 172.4C122.35 172.93 124.53 174.44 124.53 179.66V181.1C124.53 183.06 124.55 185.3 124.95 186.66H118.97C118.46 185.39 118.36 183.21 118.36 180.11V179.68C118.36 176.49 117.55 174.98 112.85 174.98H108.71V174.98ZM108.71 169.96H114C117.45 169.96 118.79 168.65 118.79 166.21C118.79 163.84 117.24 162.51 114.15 162.51H108.71V169.96Z" fill="black"/>
<path d="M141.82 179.92L139.54 186.66H133.34L143.25 157.49H151.17L161.5 186.66H154.87L152.47 179.92H141.82ZM151.12 174.75C149.05 168.59 147.73 164.66 147.02 162.04H146.98C146.26 164.92 144.8 169.49 143.14 174.75H151.12Z" fill="black"/>
<path d="M174.77 186.66L164.48 157.49H171.26L175.6 170.96C176.92 175.04 177.92 178.5 178.59 181.48H178.67C179.27 178.76 180.4 175.19 181.79 171.06L186.34 157.49H192.78L182.21 186.66H174.77Z" fill="black"/>
<path d="M221.46 174.08H207.51V181.49H222.9L222.15 186.66H201.39V157.49H222.07V162.66H207.51V168.91H221.46V174.08Z" fill="black"/>
<path d="M232.49 157.49H238.8V181.49H253.33L252.61 186.66H232.49V157.49V157.49Z" fill="black"/>
<path d="M142.23 213.5C141.37 213.81 139.67 214.32 137.66 214.32C135.41 214.32 133.56 213.75 132.1 212.36C130.82 211.12 130.03 209.14 130.03 206.82C130.05 202.39 133.1 199.14 138.08 199.14C139.8 199.14 141.15 199.52 141.79 199.82L141.33 201.39C140.54 201.04 139.54 200.75 138.04 200.75C134.42 200.75 132.06 203 132.06 206.73C132.06 210.5 134.33 212.73 137.8 212.73C139.06 212.73 139.92 212.55 140.36 212.33V207.89H137.34V206.35H142.24V213.5H142.23Z" fill="black"/>
<path d="M149.73 199.29V208.09C149.73 211.42 151.21 212.83 153.19 212.83C155.4 212.83 156.81 211.37 156.81 208.09V199.29H158.75V207.96C158.75 212.53 156.35 214.4 153.12 214.4C150.08 214.4 147.78 212.66 147.78 208.05V199.29H149.73Z" fill="black"/>
<path d="M166.66 199.29V214.16H164.74V199.29H166.66Z" fill="black"/>
<path d="M172.66 199.49C173.83 199.31 175.22 199.18 176.74 199.18C179.5 199.18 181.46 199.82 182.76 201.03C184.08 202.24 184.86 203.96 184.86 206.37C184.86 208.8 184.11 210.78 182.72 212.15C181.33 213.54 179.03 214.29 176.14 214.29C174.77 214.29 173.62 214.22 172.65 214.11V199.49H172.66ZM174.58 212.64C175.07 212.73 175.77 212.75 176.52 212.75C180.62 212.75 182.85 210.46 182.85 206.44C182.87 202.93 180.89 200.7 176.83 200.7C175.84 200.7 175.09 200.79 174.58 200.9V212.64Z" fill="black"/>
<path d="M197.71 207.19H191.93V212.55H198.37V214.16H190.01V199.29H198.04V200.9H191.93V205.6H197.71V207.19V207.19Z" fill="black"/>
<path d="M197.23 228.4H131.19C130.22 228.4 129.44 227.62 129.44 226.65C129.44 225.68 130.22 224.9 131.19 224.9H197.23C198.2 224.9 198.98 225.68 198.98 226.65C198.98 227.62 198.2 228.4 197.23 228.4Z" fill="black"/>
</svg>
