<svg width="315" height="228" viewBox="0 0 315 228" fill="none" xmlns="http://www.w3.org/2000/svg">
<path d="M226.13 23.75L137.77 165.12H314.48L226.13 23.75Z" fill="#676767"/>
<path d="M88.35 23.75L0 165.12H176.71L88.35 23.75Z" fill="#676767"/>
<path d="M162.94 23.75L74.58 165.12H251.3L162.94 23.75Z" fill="#323232"/>
<path d="M109.84 142.69C108.68 142.69 107.74 141.75 107.74 140.59V67.14C102.8 73.61 95.24 75.52 95.13 75.55C94 75.82 92.87 75.13 92.6 74C92.33 72.88 93.02 71.74 94.14 71.47C94.73 71.32 107.74 67.93 107.74 54.12C107.74 52.96 108.68 52.02 109.84 52.02C111 52.02 111.94 52.96 111.94 54.12V140.59C111.94 141.75 111 142.69 109.84 142.69Z" fill="white"/>
<path d="M94.49 129.07C94.22 129.07 94.05 129.06 94.01 129.06C92.85 129 91.96 128.02 92.02 126.86C92.08 125.7 93.06 124.82 94.21 124.87C94.28 124.88 100.41 125.1 104.34 121.34C106.59 119.18 107.74 116.05 107.74 112.02C107.74 110.86 108.68 109.92 109.84 109.92C111 109.92 111.94 110.86 111.94 112.02C111.94 117.25 110.35 121.41 107.22 124.39C102.65 128.75 96.29 129.07 94.49 129.07Z" fill="white"/>
<path d="M94.49 86.1C94.22 86.1 94.05 86.09 94.01 86.09C92.85 86.03 91.96 85.05 92.02 83.89C92.08 82.73 93.06 81.86 94.21 81.9C94.28 81.91 100.41 82.13 104.34 78.37C106.59 76.21 107.74 73.08 107.74 69.05C107.74 67.89 108.68 66.95 109.84 66.95C111 66.95 111.94 67.89 111.94 69.05C111.94 74.28 110.35 78.44 107.22 81.42C102.65 85.77 96.29 86.1 94.49 86.1Z" fill="white"/>
<path d="M94.49 97.1C94.22 97.1 94.05 97.09 94.01 97.09C92.85 97.03 91.96 96.05 92.02 94.89C92.08 93.74 93.06 92.88 94.21 92.9C94.28 92.91 100.41 93.13 104.34 89.37C106.59 87.21 107.74 84.08 107.74 80.05C107.74 78.89 108.68 77.95 109.84 77.95C111 77.95 111.94 78.89 111.94 80.05C111.94 85.28 110.35 89.44 107.22 92.42C102.65 96.78 96.29 97.1 94.49 97.1Z" fill="white"/>
<path d="M94.49 108.11C94.22 108.11 94.05 108.1 94.01 108.1C92.85 108.04 91.96 107.06 92.02 105.9C92.08 104.74 93.06 103.86 94.21 103.91C94.28 103.92 100.41 104.14 104.34 100.38C106.59 98.22 107.74 95.09 107.74 91.06C107.74 89.9 108.68 88.96 109.84 88.96C111 88.96 111.94 89.9 111.94 91.06C111.94 96.29 110.35 100.45 107.22 103.43C102.65 107.79 96.29 108.11 94.49 108.11Z" fill="white"/>
<path d="M94.49 119.11C94.22 119.11 94.05 119.1 94.01 119.1C92.85 119.04 91.96 118.06 92.02 116.9C92.08 115.75 93.06 114.88 94.21 114.91C94.28 114.92 100.41 115.14 104.34 111.38C106.59 109.22 107.74 106.09 107.74 102.06C107.74 100.9 108.68 99.96 109.84 99.96C111 99.96 111.94 100.9 111.94 102.06C111.94 107.29 110.35 111.45 107.22 114.43C102.65 118.79 96.29 119.11 94.49 119.11Z" fill="white"/>
<path d="M110.19 142.69C109.03 142.69 108.09 141.75 108.09 140.59V54.12C108.09 52.96 109.03 52.02 110.19 52.02C111.35 52.02 112.29 52.96 112.29 54.12C112.29 67.95 125.33 71.34 125.89 71.47C127.01 71.75 127.7 72.88 127.43 74C127.15 75.12 126.03 75.81 124.9 75.54C124.79 75.51 117.23 73.6 112.29 67.13V140.58C112.29 141.75 111.35 142.69 110.19 142.69Z" fill="white"/>
<path d="M125.54 129.07C123.75 129.07 117.38 128.75 112.82 124.4C109.69 121.42 108.1 117.26 108.1 112.03C108.1 110.87 109.04 109.93 110.2 109.93C111.36 109.93 112.3 110.87 112.3 112.03C112.3 116.05 113.44 119.19 115.7 121.35C119.63 125.11 125.76 124.89 125.83 124.88C126.93 124.83 127.97 125.72 128.02 126.88C128.07 128.03 127.19 129.01 126.03 129.07C125.97 129.06 125.81 129.07 125.54 129.07Z" fill="white"/>
<path d="M125.54 86.1C123.75 86.1 117.38 85.78 112.82 81.43C109.69 78.45 108.1 74.29 108.1 69.06C108.1 67.9 109.04 66.96 110.2 66.96C111.36 66.96 112.3 67.9 112.3 69.06C112.3 73.08 113.44 76.22 115.7 78.38C119.63 82.14 125.76 81.92 125.83 81.91C126.93 81.86 127.97 82.75 128.02 83.91C128.07 85.06 127.19 86.04 126.03 86.1C125.97 86.09 125.81 86.1 125.54 86.1Z" fill="white"/>
<path d="M125.54 97.1C123.75 97.1 117.38 96.78 112.82 92.43C109.69 89.45 108.1 85.29 108.1 80.06C108.1 78.9 109.04 77.96 110.2 77.96C111.36 77.96 112.3 78.9 112.3 80.06C112.3 84.08 113.44 87.22 115.7 89.38C119.63 93.14 125.76 92.91 125.83 92.91C126.93 92.86 127.97 93.75 128.02 94.91C128.07 96.06 127.19 97.04 126.03 97.1C125.97 97.1 125.81 97.1 125.54 97.1Z" fill="white"/>
<path d="M125.54 108.11C123.75 108.11 117.38 107.79 112.82 103.44C109.69 100.46 108.1 96.3 108.1 91.07C108.1 89.91 109.04 88.97 110.2 88.97C111.36 88.97 112.3 89.91 112.3 91.07C112.3 95.09 113.44 98.23 115.7 100.39C119.63 104.15 125.76 103.93 125.83 103.92C126.93 103.86 127.97 104.76 128.02 105.92C128.07 107.07 127.19 108.05 126.03 108.11C125.97 108.1 125.81 108.11 125.54 108.11Z" fill="white"/>
<path d="M125.54 119.11C123.75 119.11 117.38 118.79 112.82 114.44C109.69 111.46 108.1 107.3 108.1 102.07C108.1 100.91 109.04 99.97 110.2 99.97C111.36 99.97 112.3 100.91 112.3 102.07C112.3 106.09 113.44 109.23 115.7 111.39C119.63 115.15 125.76 114.92 125.83 114.92C126.93 114.9 127.97 115.76 128.02 116.92C128.07 118.07 127.19 119.05 126.03 119.11C125.97 119.11 125.81 119.11 125.54 119.11Z" fill="white"/>
<path d="M105.65 142.69C104.49 142.69 103.55 141.75 103.55 140.59V67.14C98.61 73.61 91.05 75.52 90.94 75.55C89.81 75.82 88.68 75.13 88.41 74C88.14 72.88 88.83 71.74 89.95 71.47C90.54 71.32 103.55 67.93 103.55 54.12C103.55 52.96 104.49 52.02 105.65 52.02C106.81 52.02 107.75 52.96 107.75 54.12V140.59C107.74 141.75 106.81 142.69 105.65 142.69Z" fill="#BBD9D0"/>
<path d="M90.3 129.07C90.03 129.07 89.86 129.06 89.82 129.06C88.66 129 87.77 128.02 87.83 126.86C87.89 125.7 88.87 124.82 90.02 124.87C90.08 124.88 96.22 125.1 100.15 121.34C102.4 119.18 103.55 116.05 103.55 112.02C103.55 110.86 104.49 109.92 105.65 109.92C106.81 109.92 107.75 110.86 107.75 112.02C107.75 117.25 106.16 121.41 103.03 124.39C98.46 128.75 92.09 129.07 90.3 129.07Z" fill="#BBD9D0"/>
<path d="M90.3 86.1C90.03 86.1 89.86 86.09 89.82 86.09C88.66 86.03 87.77 85.05 87.83 83.89C87.89 82.73 88.87 81.86 90.02 81.9C90.08 81.91 96.22 82.13 100.15 78.37C102.4 76.21 103.55 73.08 103.55 69.05C103.55 67.89 104.49 66.95 105.65 66.95C106.81 66.95 107.75 67.89 107.75 69.05C107.75 74.28 106.16 78.44 103.03 81.42C98.46 85.77 92.09 86.1 90.3 86.1Z" fill="#BBD9D0"/>
<path d="M90.3 97.1C90.03 97.1 89.86 97.09 89.82 97.09C88.66 97.03 87.77 96.05 87.83 94.89C87.89 93.74 88.87 92.88 90.02 92.9C90.08 92.91 96.22 93.13 100.15 89.37C102.4 87.21 103.55 84.08 103.55 80.05C103.55 78.89 104.49 77.95 105.65 77.95C106.81 77.95 107.75 78.89 107.75 80.05C107.75 85.28 106.16 89.44 103.03 92.42C98.46 96.78 92.09 97.1 90.3 97.1Z" fill="#BBD9D0"/>
<path d="M90.3 108.11C90.03 108.11 89.86 108.1 89.82 108.1C88.66 108.04 87.77 107.06 87.83 105.9C87.89 104.74 88.87 103.86 90.02 103.91C90.08 103.92 96.22 104.14 100.15 100.38C102.4 98.22 103.55 95.09 103.55 91.06C103.55 89.9 104.49 88.96 105.65 88.96C106.81 88.96 107.75 89.9 107.75 91.06C107.75 96.29 106.16 100.45 103.03 103.43C98.46 107.79 92.09 108.11 90.3 108.11Z" fill="#BBD9D0"/>
<path d="M90.3 119.11C90.03 119.11 89.86 119.1 89.82 119.1C88.66 119.04 87.77 118.06 87.83 116.9C87.89 115.75 88.87 114.88 90.02 114.91C90.08 114.92 96.22 115.14 100.15 111.38C102.4 109.22 103.55 106.09 103.55 102.06C103.55 100.9 104.49 99.96 105.65 99.96C106.81 99.96 107.75 100.9 107.75 102.06C107.75 107.29 106.16 111.45 103.03 114.43C98.46 118.79 92.09 119.11 90.3 119.11Z" fill="#BBD9D0"/>
<path d="M106 142.69C104.84 142.69 103.9 141.75 103.9 140.59V54.12C103.9 52.96 104.84 52.02 106 52.02C107.16 52.02 108.1 52.96 108.1 54.12C108.1 67.95 121.14 71.34 121.7 71.47C122.82 71.75 123.51 72.88 123.24 74C122.96 75.12 121.84 75.81 120.71 75.54C120.6 75.51 113.04 73.6 108.1 67.13V140.58C108.09 141.75 107.15 142.69 106 142.69Z" fill="#BBD9D0"/>
<path d="M121.34 129.07C119.55 129.07 113.18 128.75 108.62 124.4C105.49 121.42 103.9 117.26 103.9 112.03C103.9 110.87 104.84 109.93 106 109.93C107.16 109.93 108.1 110.87 108.1 112.03C108.1 116.05 109.24 119.19 111.5 121.35C115.43 125.11 121.57 124.89 121.63 124.88C122.72 124.83 123.76 125.72 123.82 126.88C123.87 128.03 122.99 129.01 121.83 129.07C121.78 129.06 121.61 129.07 121.34 129.07Z" fill="#BBD9D0"/>
<path d="M121.34 86.1C119.55 86.1 113.18 85.78 108.62 81.43C105.49 78.45 103.9 74.29 103.9 69.06C103.9 67.9 104.84 66.96 106 66.96C107.16 66.96 108.1 67.9 108.1 69.06C108.1 73.08 109.24 76.22 111.5 78.38C115.43 82.14 121.57 81.92 121.63 81.91C122.72 81.86 123.76 82.75 123.82 83.91C123.87 85.06 122.99 86.04 121.83 86.1C121.78 86.09 121.61 86.1 121.34 86.1Z" fill="#BBD9D0"/>
<path d="M121.34 97.1C119.55 97.1 113.18 96.78 108.62 92.43C105.49 89.45 103.9 85.29 103.9 80.06C103.9 78.9 104.84 77.96 106 77.96C107.16 77.96 108.1 78.9 108.1 80.06C108.1 84.08 109.24 87.22 111.5 89.38C115.43 93.14 121.57 92.91 121.63 92.91C122.72 92.86 123.76 93.75 123.82 94.91C123.87 96.06 122.99 97.04 121.83 97.1C121.78 97.1 121.61 97.1 121.34 97.1Z" fill="#BBD9D0"/>
<path d="M121.34 108.11C119.55 108.11 113.18 107.79 108.62 103.44C105.49 100.46 103.9 96.3 103.9 91.07C103.9 89.91 104.84 88.97 106 88.97C107.16 88.97 108.1 89.91 108.1 91.07C108.1 95.09 109.24 98.23 111.5 100.39C115.43 104.15 121.57 103.93 121.63 103.92C122.72 103.86 123.76 104.76 123.82 105.92C123.87 107.07 122.99 108.05 121.83 108.11C121.78 108.1 121.61 108.11 121.34 108.11Z" fill="#BBD9D0"/>
<path d="M121.34 119.11C119.55 119.11 113.18 118.79 108.62 114.44C105.49 111.46 103.9 107.3 103.9 102.07C103.9 100.91 104.84 99.97 106 99.97C107.16 99.97 108.1 100.91 108.1 102.07C108.1 106.09 109.24 109.23 111.5 111.39C115.43 115.15 121.57 114.92 121.63 114.92C122.72 114.9 123.76 115.76 123.82 116.92C123.87 118.07 122.99 119.05 121.83 119.11C121.78 119.11 121.61 119.11 121.34 119.11Z" fill="#BBD9D0"/>
<path d="M153.2 143.72C152.02 143.72 151.06 142.76 151.06 141.58V103.4C147.06 108.35 141.69 109.16 141.6 109.17C140.44 109.33 139.35 108.51 139.2 107.34C139.04 106.17 139.86 105.1 141.02 104.94C141.47 104.87 151.06 103.25 151.06 89.44C151.06 88.26 152.02 87.3 153.2 87.3C154.38 87.3 155.34 88.26 155.34 89.44V141.58C155.34 142.76 154.38 143.72 153.2 143.72Z" fill="white"/>
<path d="M137.57 122.02C137.29 122.02 137.13 122.01 137.08 122.01C135.9 121.95 134.99 120.95 135.05 119.77C135.11 118.59 136.1 117.71 137.28 117.74C137.35 117.74 143.6 117.98 147.6 114.15C149.9 111.95 151.06 108.76 151.06 104.66C151.06 103.48 152.02 102.52 153.2 102.52C154.38 102.52 155.34 103.48 155.34 104.66C155.34 109.99 153.72 114.23 150.53 117.26C145.88 121.69 139.4 122.02 137.57 122.02Z" fill="white"/>
<path d="M137.57 133.23C137.29 133.23 137.13 133.22 137.08 133.22C135.9 133.16 134.99 132.16 135.05 130.98C135.11 129.8 136.1 128.93 137.28 128.95C137.35 128.96 143.6 129.18 147.6 125.36C149.9 123.16 151.06 119.97 151.06 115.87C151.06 114.69 152.02 113.73 153.2 113.73C154.38 113.73 155.34 114.69 155.34 115.87C155.34 121.2 153.72 125.44 150.53 128.47C145.88 132.9 139.4 133.23 137.57 133.23Z" fill="white"/>
<path d="M153.56 143.72C152.38 143.72 151.42 142.76 151.42 141.58V89.44C151.42 88.26 152.38 87.3 153.56 87.3C154.74 87.3 155.7 88.26 155.7 89.44C155.7 103.44 165.92 105.94 166.35 106.04C167.49 106.3 168.22 107.44 167.96 108.59C167.71 109.74 166.58 110.46 165.43 110.21C165.34 110.19 159.78 108.9 155.69 103.55V141.58C155.69 142.76 154.74 143.72 153.56 143.72Z" fill="white"/>
<path d="M169.19 122.02C167.36 122.02 160.88 121.69 156.23 117.27C153.04 114.23 151.42 109.99 151.42 104.67C151.42 103.49 152.38 102.53 153.56 102.53C154.74 102.53 155.7 103.49 155.7 104.67C155.7 108.77 156.86 111.96 159.16 114.16C163.16 117.99 169.42 117.76 169.48 117.75C170.6 117.7 171.66 118.61 171.71 119.78C171.77 120.96 170.86 121.95 169.69 122.01C169.64 122.01 169.47 122.02 169.19 122.02Z" fill="white"/>
<path d="M169.19 133.23C167.36 133.23 160.88 132.9 156.23 128.48C153.04 125.44 151.42 121.2 151.42 115.88C151.42 114.7 152.38 113.74 153.56 113.74C154.74 113.74 155.7 114.7 155.7 115.88C155.7 119.98 156.86 123.17 159.16 125.37C163.16 129.2 169.42 128.97 169.48 128.96C170.6 128.9 171.66 129.82 171.71 130.99C171.77 132.17 170.86 133.16 169.69 133.22C169.64 133.22 169.47 133.23 169.19 133.23Z" fill="white"/>
<path d="M148.93 143.72C147.75 143.72 146.79 142.76 146.79 141.58V103.4C142.79 108.35 137.42 109.16 137.33 109.17C136.17 109.33 135.09 108.51 134.93 107.34C134.77 106.17 135.59 105.1 136.75 104.94C137.2 104.87 146.79 103.25 146.79 89.44C146.79 88.26 147.75 87.3 148.93 87.3C150.11 87.3 151.07 88.26 151.07 89.44V141.58C151.07 142.76 150.11 143.72 148.93 143.72Z" fill="#BBD9D0"/>
<path d="M133.3 122.02C133.02 122.02 132.86 122.01 132.81 122.01C131.63 121.95 130.72 120.95 130.78 119.77C130.84 118.59 131.84 117.71 133.01 117.74C133.07 117.74 139.33 117.98 143.33 114.15C145.63 111.95 146.79 108.76 146.79 104.66C146.79 103.48 147.75 102.52 148.93 102.52C150.11 102.52 151.07 103.48 151.07 104.66C151.07 109.99 149.45 114.23 146.26 117.26C141.61 121.69 135.12 122.02 133.3 122.02Z" fill="#BBD9D0"/>
<path d="M133.3 133.23C133.02 133.23 132.86 133.22 132.81 133.22C131.63 133.16 130.72 132.16 130.78 130.98C130.84 129.8 131.84 128.93 133.01 128.95C133.07 128.96 139.33 129.18 143.33 125.36C145.63 123.16 146.79 119.97 146.79 115.87C146.79 114.69 147.75 113.73 148.93 113.73C150.11 113.73 151.07 114.69 151.07 115.87C151.07 121.2 149.45 125.44 146.26 128.47C141.61 132.9 135.12 133.23 133.3 133.23Z" fill="#BBD9D0"/>
<path d="M149.29 143.72C148.11 143.72 147.15 142.76 147.15 141.58V89.44C147.15 88.26 148.11 87.3 149.29 87.3C150.47 87.3 151.43 88.26 151.43 89.44C151.43 103.44 161.65 105.94 162.08 106.04C163.22 106.3 163.95 107.44 163.69 108.59C163.44 109.74 162.31 110.46 161.16 110.21C161.07 110.19 155.51 108.9 151.42 103.55V141.58C151.42 142.76 150.47 143.72 149.29 143.72Z" fill="#BBD9D0"/>
<path d="M164.92 122.02C163.09 122.02 156.61 121.69 151.96 117.27C148.77 114.23 147.15 109.99 147.15 104.67C147.15 103.49 148.11 102.53 149.29 102.53C150.47 102.53 151.43 103.49 151.43 104.67C151.43 108.77 152.59 111.96 154.89 114.16C158.89 117.99 165.14 117.76 165.21 117.75C166.32 117.7 167.38 118.61 167.44 119.78C167.5 120.96 166.59 121.95 165.42 122.01C165.37 122.01 165.2 122.02 164.92 122.02Z" fill="#BBD9D0"/>
<path d="M164.92 133.23C163.09 133.23 156.61 132.9 151.96 128.48C148.77 125.44 147.15 121.2 147.15 115.88C147.15 114.7 148.11 113.74 149.29 113.74C150.47 113.74 151.43 114.7 151.43 115.88C151.43 119.98 152.59 123.17 154.89 125.37C158.89 129.2 165.14 128.97 165.21 128.96C166.32 128.9 167.38 129.82 167.44 130.99C167.5 132.17 166.59 133.16 165.42 133.22C165.37 133.22 165.2 133.23 164.92 133.23Z" fill="#BBD9D0"/>
<path d="M151.63 80.62C151.08 80.62 150.53 80.41 150.11 79.99C149.27 79.15 149.27 77.78 150.11 76.94L161.76 65.29L158.48 62.99C157.98 62.64 157.65 62.09 157.58 61.49C157.5 60.88 157.69 60.27 158.09 59.81L172.63 43.11C173.41 42.22 174.77 42.12 175.67 42.9C176.57 43.68 176.66 45.04 175.88 45.94L162.91 60.83L166.34 63.23C166.86 63.6 167.19 64.17 167.25 64.81C167.3 65.44 167.08 66.07 166.63 66.52L153.16 79.99C152.73 80.41 152.18 80.62 151.63 80.62Z" fill="#BBD9D0"/>
<path d="M251.225 146.38H74.5046C73.5946 146.38 72.7546 145.89 72.3146 145.09C71.8746 144.3 71.8946 143.32 72.3846 142.55L81.2446 128.38C81.9746 127.21 83.5146 126.85 84.6946 127.59C85.8646 128.32 86.2246 129.86 85.4846 131.04L79.0146 141.38H246.705L162.855 7.23L127.875 63.19C127.145 64.36 125.605 64.72 124.425 63.98C123.255 63.25 122.895 61.71 123.635 60.53L160.735 1.17C161.195 0.439998 161.995 0 162.855 0C163.715 0 164.515 0.439998 164.975 1.17L253.335 142.54C253.815 143.31 253.845 144.28 253.405 145.08C252.965 145.89 252.135 146.38 251.225 146.38Z" fill="#BBD9D0"/>
<path d="M77.95 161.66H69.09V156.49H93.1V161.66H84.27V185.66H77.96V161.66H77.95Z" fill="#BBD9D0"/>
<path d="M108.24 173.98V185.66H102.08V156.49H114.9C121.26 156.49 124.68 159.99 124.68 164.5C124.68 168.42 122.55 170.53 120.44 171.4C121.88 171.93 124.06 173.44 124.06 178.66V180.1C124.06 182.06 124.08 184.3 124.48 185.66H118.5C117.99 184.39 117.89 182.21 117.89 179.11V178.68C117.89 175.49 117.08 173.98 112.38 173.98H108.24V173.98ZM108.24 168.96H113.53C116.98 168.96 118.32 167.65 118.32 165.21C118.32 162.84 116.77 161.51 113.68 161.51H108.24V168.96Z" fill="#BBD9D0"/>
<path d="M141.35 178.92L139.07 185.66H132.87L142.78 156.49H150.7L161.03 185.66H154.4L152 178.92H141.35ZM150.65 173.75C148.58 167.59 147.26 163.66 146.55 161.04H146.51C145.79 163.92 144.33 168.49 142.67 173.75H150.65Z" fill="#BBD9D0"/>
<path d="M174.3 185.66L164.01 156.49H170.79L175.13 169.96C176.45 174.04 177.45 177.5 178.12 180.48H178.2C178.8 177.76 179.93 174.19 181.32 170.06L185.87 156.49H192.31L181.74 185.66H174.3Z" fill="#BBD9D0"/>
<path d="M220.99 173.08H207.04V180.49H222.43L221.68 185.66H200.92V156.49H221.6V161.66H207.04V167.91H220.99V173.08Z" fill="#BBD9D0"/>
<path d="M232.02 156.49H238.33V180.49H252.86L252.14 185.66H232.02V156.49V156.49Z" fill="#BBD9D0"/>
<path d="M141.76 212.5C140.9 212.81 139.2 213.32 137.19 213.32C134.94 213.32 133.09 212.75 131.63 211.36C130.35 210.12 129.56 208.14 129.56 205.82C129.58 201.39 132.63 198.14 137.61 198.14C139.33 198.14 140.68 198.52 141.32 198.82L140.86 200.39C140.07 200.04 139.07 199.75 137.57 199.75C133.95 199.75 131.59 202 131.59 205.73C131.59 209.5 133.86 211.73 137.33 211.73C138.59 211.73 139.45 211.55 139.89 211.33V206.89H136.87V205.35H141.77V212.5H141.76Z" fill="#BBD9D0"/>
<path d="M149.26 198.29V207.09C149.26 210.42 150.74 211.83 152.72 211.83C154.93 211.83 156.34 210.37 156.34 207.09V198.29H158.28V206.96C158.28 211.53 155.88 213.4 152.65 213.4C149.61 213.4 147.31 211.66 147.31 207.05V198.29H149.26Z" fill="#BBD9D0"/>
<path d="M166.19 198.29V213.16H164.27V198.29H166.19Z" fill="#BBD9D0"/>
<path d="M172.19 198.49C173.36 198.31 174.75 198.18 176.27 198.18C179.03 198.18 180.99 198.82 182.29 200.03C183.61 201.24 184.39 202.96 184.39 205.37C184.39 207.8 183.64 209.78 182.25 211.15C180.86 212.54 178.56 213.29 175.67 213.29C174.3 213.29 173.15 213.22 172.18 213.11V198.49H172.19ZM174.11 211.64C174.6 211.73 175.3 211.75 176.05 211.75C180.15 211.75 182.38 209.46 182.38 205.44C182.4 201.93 180.42 199.7 176.36 199.7C175.37 199.7 174.62 199.79 174.11 199.9V211.64Z" fill="#BBD9D0"/>
<path d="M197.24 206.19H191.46V211.55H197.9V213.16H189.54V198.29H197.57V199.9H191.46V204.6H197.24V206.19V206.19Z" fill="#BBD9D0"/>
<path d="M196.76 227.4H130.72C129.75 227.4 128.97 226.62 128.97 225.65C128.97 224.68 129.75 223.9 130.72 223.9H196.76C197.73 223.9 198.51 224.68 198.51 225.65C198.51 226.62 197.73 227.4 196.76 227.4Z" fill="#BBD9D0"/>
</svg>
